<mxfile host="app.diagrams.net" modified="2022-08-22T06:47:51.935Z" agent="5.0 (Macintosh)" etag="_xloihtke3RcYyhjLCXd" version="20.2.4" type="github">
  <diagram id="Wpfr91Q9_aH3cWy4JaWR" name="Page-1">
    <mxGraphModel dx="1796" dy="473" grid="0" gridSize="10" guides="1" tooltips="1" connect="1" arrows="1" fold="1" page="1" pageScale="1" pageWidth="850" pageHeight="1100" math="0" shadow="0">
      <root>
        <mxCell id="0" />
        <mxCell id="1" parent="0" />
        <mxCell id="RDgQklarTY56nqukjO2r-1" value="" style="rounded=0;whiteSpace=wrap;html=1;strokeColor=#000000;" parent="1" vertex="1">
          <mxGeometry x="-135" y="50" width="830" height="468" as="geometry" />
        </mxCell>
        <mxCell id="RDgQklarTY56nqukjO2r-2" value="" style="shape=image;verticalLabelPosition=bottom;labelBackgroundColor=default;verticalAlign=top;aspect=fixed;imageAspect=0;image=data:image/jpeg,/9j/4AAQSkZJRgABAQAAAQABAAD/2wBDAAMCAgMCAgMDAwMEAwMEBQgFBQQEBQoHBwYIDAoMDAsKCwsNDhIQDQ4RDgsLEBYQERMUFRUVDA8XGBYUGBIUFRT/2wBDAQMEBAUEBQkFBQkUDQsNFBQUFBQUFBQUFBQUFBQUFBQUFBQUFBQUFBQUFBQUFBQUFBQUFBQUFBQUFBQUFBQUFBT/wgARCAMgAyADASIAAhEBAxEB/8QAHAAAAQUBAQEAAAAAAAAAAAAAAQACAwQFBgcI/8QAGgEAAwEBAQEAAAAAAAAAAAAAAAECAwQFBv/aAAwDAQACEAMQAAAB9UeySLCSSaUQQIGkQIB4bBQG5BKU4FgKTRQLEkmJJAQChFFohECCpaSIyWlMIgEihJweDCHAkUhEGhJJpJJgRUtJICkKSSSEQWJJAkCCSQJJAQQBSIkggSSBIIaSQJJAkkCSQJIMKSAIpASQJIhnua6KSSSBam3NIBBwBIgaKKSSIkEqEg5CSVIkJiRAJJAikgOaWORSE4NTeklRCQOCSCWuEESJKMMlUEjHkESSLGkFCIVBSQBJIRBYQkCSQJEAkUASQIggkkCSQgWkZCIBFAEQCSQJIgA4AkkCCTEkgoua7NgOaASSZQIJJCQRGUkIOBYkk0iCwJIE5pAoIRCTC5rk0kgckE0kgLgU0moHNh4xz2eN4Bz6PecfxYM9TwuGeHoPXeDsD37W+aJA+wNL4u6Qf1kvA/UhdWiAKBoQSQiHMCIBFIEEgIKAFIEkAIKEkiASQJJAkkAc0jCIBIgEkgQKYEUgFBme9r4aCQAtMtFIQBQJJAUCAIIIpUFICRQYiEDkExJFBKTRQMspFMMe1kjmYqLvmHmnEs6fIo10t12Taant4rx3LeLaCSORwhJUCatumFE91Nv2v13429xD1807lARQBzXAiEJIoAkgIBGgUCQIJIAUCCSAJIggQAKIIJAkQBCQJJAgUCSQZ7gYaIQmlFUkk5QITSKG0lNApAkkhFGkg4MCKBJJicEDgHIRaRuQSE13BC6z5TiKeRJNYFWzepzgyrlWZkOjR1QxbkPVBz9W/nhYt6GuGAumw0WqrZWY8tumHfe5fL90PrAeR+ttl7ZBNEjBJIMKQBIEaSQkkgBQGkkCSQIhAkgDkCCBAJJAkkCSTEkgSSCgkYaIUgIIFBMISBJEEkBEFAEU2UEJEIEQQRBAoJhSLAUpHIRp5Xy1rcUF2enbCJ8+aLTovcMMt1RNj2Mtlzay7YZuXuIWhep7LebSi0UaFG5lo3+I3oGc3raGEGl9P/NXZD+gbWfoifFYjZWEsbQTmiSSGQgBSQIEDRSBIgSSQIFDBQBIgCEgSSBJIAUmAoBQKMNIhDXApogCcEgSBAEJskATi1zEEWiC1DgCDkDQHsdKcClTXJrHc30nOh8o0LeelO1lhNtK0mP2sJ4rTadhubB2Mpz1nM7PPJ+gX/OUHojuXYF/oeT6NPrsLntoFHo5DWPbeUWKlrWo9G9Z+S/rBO2JATBBZgbYCmkEgQSGikASIApAkkIFIaBQgihoFAkECSQJJMSSBApFFBQ3BIQSKpJIQKTEQAcEgSKSRaaEQgKCQS11CcxyA5pY5AoISG6ldcn8WUN7HB+lr3+Pv5el3EKrg6nV0ejkyzfsXlSr7uVUQRnTGJDdDGXR4QrvQ8DqD0tHHnT3LfE9+5yGdFzbK0zHBF9XfJH1I11AKCOOaIcLSGkigCQGUkJIEEgQQSGS0gigJAoaBAJJAkEwkBDgkCSDKSSzZQSEghkECKSBJIRBDaSSEQWgUWIEIRJY0kMRBY5B0tpREoLHIlfK+/ld1zdU0193m+tXfp2steOwe5wNJ5CDpqPb52Ten09uaPE6y/GnMjpJFXAVe6qb83HVeqyHGF0+FaqX9vwXcVOpzexitXI6emFP6a+Y/p4OkjcQihniZXRDTSkMhISSQJIAU0jISAoICkgSBEEkNJIEkgQKYkggoFlBJZ05qSEkBuTSIEFsoFSCCNJFyEQMoFopICg4A4EQc1w0QhopIXA9/wAKV4Z287vI9h9mto8vZXvjSz1rVurUacfB6NCp47Y6ayjm5ehaVhjppern53K9Dx+vk8y4/wBqypr5+ret8r1cXC9zWZ2+fj7DKrm+FkBb+pPF/dmSJ5CKOaIVYPYARTAkBoggkECSIBEAQiCCQFAgEkCSAEFMQKQgQCRTKBAzZDmjQKBFJCSQFACJBBFBopIEQ5gQKEUGOSIAosRBlhJNO5PreZjTgM88X5Xsdr03i+1Uera/NdVydmhY0bWOjK+hmObD6V+WyZ50ztuju+hxHO25tcOXpdjVy2808s934LPXwrTtT+r5GMdWC4dNCwn3zrM7THIntYyORgq8c0Q2uBaAIGkiDSUABIBJAkiATkhhRYAQCIQFJACkARAApBRCENwc1MEJskFCQIOCAkkhOBTQKTCgkIpMcQQa9IaSIJAoSKBc303F56+SV+o2/L9ficH0mJHkfrOLS3x926TyL0fh7tujVfBdtVbFxbkqrp5NdlR++Fx9ZNT0BLjtk+f+p8pnr5XnbzO/i5p76fTy07cGxWfud2ndbmBjBAhKGGeBsIFpBIEgRghAQUCCAOSAEEACkxJJCSQJBAUECSAIFBRQMU5jghpRYi0gSAm4JNJIoRCEUk0CiCILAkgegQKRGCkCTghec+jeb83VR47pOG8v121/RvK+rCTuOGgm/V+u4bc4erso1FLvZhn6MPP+S9iG2HnPZ9Xoa5cn2EeRpPoK53oObSeMNled8v6v5Q75o3X9/Dy3qvmXv/Ty2bdS45sMexgBIoq1qsNoQaSQGUCARQAggEkCSQJAgkiASTECkJJMQKABFDXBDz3AwOaQm0pMKRGEQCSAnIBMlARLSDkCSUFQSiAQeCScNFBNEIIvLvRvOfP9DG53p6fB6XrPzX7L0ffwfPF323xF1N6R5F7Nw93pQ66E5uCjxeMy7O0q8RLpHpslb0Oorz+e9sTR6bPta4XGWmGOd4p7Z4+9IsXr/QNcvMPUL1Caguk+l5swcLkBzQZWsQohBFSmuAwkhoggCCCSQJJAgUASIBAggUCSQAoAkkgIFlBFRRBaNJISSI0kkJEAkgxyCSKSBOaWigRIgsUsT2FJqb0CmiEGNxvW8x5PsZ2f2mhw9vnb+1oOuJ5P0vItc577xvs15bEFqHu8byjxL6I8F4/c9S4rc9A0w+TPXva128WTW5/v/K9G/eht7+eYy2o53yj0bP1vtLGV1GSq8F6X56unVkhm7vPma8dfIGSAIo54QrNewSBTYRQAhASEJBEYSQJJAQkCSQBEAkkCSSEgmBOaiiWGaJQGkkCIIJBAiCJIEaSSCgmJ7XCSSJRD2NeE24QwE6CyKzN6HmqlRoYda34vv7eria3F328rR5+Ky8lvR0dX6TzvVeh47EB18C809OrZb/PV/wBgi832OI2utu68uVozrs4ImWIIIa89PDo827/zH2jQ4PT6bheP0e+5Tp8nr8+ualv1PNsJzNJSDkRxTRhVZJGCa4MSBBJIEgQSSBJEAkgQIAhIEkgBSQCkADmjLHAM50b0PSCpFj2JJJJJDRQAhIESADmkRLSh4ZWqbkNDNuNipkGo0Kebm3HRV65E3Mu5AS73J9X4v0VrRypvN9a5zNyum/0nluurLotznui9Xwa8Fms846uQeP0dixlammNids3bxMTmOY4lHy7w4ur57zdnO+2+Wem1EdPYrpPsm96fn4MPRrpw5UdJnFZbiyWo5I0Vop4abUkCSQJIAUkCSQApAgUCCQJJICRQgk2U1CcEm2Fqkzntcm9BDjcxzl6CTckBlIiCSGkUCSQjXqZV53YKkmuMnJ6uC1f2uR6Jw3O6PHVzzpgV86dkvD67iOk8r29qIZfl+sxmK+o0vSPmfoOjL6o2PLKJl6bseX97tz0sTu+B5O3c2+B6xnQWM+f0PJssijJMDK/L1VfJPQfLa19a6/O2J5o4ra6cJZQfQ4mOgVS+obbGUtWCb5ur1VAfORSRTaBDCEgKCAoEEkgSSBJACggRSGE9gk0lDHIDIAEgWp5skb0OADAkki4ObKDxpIJlAA9Co1LkQ19udQx1bztKvOnXxdnODL2M+yT0k2dqJ52br5E3jwzzUuY2ac/n+n1XkvqniPF3V4rfQ9vFwvUb+gXzsvTc+HpvrnzdqzX05l+JMwv1Wlmdxy9UmhyWy52xTfpzGrLjLXiq3He3ejxaXQz0VicuDD7eT0WXP0E4WyuEmupBZjdI01Z9xo831Yi/Pl1/LGkKQmikhJEMIRBIIEkQCSkRBbLJIxBwI2oETQXDjRalmvjeqKQqUgobiw0pHRoqVRoHpucKfJA6OZkU5qaamhltpOopy0k9zm3s63S2tnD2JceXrVpeDVu0W8KDS5nPX0PyDqeb831ush6LV4e7k9fR6DTrj29vX0OQz/VJdOP5j4r7R4NYfPH0L4D7G8/Uob1bm0ElKwnS43qPGd5n+nvPvRfW8VZuhXvPnMDX5/p5+16Pker595S1Z6FpYJVLVe4wuky9W4IcstVWtNFxFbuuTWue5rlSSQgSARCYkkhIJBLXMTXAYACGlIHNcAaCBZj2OVEFqAQm3EJSSC0nxyDZzd6HXJ5tO2wrRWAFGnoUE6mfp5adW5TeTWdar0aWhh3UbWTfZnpiUNvMZi4nQQVHnFff53m6/VOj47r/AAvc53iev5zt59vf4+fSPc/Q/OvQePouc9c8eccn6d5b1fRHtkXn2jydHW5nMc1U2qnN/Tfp+bvhzerhUckDXJY2nT6+XpN2lo8vTInQ56sfRt3m7KtZlxq3KVmanLXZ6ppYJJsrXI5Pf8nOmakhpIIKSBBIaBQMe0icwtbCIQWkCKCAIIWW6KQt7CE0mOBzmOE5BJGCbn6mSzp1ejmfJHZDMUtWpipWWtZGTq15rDh2inUGrTBl6teFt5mjlgzN2K4+ZobGNU3fKfaOOz05jf5K5xeh2D+f6HPod0GJPnr7Nr+T3cr6nya9U2w4/KsUOjm6r1fsPS+Du+LrX1N5R0c+57RzXUdnCEG64uq28io4jUwOh7eXpNLM0uPqnY9mW1dofpjHBNKyCacRbUYhsnhlFM5qmxQ0Wh58rVVaJIJFIMTHCW5BA4NaxzCAIREgkNBzWgkmsd7Hzbw0Jksc0XNcm5qSDzHT8rrjvbfI9n08vPwWJZqrFWma0a+jRqMbM6PEHkWaql3ar3tZttjQ6ijeow53sutcjzfZctTvb/M9ST47ifRXlvP1cbaxDz9XQdX53NGvpNfz+gn0xw/Y+br6zupe7weTqtm7PPZk6kdxbSHZzMrFumdzm+j4yp5jqOb63p59q/Ws8fXNDLVi4DHW3wsX6tzOyx8M06qLFTM1r5vL0LFdUrEU4YPMd9wE2iFNIoNAoJgOFBY5qEEkJJNJBAWkUigQxHMdnb2hNEsc0XEFPCSbeV6XK6OWHr+I6HTLX5btcXTPNq6Lc7u870/H6ZdFhXHquUhvUZq3LUtCjjsFLYzNTGV29TJ1HOXy/Yc2zJ3sHbqeqnpWZrmvG/obgfO9bye97FueZ6ni+n67Sz1zOvu+j4ulvJvq+O5zDebYpYs6uqCb0OOi6po74u8573yzTO/2vKdzSlmgqc++zSu5M1Tlxur2xlcFhss2SvpF58sUU5yoqp7Ceh6QWq899D4gKCRmgkkAJrCQhgFonNIEiEARAigqGlAMZzDFyMLREtSJHRGnKYyjO2+V7Hs4uD1L+A472fC36XMXX56NjmOhja867nyL2YXHZnQ4jbJ45YamrW0aWXq5oTXqF6hvOdTmC4bVquqevv4W1LiqTZni/Q23YjPI9joW4Pdo3+9qW+/ybLAunkKCkMbxLjnpSd/LU1snW6+bK8q9G8y6MPQOy5rp8NqOPLXa63lum4NPX6ahei2MgY3T183UJQhozUmlFZTRBkJY5WeQ67lR4pCnQJACCAAIAApABTlIICCmIFJhqDWK5hnR6QUtcENxahPQVGB0nOSdvD3nn3pHI3nQ6vkNvO9/levxtIoaOXfz08a9h4LsXNPA63m6nOmT4qKzDZC9UtuFUvRmpsVrTR8jldbz1qz0nJdHBbyOhn8T6HMnu1fG9iHvuP3xekCGb2vn2IpNhQzaRQVYLNLqysaNaT0OHl/N+z5Lp5/WNrOfy9PH9bwHqFxQ5S/Ya6Opd5rLS0obOs3JXY+Vt0I7rUhhmjRya6REIR5npebVYBaJ2cGlBAAFAMSQJKCYQADkgwhIE0geBJDJFSBAaMbxEtcMhMcZWPuY/dwel5/J97cc9HzPbp6qqaafFX7eVedOS3mYb9BzvUYNxjRzRJsu0tOSaZ09KGDSqtMkJRUxenr6Ljb+jiy+r0cPY5O0Gtz3je72l3nul5Ner2Oc2erhtFq6OZNcyKckhQVb1WdLcT8/3PI89ly+l6ubvuU6/wAs5ujS9I839DT4fsee6qiHjtSgTr6NPTVZjM7fcymB01OyKZOSWKWLRAQ7nei55VzKKjZIICAhJEAmOaxIFpIgECBuQCSSDfPPiflU0YbQSwypjC6nLERU0Lebr93n8V3a4e56DP7Pzqp9I2/O++y1bz2nHrliZnRcdjr3WRtZVRh1btVU7WydOXZt0NRyzP0qTGzVZZdq/nazdXkfRIHPBdBzesnt5Ohr0vN+/gxPN9L0Da5jofF9fVdXn6+BBzABTIctS5A3RqW8H0eTiOy5TsPV8vtfGPZ/E8N9D0/xz0qo2rbcjLXl+k43tds7+btczne1DlO1y0LkVmHJNDLnq5zXRbkEm/A3sGa5dIRsiEItIYUghNSoQIE4IACkMhIECEc06F8XMxIA6NwPTUJ6bVuKmmyt6Hn7OtiaLni+y2eDpcp2O3yafe8vcw6jpORv1YvsaVuFGFS2csKGtn6E1b1czUaiqX81pomqxVzSx9EfQ2qOlRzXIer88Ln7dKNrsOP0JE5+18f9G+Y+l62and15kHK84w8xTQiyrz/R050807XmOs+i8PpPFfZvE2q/pnlPqrnr+L7HzjO2dnxna3N3zzQytM9vdxrjNS1Ts46WJoJctZHMfFktUknPdBzi05xARq4sQPDUBQAi1JtJIC0oEkgSCBJIOTfG7Nztawbg1NTGMlS5Opg7c/VVXbndw83oW8VrqLXNb6OU0tviNM+kjo601yGbvefi9eVC/GlPK2KLnNmicq09TK1RS4e9itRRscmL+bbT6PX5vdK1oJSHPYfX49TzFmbEFw3tHmX0H5np5W/wez4/q9RLkaW/NISNsmtc2KhitQ4a8xbtVfU49nxT2Pxn1PLy/XvGfXGdf5h6T5bJ0+wOVapzctsdHP0Wth6uW2vZoT51pz1LOGs7muz1KBQ7mum5udOcCM6gIA5BAEUABA0kgKCBEIEkEFoA+UdDJLe1BIoF0XMJMmFtYXRz72zz2v18m+27iXDaercRSsRQBzWF6O2p5PyP1rzMfoPZ+LezZ2GWI3ORX2KgN3MnaY/K2qAsEywtQztfNaWrz2qV1s2bfTixeixWsbjfQeTc3PRuH9N5OqhyPULn6cna5PQ8P2uudl3NuWdNFQ5jZU6NDa5a61vH/S/K/pfnue9n8Y9grPquA7LCm9zyL0z5P0j13b817/XLodvF1sdNvUy72WupJTlxu2q0kXO4Pi3870POzpy6SnVJIEkBlJMCSQkQhIIACRhrmoLSA450LpLMbWjcYy1M6FBYydOvvjS6Hiem7eHrtvkOjaiyery6itZpxhpQ1p0RVNGu1416v5X6eqsuBQYLJCK9UvNTVblYeBV1s9zA+Nw5bNDRVbujzmnFbLac7K/L9nwdTv8Ab8R6Dzb4F6NXC4n0PjvK9a1u8Ls+J7HYc2/lujDut7jNn0/N0OZyJJcXl3sfjfpclP1LyL0/u83q30dXO/Gecoev9GVfdwt2TYmh1cta9y1ayupbldlo5zXZ6Igpu5npePm8dITsUkCSAFBA1wKEC1MgACmkE1wECgHFmB6qZoaD1EgmMbwdE+rvzvr7Gj28ORr0oWdxPxWoLYoXpqWHDu0KnOmgyyfEvWN3mp07qSnbSe9zVSv0b7mSKcqsfP3Mapz4rkDUd/NnT2XslmtK3m6Kd3zL0vy+l0voHn/b4b2MfQoVN/5s91+XfL9r3SbzrT8L2tbt+Tq93ndvc5Ddz46cfY0Kel5J1GN6Meber+Q+te74XT4uh4hNUPRszpNMupucV0UVv6cGhjq6yH5aOnifnpI6Ay5HNYEvnnZ8RGyQUaohAQgBQCZSAiABoICcEgKAAoIODLDNSsDROLUD3xEJ4lLrnmdRn0fR870G1zHQobFdlpZU2iZILBTImPjaZ5V6z44HY6XnPodTfdC+XPbq3ByPbInXxt7Max6ujQqKc9ayzT08fTm71urJL0PNfRvM2dh2/F9Phtaoy16nI+dfqnwTyfb8/wC64XT8/wB3ovfvlr7B6fK89zr+fw83VcV6FxVmN22X2e23z/1Hq3g/0nz/AGHhPpvh2uf1Bn6+rWMM+XuDvzO1stWadOXm3UjCid1dJzSRzReVxXa8VG6SU2kFIQQxIgaCCECGIJAi0tJNcgIJrzx0RirDWMKkdARTqJwSmOS56Szx/oXo+byW7Zw9c+muYehD03R3G6rp84TGR6TmHhu55yl4d7F4Z7A11BqzSaNyldjSWRkgHP0qLMehr0ajFlSataOXqJ68kVqbn8n9U8ba9Q6bnuhx3EMkLnWz9DEefCeT+6cfzel5v6hmDwPoveuZ5zoejy+ozLkrjHkWxntf859Kqex5HxPtcZ636HHpaEE2uHQ7HIaMV3U9PW592XaEE1qOoasUCIoq20STWLx/Tc1l0pAzTSQNzS1BBDpIAkhIRagwpJJIBiQLPNX1zlpYDWMlNeQJHMInviInTJej5/o97znq9MrDNg6RmyXnBRWvEmwvjCvz/R5N5+MU+j8gjT6Rs4+jpjrauLqZa3JIXq7NS01rEobWZUY9a9Sal0aFxHR38PcnSv5H7F5Mz0a3ar8nTE7nuhuOi5rpOf35+XydXnnV25mafwv3eht599Tst5+72cW10gPteK5JVl4FzP0v8/8Adzd1reb9j0c+nYs3s9I9GGXG7TJZMNsXA7puk52lhJLdAGevJ4lyll0osM05BrHoJCCQIAgg4AAlSc1ARSAJID8uMJy0sBgFIGIJnQlqw6s4NTp+R7Pu4ean77mejml6PirafoL8raHFHZiFBDYiqa+LrZlx5J4l7Llzp1HTeVela49Jdyb+b1bOZdjS6I3uoKWhSJw87Vz7zi0KVsevt4+pnc/mXpfmDfc6rbnN0Z8GpUuNvA3uf2w5Pg+88sb0uk8v7b4/7P0GDkdDLTpvXGH3/nnlp0wcmlJeW+p0NJ8H6GxY9Hg393mtrPTRfHY59nSNdnq9zTFOp201Tstha8+jIx6nBJNAERQQ0iEJIMICEEjSQCQi0sAIb8mfAcbsBgTe6IuZ3QOHMYwGjsYmn18ff9B5h6N1cuLQ7PKuMHrcSwPoGBS2V5c65zNmO+58L63C9F1z8H7SXEmu2vZd0Who4V/O9mSnYm5IJizm83Yxbzm0KemgatORXq+Vep+XB3GhlXZpl2hoS9XG2MTXLmc7Zs46/K3Ye9cb5nsYn0wJ6yAJ15mujcyZNM0A6MHYusbz5K5aj6+exbqTZ3cTJMNiSppFqAZWpz4+SQOWyIQ0khFAjCQBEKkkkNpQEgCCBQ0EWeOPgfhpMGAUpiQTPhcyUwuHo6mJv9XG7bxLvRz+lWeF6TTO3DYs0qwvToz5bdZDqdjnLni+9raNzm+Q+5eE512l2jc0kWKcyWzoczqTW0+rZV5eB0uDWcl+rdHZZFKnqefdzwyfXaOfrzebeitS5cfXydcufesiK3lFNnfd7PEdpjq8IZ6BGFlhrHqiIpHLmkBlO5zP6+buSbGOkUwE3O6CXOy1wBnKdXw5WQWnPUlqBFoHIGoHBJpAoAEQTURoEMRRSCQb8VdCcNLAjCJTA9qdQuCYwuC90PMdR08trf5zs+vltrXjuKGjFZCW7Ruy3RysJr8lsLaScXeFxvkXUcrz79/r83v65oxOqHW6TmbenytkOgzE5Od7Hp179KwJvJb/ADwdDqY+tNza2BvlSY+xk1nzlTTzJdrUzrmd3Or42yHokcUvN0vURHXmSrMuYhujr3GoeQ7qFri+vhGud8xTc3Q1sgG5RSCbwHoHms6QFpnROAAFIaQAPTUCBAJzUBQQFBAiEBQTPDTE7DWZrQKR8JCV0JFK6Iha7XgfR+nlp6dG11cvZa3B6+kdY+jqA6VGGa1rm3NK1bwdZtDQ4+p4znfVfNeXp1ugxdSpuwpt5zBsrDIg4sWs+2OzPSstp8TRZOZM6a17wjmoNbJmH0sUbKnP5/cyibqdJlrba+xGmh0PMayey6hqRTA+ISpSWNM3uribvAHOwx0LUjk8pFplhsjWo/MvQ/O51ISm0UAcGkCEhktINRSEEWIIggUALSCIQeCmJYaWBEgmMDgnMLhyGJzUnqPlXqnTyw6UD+zjkvT67m7oUbzJjBTSaG2mUdx9BGB516H5p28vac72GvzdHkt2Wvz62msVzNPBaZKY4WrzqsrUlqjYalrDNqc21k2s73Oq4/o+Tq5+eva6ufoxnS1IoWKoQdDzmtDsX86+mbeNbVdVen8+z09EbQ0JpkjowybvL9ftjK+vYw3ZFZSeTq1a9RqGGaNEkZeHw3W8mtWlJWkkCBAFJAWogkCCCIBIg1JIRamFAD8CEZxuVRocjonIkTEEjonCf6h5Z6D082j1fNer9vHgRa9LTOhvZMzW3Ufeh1rDqAtHIlvBzenpRUhWmrRfC89ao53M+KVzYUJpWX0Z6Vqam9j7mc5qWi6jU5uziW877Szz9jXOG5hXcdr7qlglGCylG+WdOPVzNEdfTyN1mzLkdPnp5h6ViYtT6DUuYcXzHoPnXpOmda5Vsc+73NdnpxfX8yN8tqy9kOZ9S1F8Zzu1izugjNBJAQQBQTCkASCTILBPTCBaUhBKmkAL58TVhpIGhqR8LhyGJCnULhzdZxnQ6Z931PJdP3+drVX5W+N/aW1NGOnKk/Qe/O2RywCY2VlGQybPtebQxyc+sron0pVGnM0lWSiaFrKmc1y0qqpNUrWD0GWu7PlS642LGZsY7G0pnKsSTJm0yyGRoY+pUx3q7g3LMMKrpsPRki6OflbemeP3nD9pNyliw2eYpUxyfW4txrRV78sTZ2gn53nyw5dZQSZQIkkhhBwAhMISAtapCgmItQikEJBB88GMZ6TKFyJCxwy5pESwg7aw7lR6r1XIr0/LudPyvcWt/nYrLT9zNrqulyqe7JQmtuRmP0KirOwt/kNcuJEbufaw+vIKdrRRIoi1I1kbUqrhptOfPqMXsOV6ONdaTnJk+pv1dCobbdbJruvyUU9BllnLW60SNsIp6lzK1JrTc/Nk47psCLbPrdqhoYbqKOsLRsQT5aqjejDzj03h+z0mWvbx+fbz4tWfS5AA5AMcgkJJDSRaASQkCMIJykEkQiARDfzkEsdCWoHujIpTEW5HRJEiag9cOJu+j5trs+Pi1z3uz57MpbG9z9prp34FjOtl+ZZl2822R8zx/peNpn40/wBOflp5k/t+fTyBEwmdlc0TNghasNrscyU3w3B2+c6LLe9maVZz1OrTt3GlfybjNHy707zvWL3o/hHtbk4fR5+dZdivYipNfF3ZrTz9DJDBx9jM1y7He5Hosd420ddq7NXm593sMA609vDF0HGdb5jl0RAiNSAQBBBzUAKSQi00IJSAJOSEmEIMKSkQLWfOSCx1cmkCghuLQKRNTT0ws9Tu1rfoeZEnNo6FtSel1VORrRdXpC63U52RnQ1827Lu6Wbdzu0qc+eksbmI+fud+lfK6nzpvDYNz6hD5LOP0yTzKzU+iUOS3stbfcZmMV2uTy3UdXJq6uT1G2J6au0Qkkrs1pqN9OyGvDPr6+RjUt/PsTe9l2M9rIdW2Gt6rfx1Um9RtxVqaGXHdQvznOtwvc+XFdZyFity9Zc0qgQkItLQTgAIINJDEQkIFCaQqC0oAQgKQR84AjLVFiE57HplBAUEBIA/U7fIdD6PmXpczpLnYxNTJqOmuZlhVQEddmtboWA6jJiqS+lsc5rJ77s1zWkq3CY7eiu8Op8Hpe0+H9Brzp8jyfRXF9fJwWr2PRXPHe+8j0/zv0nT1qWg8eMyvSaHr+RxulzT/b8Pazdpl54XTlzm5LBQZrjMuuS6hYEy2+nzdF6nJnIq9nzXZKqmRpUqXUwXqXPtbcDNtx9rLuJOJ6/Ib5tI8PeCEDiwpoENItIOaCMhISSAApVLSkNAgEkgSRD5tCbjq9MInvhkG4sKbgCJIIJfQvOOi3w6ntOc2u7hgkoXmtCSlFFy36srmzTcxragrz5aSaeXc0noW1fljDq6Sfm+r+f+lumsufp6I4VpPRZl61z0XX0t9Rht0QlgvyKWe/XaPJ71RrUp7ff53M1ek5v3PDV2vh+l5FurznS7Z66GtlcWoyWNbWHrUc6pUzNBrX5Kaujo43QtateVuG05EkXC1TtVua2/Po1TSsehFAEkgCSpJJIQKQQCwIICkGIEAkgMoIRSTfEDrquFc6daqnVJgCy/PAajsstarslwa7slM18+BvfwX7NKeptuoaLLVdlWs9FkM6elJQmzu6YtNnm/ih2fJ97qL8FzxfaUUtNOSzUt3N7cv9QPn+lwFB2uflX9Mh4b7zzJrS6LxD1GNtbo+e6ffktYXUDp8/mea7qv6HBy2rM70/JszRzKi6W3NVLNmWH51P2nnumPaUq82med0/M9C3NbzbuV2JYpMtmuDo04mj6MstvN16QmeaM9OQeYN9RQ/LI/VwLyhvrTQ8nXqsEnmC9FoU+KHT4IVUCCBQyEhAgthFqP/8QANBAAAQQBAwIFBAEEAgIDAQAAAgABAwQRBRIhEBMGFCAiMSMwQEEyFSQzUDRCBxYlQ2Bw/9oACAEBAAEFAv8ARt/+tf8A/nGPwjNgZ5BZd0SWcF/sv03x+Nn1P68+l5mjazq1Rop/FVIQk8cCCqePTJWfFhTWB8WyAdfxbHI4eOq4kPjWkRV9XpWwCUJR+WZ8/wCt/X5r+vHWeaOANR8V0qq1PxLPbMrRqY+7JE/aesTAzdoVtyWSiN9xH/N3sOKpaxNRnq+NbBy6b4gq35P9a34DfhftsJ/ixbjrhqXjEaxXtYs6rKzsziLZcXISPJeZaRvLnGuy8b9wRYpO+trsUcbZ8s85y1HhaKwYvQkdaR4uq5CUZB/1r/6FlqWq19Lh1PX59RPkAbKGVRS8NaLebJj2MVh3crJuW7e9ZsC7kxs+4mwTkPbIaeR2vCUb7D8K687RhOxP/wDh/j0/u1cGvHd1SXV7TkLGQbkURCzMzmwsKHZkpN87Qv2x/lt2qXfsH2yZ7pwVZpUUL1XaRpJasPcGYYu5IzLvYWi+IJaz1NXhux4x/qW+P9D4k8QtpUNnUreok1YWj2ARMW03gdmkYBd9yEXUwPFNFLvEcvYr1BjCSz3CbKrwsJ7o6aKs0oNlSiDx14AijO1HITscb1ZGcK+pT0z0PxXNKbe5mWE4/wClb4/HbphYTL99P3qepR6dX1TVZNTtx+1TPhQt3JKjsUs5vKv5KbhD7XkOWRhNwTEMjHYbtADMwtgqcjAF8YATWZI4Z4d8VO4SvWYTeo888FiYXIZC3x7SUW2GTRrUVnTx5Q9Hb/Rum+Px2+xI47fEeoy2NVb+cfJNulQ57rTPA/e2OBvIpCFoon2vcHbBHH7K49x3q99S0jrHNFuYXheG3GBVijbfELSnNWeo3l+41WSGKODT3kK95YK7CUw9nIeGtYl0060zTgywnT/6J0Pw7Yf8FvTj1ute1F9Oo2ZDllQ8O7myjn2l/wBni2x1G/t5Zo8VbO1WnKuisFkJCNntzken6yUcZX/OQnA8Vo7J2pLMPMVc+00EEiNnKe3QcZBLIxB5eaS93FWgc3OebueD9WecxX6/0jfH4uOuPXrlPzdGX/IeFGTpm2s+Sdy2lLI0gRyOAQNulryM1q1Y7leGvvK3K3bCIu7HA7tI8tZUvrQlbwQB3CpMclevcfbQmPuW7ATRSl3Sn9swVmknij33dTjieLTbXlbcMjGLJ06L/RN8fjZT/HruwPYqXovL3OFBDvXlnXl3EzicUbZRCTtFXcmAOGqiSKXtop5JJYYzeWJmjfVc2nogYtbbB1ZggCDECuBvO3I/Z0eWCYY4fKSzxbmweHnkaeSN47PMMtIS7DMnbo/+ib4/F/X2W+dcffqwQuZVoNreWQ1sqWgpKWHOBxUYu5R8Fh7D9jcYROzmYSp4JvMlA88w0O1FbjJR13KTzTgwWRs2Hc7ENSQY3CyNxvfG2o9yo8NV4IHk4hGTfpM8ktZvjo/+ib/QWD7UEpPNPRrZYIEwO6EF2mdpovbJEniICJlFJ2jrQjITU4hIIA8zFEbuRhCp7xTTnKJG0DGL1sHE2w4bD1XePcWlBG8NONwGcxlNilts8rROck7z6TCDV+Or/wCib4/Jb1eKpuxosQZVGHAuGGFlEwOiiElPU3Kam+TpE6egTP8A040GnYEdLORP4cbBaFIbReHyVrw7sGfQ22lpxArMBgu2jZsD2mLRarG9661V5B3rdLMvJiCxBKWmQdqFmWE7J2/0TfH4mOuFj1+N3ZtE0+o8qji2N8i0bbWh5BnXl2dSU2d/6ey8kyg09shpokmpMK8qO0Kgkz19qnqAMdmCMilrsD2aeVYqGDvScwepNGctkq9QhwNI9kAmECEhiGGk1iSjuaDPTKdP/t8+nPp8ae7RK1Ya8WcJuULYQBuQC6jiyuxkxqs6OmzFFA2H9i9xoYPc9dmQV/ecDm5UBFpNMGI7lFjVmjCTzt2hA4bQEQMoYGljaczKSsVjTvLlIPg+mUtgVjo7J0/+hF0/4rehvV4mDfQJ+CNlDOLvG7E0cbOoYmd4Y9qaPBCPtkbkMLZlYQitm5tm18cSREhHe09ZyRxCQa1W7bR5gOSEpxzsCJwFqjHML9sx8P1mrUR6P0dF/oWT/h46/H2dfbdUu2GgVi0Upd11U1ZonoatDMq5NKcYsTdrcLNxP/KIXFC7uscNy7PhA+VgejspGHFmBmbUYBdrdF43en2Wmru9nyG4Wi7VNo2xXbbEPR+jp/8AQj/oNcJmh1FnsTBpkjo9CkMLOg2Imq9yCfSb+96llnGsWRc2dOPIMhDLMLKOLKcGw7ICW7kj4kdWxIgvmRPYizLehfa7NjunMu28TVW71kWww9M9HT/6Ef8AQeISyqtLLeyNpdWrwoNUrzK5pwSvUJ6slK2/eqWG29zabSICZDK2Y7ALz8cae4GY7MZp5Y9zkzp+jjuHUqftISOSxAztMGTHfCMvsbw2z2NVZB0fq/8AoW/AZ/Xnq3p+Fqb92+D9sNQtSFLHpTOp6QiodVmplDJFcCs/aVO0ilynn2j5t442sETXL1sU96/uoa1aeaLVZJHK7KxaZrjTJ8GzEmdSx9wLtVobFh+3ZYBOxJALx2QN4fClIIqLIen7fq/z+Z++g/iZ+5ZJintWWhHzxz2oNDnkjLXrERF27Q0bB6bZhmY2qF7423CbOJuORCBFpgEo9LryOGh0XZtEqMw6Lse1ppQvptvvizc/LvLzqMO4dYg90UIlI4MSic5bMEbQwMg64XwnZF/oBf8AG/X2Ji7cTvgbQ9xO/lp44GmqW9GnGfT6t3Vz1mh5WTTrJC2lF3nhqMQyVGZSOMb+bZWtUiB4J7Vhwg1IRbVZaUkFppmKASXaGG1nhhy2zCtN9G2RT244RhkMS7WgaDJueuWGQdH6un/0Dfjsvj16gW2pK3MnCOETWnahNWE9QqWBl1No49YaxaOnvZvC8LuUMTMEsTY1gzjmK3OaCUAT+JmoyaF4r0+8VuvDerWIz0KerZaYJYRNV39uE7K2w9ghY3oVJNQOpolWAZ7MFRotcqzKePa4el0/+gb8B/v6x/xtuVLW3LsuyyYLzCsSSGMsb5o1N8mgUmhjZsNJ/HXJIyIas3f0OvCTePNDMpIaNmgtEj1bRtMjmr6xU02u8SjTCsJ1rcmzT6IHakq1o6kMcbzJ6YOtbqRwtC++gHqdP+e33c/cz6tZ/wAQKIcpqzGjp4coXU1LcpKwstDo5moRbWdsLC8Q6S1qMopKs2n6iYPU1OKVVh02BWrPdj03RSoTRwSCgDHTOE68RS7KPhaq+L16Gq8M4SAZceIeQiHt0Q9Lp0/+mf8ABbp++rzxgtVmGYY1B7WHGNqmwKnlZDyWi1toQBsBfs49zax4fad30i1WeMCB4Hd1FXclBDsFmTj0L4Xiew8s+mVfK0dVolKGmTM0b+4bsD3LExZIfThOn/NZfpvxv0tzCu8CeyzLzborBuimRziy7/ckF0D+2N2djk4szsyOTeWn6e5lRh7abgV+8o8Epaoko4NqCJmTAzLasJ+hKQtgHKNjUI24OJpAoi7TuXbbuNXEXQrPT99S/N/bOh/F+E8zIpSdESd3XmgZysOnkdO7qU1Cf9wKYlEeGmmVg3J6dTL1o2Zqrc/p05o5Ww8uUzoWQ/HVybo6vztHW0cN+puXbGey0cdGt2l/MypwyItLFeSkj6v05Tsi/MfqPx0+PwSsMy3uanvNEmsma7xKzcLbXN3POXdS/BC7qJ+3eb5ZblLKq+2U67bCjdViQ/BMiiyjmcbHdUZ8g6/TN0dEsqUsLWrXu0Oo/n9vdcwbBC+YA46yRDIjpOiAgfPUvycLPR+o/Hpb7kkzApLDkmd3eebtxym7qrImLieFfwceW25U5cyC7rLtqYLcjlwiN0LYQapNWl0/URtRVpkd8IA/9jo7orkczXhzK0yiPLgaEuGLjcty3J3VqXthNYG1Y0Gt/agGGJuBFCO1vQxFIXaZ2OiKOEollO/47pln0sh6P1bhN9p32qSwjPK+VvVk9ym+I5HEoCyibcxwvvAdqllwnfnLMtRkeG3Umcuk8m1Nd3OWoAzWdTkctG12SCWvrtcIW1KtaQ6ZRurT9Nr04ZoxILtco3p2vfFJuQPlfC3J+ESJ1qxYqQRxxnpuOy3Qf5dCynLhhIkI46GeEz5U1FjRg8Zfk45x1ZN8ZWfQ32ZJGjaSZyRGty35WcqX4lTcKGbCifLEyIVM/BSPjuEtUjzFVc3Fydh1fUTKx3zy9iQkBYVWXY2qyzjV0Szsij1aSvFpt9uyVoMk4yPY03I07TtIEqaTLC6JEpPaOr2tw+EomtamMZ6fKxM7STDG0Vzuyg+WRIB6C+UboQXDIXypIgkVnTyj/Ef7Dpk3pZfv0ZWek02ET5ROnXKYVtRqT4ZlhVi9rcqVTOnZM3GoOUsWiy92qUnF091sImJqWlBejj8MOo/DzE+u+Gbcwh4eu1gr05zOWxMFhtcmAT1o2PRtcc5bNSO5HW7kBMRRoJMp5ETurE24LthrMvhOg1ek7ZHy0QDDF3wqG7y1z3Msdc7CExLpObkoGwHSzTGdpIyiL8R+mOj9G9bL59D8r4U0vBLKflbVhb8IjWeD5WeY3USF/aTKUEakfATuWdIJorcku2K1HmxVq/28+kjMoIJ4xGvqK0x7kYm1s5Cp3iaTTpYVq8G+V5pqx6bZI5dA1I7ccke5Ez7G9rbvYM24LU5V1oUL2NWAGjHCubvKyTBTo1W7QaWblB6p23DFHgx+Os0IzhYrnXNY/BdP1b0N68rK+epWmkXx0wscO7si+CJ0XKAvcfxI3MTYUXCB8o/k8OJtuUZbncffOb17FzVGmAZcT09xgIcGQA+n2oYjG80gxzM7gbOnHuJq7LW9BguAenvSPwnucHwTG7IsspD4jPYtb1XvSeFNFkpx/svghkZXJXcBGPbS7kfXKdfPSR+Iw9zfHV0YDMFmoVZ/39/Kz1z6W+1lSliMPbaNuWFbWZYyjbkh5L4d1hmQtuaZvcL4UfuaEkf8QlYUzluKOV5J4SFyrMSkIopI/wCWnu7ws3OpAbJrMojW1CSsNPxBK8ml6uczwS5FyWqyiMGqZgs+GJhkE5mEO4PckLuHPfAQ1HXcS+E9A/rFroXwz86qHbkrk+KUQtGG5Px0mPaA/wAflTFvkjbAt6nFia5ReD7n76OsdGX7X6+6yt2WUkO6AhZujr9GnR/Bo1BKrA7xhHvDBJsl72yXtd0RFgUzuyNmNSuQnHJl/EELx2I+Vp9j6Lyj27kzyIqj7q/D1osv4YixX7jYtW2rhquseYV2RpW8P6l24W1wCkDVQUmst3L+uxgNSkWolodD+m6b0dfC1eTcdUFXbEY9C4GV2dmzhpHZwkEZGfc0f8c9XdNz0P4v1uxJ9r56v0Zk3rZP6M+mebsxNTeWGDbbhqhiMxwsp3RfMzYWXxLIAy+YFQvJtE5DhrwygjquohAXxshkdSYdjZWBUf8AK7QG7UkF4SgsuDwXyRG5iMDTry7TFRiALVGy0NOW2MUV257LxyDIcvk2j1R656ANzV7ReDdTGDULNzTrOk6fJq0vhyp53UMdXUr7Gtl3bFNsvFww9H+M8OArbh+1tTxZQMwLlFIzIpWQ9cK9D3oPXn0v6c+lk3V/no3o1SRQNuDZ5S3YYY3kdjE22jv4nbcRA7PLHEsMiZ3II3E9xYJnJNhA+WIvpl8sOWmiVj+LfNb3Br2l9tmjJmY9qgk5iIIoaNlslYeJ49QeGq90wKfU8SPb2hrUoxFoWjHq8+g6TDpsMI8a14boa2Xim0Oht4d0gdE0hP8AGc9Lx7IxNzkrNxC3tH4T9H+N3LNhN8/vGETc9pnfiNMn56fKtRdmf7Lr9faZN0ZfPrue6alLujni7sVeb3Q8S2ycXFu5MAsyKuylHkx9m7CEl+sJ/mEljMZcFHhTB7bUfDth6b8doLEWq6PJSKMtyhPDBPuUE/bCm0GbNhpI4bzkD6sLHTG5rBVfBOkXgp+HKunqKuwoGwiR6fWnvdCdA/u/Wqn9OBVGyMbYQ/CN8MKMsNG3PT9u6IsmzLKCR4Z4545XI/ezYWqRZi+832GTumdfv1Se6SmfbmYvbej7ZPD347rnagqx9xSciJ/UnFSMpG5ElnjGUUai4f8A+svmJF/C03tmHmq+FWdS1Rmj1Lw55OHcQE1na3ebHmnFj1IgaS45np1BzLSKbRtpGM4bbjHQkH+Xob4UXLv8ayeAgb20BTJukjoXTnuKEcdX+SLKEOd2XZuhu6ANrKUO5H9l+r/aZZ9LdS/jJ7TdtxVy3NZgGxDU7kBWTaOfSQeox8PPJsnb6gTCpWTcO2OmEI8//Wb4US/UzK22FC+HhdRt7MdxrukxzDqWklVs+TnNovDN+VReBLxC3g64y07w/wBiOHTnBaZV8vHnq6d8P0kJQ/BvgdXkyoG+nRHAofhTKaVmVWNN0d+JDyQCpH4EdrDhk591CLC3WQdkv47df1++kpe+zA7DAXtpyZWMtqYZgkB7jSNl3HcOqe19Mm7kc44U4p25HLIeUQqNuT/hJ8wvlZ4nbm0gfDwOgbgJtytP/bjpQ769Foni9iMkZlu0r3HFDlscdXTqN8g7oizJHw1gsR6gfcmqi7tCOBk/jWmy6tHtYfrTRDtFMpZMKEdztw3wmbanLzJCLA3ovttteh+uVlN+DnhlnpKf95LF3YSZ4jhPaUJ5Y2W2SosjHIzcaxA5w6LaxZnHKlbCdkzJmTqLDkpOVCyZSNlrMaIdpwmoJMjHhkWyQMjGvNgmsgnkY0wvnSIXIIln0uoS90r4GL3k3xqEm2Ay32dPj97NxZLZHRJikV+VafF7mTvhO6J95xjhiLCFtrPL5tADRj6dVb+49WPvt6/npafFqqTGOoU9qY8NTmyDcjdiJ2EmmCEnU492N5XpajI3snjRDhC6zlO2FD8uyJkA8sn5axHxOHujfCgPhvjawnMHmV/QJCT+HbDKLT7VeanTKR6dVoQxh/S7J32SWX4q/H61Y8Qwe+zpwpvjVJtsekDlE+BKTvzVou2L8Jy3PIeBrjlE+wWHJS2HmKKMYQ9WrN9X1v8Aeb1s+FnKt/z02bISxNIEsOwqkmw4SUgJ4mrWAcokT5bX67xXf5xzxcSNhC6b5+VHws5bY7oA5ZMylF8WI/dt2qF+IDUzOzBXwQ5BE6Fmc9NYWEfh29TqRtzSFvau2F+tbfFfS332dPHEXwr83fuUIe3Ddl7cNCNzkFsNZk2DGSflQBtF+SmmfvwQDADcevV/5epvvt626H7m0qfbMHKvRMJvC8aqzbk3I3IHlGs4zqJ8D4pr8aWfc02ZuJWTjh2WVEhbAuyEVnDij+J4sqQXZ4iw8JI23iFdsPG2HFRQ5emfbOEtwP6y+Gb3RthG+B1+xiDRw99IdoXZuxBpWblgWwOrTO602L2q7Nuk+BD3FlgCxYeKSvA0SfhDz69XTdfj8Fk32CfAl7q4H2TqTtJHrEf0K5NPFEDwSwFxOPE30p8jjW42nqeHD3aVOymHCb5LLdImX/XblmBE3ubPSRsvLCycNjwkoXy1fkZp4YnDtTKPhAPvqz+3OfW6PggbiwWA1qTc2kxcVv4+KbPYpeFgzA/DXPqz1wYRsSdqOKR5p1EC1C4FeKnXcQd0KzhMe5fHp1f49GemeufsZ9DPz0z6Zf8AHWbMNmLYWk3e2duHzFejaeCwbdwa6+Ws12kUdgoWsM7j4eLFeXlrDc/CNByhHDYwIssIv5L97EVfc8tXiP2lA+VtUsLSNKbVjoyPYigfCg5QP6yUjZaJ8jdfEeoPuk0wMNHw3jSXnwoX9qb8Qw5mbharP7aYYUTZQ4AKsfnbRybELLuLam+PTq/8PsP91vlP0ys8ZWVN/Cs/0pY+4NqucBaRqLWI/EemuzaJqLEhd2QfwMcsbFDatb5ItI9k7qVFw5qJsIWXwwIn4LORLCZM2XAE9fL36jxS1jyhfLQsxPqWn7ggKSlOFwZVFyoi4Z+uejJ0ajPYV4/ZN7rFAfqjwvGJZt+HrHbgI2MYgwpC2hLJ37oNtUTOtWd5QHEMRShGm3SuPwI+vVv8X4rfPx6uEfIQltYS4KELAHTsabLQ1GK9Fr2jHpxaLq7XQgLLW5Hhkk22IgP6eiyYm+BmbiRuTZREm5Te5AyLGH6M+UHDwlkWZWYO9GUZQHBNyD4URiY3tP3quXl56cnAIXz6MLnoTIhy1yTARtmzpYe5v4+LObejniOu+5gbjUptkNJ3ew3KBsKWYT1KW8+YmfItw3z6M9dW/wAXrf7zdc+l3w0nsGN8gBYIowsxTUZ9JnqXorset+H7Gmy+HNej1OK0O+OlbaA+2LStE1fXn5UrZaZsOfLBwo8oVEj4Wfa7IXQvzA+GZMPF6jubslCYyoZMPFL3o9Xj2KlMxjXNnZnbOevwn6OiFanFmGv/AD05sO7+3xM+bWmFgqLu6H41mXDUf5Vx5kmGNnmI1XhYAEmZmd8jz9jV/wDH63+6yYuuMemwWFNHvjikw7Oq8mHkAbMctGXTJKl4TbVvDJyW9M1gbT61pUzlpesxahWsRPFqA/BMphytri7+0hdCo+WkH2bllO6F1ETYjLKiRjlrNLcx1yjQm4qGxsO7tsVdHviarS4URM/V+mE/QkQ7gmq+VnoDlSfw8Qe61SLZJphbmf8AjrEmT08cpi7EerzG9asDCwGwIXy0ZJn6t6dYfhfv05+8L9Nyd1lN1tf5osKxUcCA8tGSgmy8gDIFio9N6V7cN7TIdRQWDrq3oI+fitDflH4NuJB4kHCPGWJC3tiR8CfCyiTPh92Whf2Rkn5YhVmBkUHMn0nKX2WJ2qyxjLDDXsoZMpi9XwjbKvRd0NOUxYj1p/7mM9haXhSFtG/L3LOnRub3H3S3LPmbLStG0XvUbtgT4YkzplnCz6NX+Vj8LPRvnPPVumVcLM8ZZUTsYy0GTbo3jl5hm3qYGdXKxQHp+rNKNjBg1x6Z+IaH1tNt+bpk6NSgtvPwQFlo2UnxMs5Tss5cPgSwoZMkz8Y5nb2uGSsD7il2tp2mBqviO2ASVPdBLBYwo5WIhLPTPR1+nUoMbUcqy/09a/5DFxpT4U5YA/qWdPj7YWdQeIYLDqJ2AYCkJRBIgEGYZBFAROhb1au3H4jfHrb5t/54i+nBy5SPGnjjlU9DYw74nisYTjHK1/RizDrs+nlLFV1WG9/VNGk8KWgs6asZRtxMKcWUSjRCrAr4Xyn4QfAfMJ8jyvl5hyzPtK4HNrg/CcbCZVZnI6kM0XuglhkUUqEluysrKzlO3Biox2TWX+nrrfVjJaQTq4WBrhvsXjenpurzs4VzbER7HCU5VBG5DHCyGNmZkzrKys9dX/x/ez6WQrP2LvE1cvpwltJxCYDGSFNa3LaMiKvlbHFCZspIYLTXPDUTvrjanVDwHc3rKf5/ZjlOGEMajbjGVO3DpuE7IUL4eM1EaY8ubZRx5ZvctVgYQ8KZj09z9rf5DrtYImKA4bGFHKmfo6zyxI/jVJPLMVjfDrJbjjZaMfuvFkaAZfxHYaOpqHiB5dWo6oczU3n2AYi0VgFGZEIdxCxptgLusSESdfHXV/8AH+JlftP6r48Uz3AL5apLxw6sVBcffG4WdrC7EsLbx2+bUbSR6bU8hrsb8Z5yi5R8oOWjWMPJwx5x8LPH7zy3CglTFwx8B70QYLX3xBoXGjSfxaZ1EWZL1Z7EDG7KvNkYpOH+L2qvCcdcyQe4JK7upqjjYuSsx6m/1I+VpJYVksvpw4bx5qheZ0CPy0cRiZQbWQSyEsmhyTdsk0GUMLC7cenV3+z+/wAPKlbuCBPDLFJh4pWF4pcs7sTTw7U2CWxbywxMfSQVZvxBrMfxlYZfKZsplGmRipWUvDrd0bkI3wW7Kb4ym+fEJOz+Hnzo4nwUmx4JGKVmWrxtDPFJtVafm3fatX0//i6ZbfvXtYjqBb8T242peIo7JazF3odR5OIsPp/DF7iCRq9fQ9RG5r1zRIxGBsKEUESjjbAAvhN0b06qebP4jevPQi2zWaXfUchREJqGygtAad9zTRbltOJisBt86DM2qQLz8Uq8Y6XJDc8P33u0WLK+XxhYTcIPhlIKkFSNl3FO3DPxGbbNrugJRoPkF4mP6vhtv/hWdlNtcazbZLdyOhUm8VS2tdCwEg+YaJWbpXp6dqtXO3J2pWklhh8p3rM+lDZPStkC8TQtVsRFmSnjcJbj8Z6mGn6B4Zrb6mnWpdNmGxU1FDQmZ2d43AsoHw2eW6N6ZT7sn4jcLPKz0ZM/Wf5qTMjpBYT6ZLGu2YMBkKhtOLhZY1gXRVWNFprZl0UTX/qsWR0KvAoIP6fqwEm4WF8IfkeEydSipGRIvhAWFH7121Ee1Dw0S8Tf8nw7F/8AF9k3Qwu6gj2yeIjb+hviCfTRsQgElq9JHpxVmkqS3fEXvq2Jb8FgqteOKtaryRFU78OseJ90tKo+8qpIDXjq4V+7ptVqrDWGZmrHGqdiWBQ6mMgg0MqaAVtHLYZbxXdZ1lMiLKvE8dT7eE/28+ncsqQd4RH2zrzoJdw9sST1QdeTFeXdkIkgcsM6JOsLxbZ/p01aXuA3KZ18oOSHphG3Eg8kibCf5b4A9riKb5bCjfnxQ393oL9rTeXbeoP83iEc6RrFXcFC0e3StbnorTdSu2vF1uhN26oNX1AgPTdT1iMWslvE4Jza1XEtQ0/UNBl0WxXl2BNdaNrlprfiWzpuK9eTBNG0g1tq8oyGE41XtMnADXlo0MQCva3TDumZalxT/NygLD26G8IJnYoZ9qAtwinfn5fHLL4Rcrdwy/8AJEOaPhG/5rTWdMmUfyPz+2RfBtlSjhyTr9M/ujZPyLJvjxCfct6RkaLHhcbapiUstcbtfWNOkqnBUOO0z4eSZ6eoVpw1GjckJ5SmexNaI7NaXvVWg0SKSHYzBPpsWq6VPOVEtTsf0KCrGc9vSdW2jY0UCaEyrSREEkcJ7WiJnYoRJCzgu8u+y7y3uSbpqX/E+1j7bOmfplZWVnr+tKstu1LSmQFxGSCZC7EtqceMYRfByYTe52HC8VVGvUvDD+RuQnlM6ygdD0FFyiZTDyQokHwLqHhMTOnwKb410/7vTmaOuzss4ao+ZY+FbLLarEMisVpISABsB4G8ShVG7QC0otAZ3rafHXi1DTxCOhSGlC+bE7CwtqemVdOueIrhST+HaAjW+FWvS1nDWylaCxRdNTikjCvKAR95k+cNGu1uTRs3RuFuWqltq9MrPpz93PTPoysrKH5aQo5NPuNOFrS2dCZxkEu5R8IJFlnbHMs7CoxeRMLCxEtR90FuUqt2pNvjB1lRPwz8um4Xyj+ZOWkbKPh2TKF0A8ELOn4HXifzVb6cgfLGzKhKxr/pJY2lqADIMLbUdKFyGlpwTh4nts1XxFPMhuyyp8urcwxjSrlBErFaO1D4hilqXdDhaXSXpmyjqO6bTuY9NJVIuwDZw8korzp4C+LuBiakchQkZLZ01guPU/38/ZF+ZeCglKIql5pGKITRUhQwGDiBoNzJ5nZRV3NYZY4JW+Fr9ERreDNRexSjJM+WhdNwv2v0Q8zNwXLSjhkygP2wHlYypOG1AGs6mxM042XxGUMi0jDUv+lwNymkKMy/yD/IY2dBCLvF7EMnFmyMEWlV5CZuv/knw/5heGxKtplOyMgv22YXW1By4My2M67Aup6DEzHLTOtcads9MrWHzP1+fwH6ssp+mU3oJtzGG0IJtqq3EBtI2zjtOuyyYWF8O5YwnZ3Z2VuNjbxmzVND8LWvKX4TyLctE/tF0L8s6blnU7e0mU7dG5UDcwPzD8Tv7a4Na18TFhOqLxU5JK2qaYTtC/EdnKmbe8j7EMjE1Y8oSZDLtU+ohXDRKs1uwmfPW1XG1X7L1mhkcSgLeVeJiZ4uWDDh8j1cWJWNObNWYxXysK6e+30/fXPob0N0yvn05WVlZ6ZTEs9IvcBVe7C9c4XiPaq1nY9eZjQcohW1Ywnbo6n5P/yD71KBVpdMsDPAz8QLfhM6ZC6+VIi+Z2wmZN7VEoP5QkynLEekkwa+MBlpQ3adxrE4Cekc1i/xzfM2BfxNY8vQ0Gfv6NAbbq5ji3qUcAaHps2qWfnozejxLp5jOMb5q7mGnNwxZTJuUzdW6SRbkHHSR98n2W9Gfst9jKrEqNjCkphM0+nlG7RkCgmcCp2WNPynRJ25UxbAgB55dZl894gv6L34vDUhQRxFuUD8ZQycs+U3HSRsomU/CwtruoBwUbKIcNJ8AzBr8cEbSRBGBCUZPpbuVOTgZ3ZWM48YE4xeFbuyELDBJLqwxD4d0mXX7AMIinTei1D5mvJpFiqMA4aIMPEWExe1uv6b0WS2VvtfHTH22WemV8LPoroH4oXGlRxdwZarMpKm5QkcDwy7h3Ivh3T8KeTunGHbVumP/sYUH26rF/S9YrlxG/tcuQLkDy4v0flSBh7HLtww8IW9wvtKA8u6P3at3XaSOR3TzvCemu7VJH+nN8Sj7tc8MBr1WLvaTrB2+fD3hqxr80EIVonTI3ws9XWF8NYohI4DhAyEkJZ9brUz2VPtP6c+vKZ1nrnplZWVWQvxDN2yqWmmaSHuo4u2jiULpn9rlw58HP3HrUmicl/yPElcV4z0vzMOmWO9Vgf2oSURshdM/D8sb5Vn+WeRb3BjOOR4d+AASfWAJyKHLKYJBi04dlQ3yEvLT+wwDtHeiq6pWh8E0ZbEEcccPT4Rcum6/CcdyYcKxEwGyxyyzj1fvWj+lj1fv59OftZ65WVlZWVlZVV/czoX4p23hKtZaVj5Z4GJuwQksE7eW3AMYgnbg+B0WvvmiZapX70dWBqk1f8Ai/xuTHh45UBpn6Wm5dsmPyHyhbDk/wBOuO/WoCDbHyM4u8FV/wC2k+Jfi1klVn7oOT5DYxUJ+4HqFO6/fPS9JsQYIdqYejP6HTfOtl9X059GFj7rOs9MrPTKz0rP9UG42oYnVTfCY2OGkYl7UKb4L4d1ufGsySNXr0hrRiOHs8Rym7atXLh1+88xmo5UJpuWsNlhb6ohlm4Bjy8fKndxj09//lqsvsjJnViEXrQPuhP4sPhpMLBRvDMNlNyqc2wxfKfjoylLYwvls8G+GZM/TxKcgtp+ru7xn3BwsLHodMtWf+8+1n7mVn056Z6Qf5m9rRtl4gd0ILHMecs7oH5D4flYR8KsXndWtGwNUyUfiHVGr167++mfT9l8i/ISIJuI5ctJyhDJC2FJwIFhoxw10sRaY/8AfVqxPEMRiE0JeXgF/Lkyssp03EsP0yHDplTs7mf4TJ23MPsfOFjpnCEsvPAE7X9GFaeckIxSbxWFhMmT9NRLdd649L/eys9MrPTKysrKgf6z/wAYyw+nGJJ42RQ5btuKZkzJmw3TVJSjq0ajUalw3ntG22LxAW/UB+mVEva/Cyt3TctyCV2cZOM8t8Z3DtW7a+pH9HTiwdd9oC/tnx2BLbHuyrDIhW9hlB2ZhfeLMarySjMMrGyb5d1nlMnfCy5uDYWOFJAzuAMKF+OmF8dP3O++X8jKz0ysrKysqIsSMKwoD2vFcYkMrJ/cmZMKxy6LhQ51G7ql4ag6TTKEJbjFLr0b/wBRIdzVfbFvRYZfpOy+GbKE+c5bdtDLsmfLvy+oF9GoWyuM7IpwYLNje7yu0sUmWmfKk+D4MG3rDbh3MnGUExPHDBZAocObuWE+CYWRnhmySZsMJZdurMsdG6Y6Svti+1+vwM+humcPG2Qw6AXQntUU6gPczLGH/Tq7P3ERRaXU0+lPbu6jLsigkFy1Gp5yGWIopK4/SZ075TEidMiXwmZMa3dNzMJS8ahJuCj/AMBo4XexdrC8szyXALe0T+2YlIpGyVQt0YmxHDIxsLEbRQtEYQDKqcpSDtW1mRO7L/IgHaxlgYH3JumUR7H9Lq+W2n+PlZWVuWVlZWVlZ6UG7lXBChTDuUMLkqobW/busqzeaI61UaEXYO5OT7G1Ft8UU7xFVsNMOuaeTyVv8TOmfhfycE3KZ2ZDz1El+jdme4b4oS/22o327tPsywxsUclEtrAeWldSPhSKMu3LvZVfZZw+CsPJHoc+ZtR7td6d2O7C/Ro8J1clwNZtkTFnrNF3I45njdnz1ZfvVzxT/Iz1ysrd6MrTX21ndnOEvdDAgZgQmmfgzZk5lI4tFTcYSlJ3w8xuyumzQjEdixR0t4AmgY4bVXyUop3QNy3CblmdO/I/BZ2Z4Te5WC7asnuVVvoxmIWj1Mu2eBmLDFHIjPLycp3y/wAuB+yAv7g1AOVA3l7Iu08U3d0a5Qujfgx0LhpZO5aHiMF89SAZwYjhcS3ejWy9v4eeuejerPoqFipvyVSowp8rc6jse8O4TNCOZJC3Q1mBd1b222ZV/T3tDXoxVhdlYfYGtydybOFlDwgdMSZ0Lrcs+3dxlnDdsKU+4p1Qk/tMibmEcjyxBHa9rjntsLu7yEi+WZO+yCsWSNR8T/yWmz86jUawInLplilZG5A6nLbFXfuXceyNMsLCjtnQ1Mh3j2yicT660/1/w8ejKysrKz6c9KUm+lWFu72QdjaIXk7bIZgB+8ajc5UDCDHlSyYaOvIbNCEad8LOFuwwl3ldJzvZ9ybp8Lcm4Zn5I8IXyzknkdkZKV1pjOVTtHjDqTd5gDfJnw38MbnflACaL2xtuMv4mW1xTew4j78VymxlDNJpszq/Jtiot/d/9Y/lMsrX9NfUqGg6wOqVC+NrIcs61ct1v8HKys9MrPqysrKz10OR9rKvePa8jk5s+ZD2nUq4B+FJMMbYOVxiEV+3FbFsRm0rwMwqc987dGWejJ0zoiTEt/uIk5cWZdoUchXGR89zLxOxWxfLh7jP5AUzIBRD9MDckyNlVfcEgZCrPh3ZiV6sxRaTO81LUiwqYYmD+OOmcdZKIwzRG00bl23/AJJlqBbrv2MrK+fVn0Z+9or/ANxj3U48NJgG7x2JdPqtADcDLZ3PBCvhk63piypOQONo2kk7dZvj9N1z0zw/wXRnwpHROtRJmgEfeMOXeFVQbtsGEI4QB7mB3QshTv8ATF/c3IuoPbIHxjEkB4aVstRseSvW4+41Me3OCd1lZ6xTP5GsYytIG5DmNxfKlPuTfbf7H665Wfs5Wkli43yxbYjmKyenwtEMftC1O9k2cacdTJxlLHGx6kC3zGnimdv7kE8m9T4JaqXa01umeM+nPG5bllE6N1Z+pMP+YGRuwjWiaGvvdC7umTLCEVHGuN0RZX6EsHE/LtxG24DfIXG3qrY81C0WyYE78k6jfc3SENpeFJCiYXyztlF7Ivn156Z/Kpn27QurFgjVcWjWlg+Lt3zUsDMuzHGpNYI2CoczADCnwSHKlP6Zx4hm9y8RHioyZ8Jn6ZWcLcs8bsrKytyd1O/FGHfeGRmabVNs8ku4WZtwCmiXbdkMSOF1UxPLN5gCnhLNeR03SIlE/MfCtFh7TYkpn5ewyF8NlEWTD2t0Zuatbta/F01SZoajfm5WVlZ6ut2Y4I9qgbvz2bL1atePawx+Tr58wcMQszOIrK4XDtsVuEyjrTc+J3wmdZTLPTKd07rcsrKyiJSctR/xBC3aHZFFO7M8Y8g3IMhFfC8Xa7YifwTZGCmfLhBvKWIYJwfpH/Ksi4CV96m9zF7m0yz5gC9rSEoGciZ+rvhq8G2WAvqrXJWOX/Q5WV+tInezV3YajKMZTWSKTQw7cFyaS5PFH2Y/MuzNb4G1y1lncJdyySy6mrDMV3RIbrv4Ur4k8KQuMnhKVlZ0S7UDcty3c5W9dxdxES3KQsjpntvwvsBvcNgfpjjcx4TS873Q/GvaW1uxCM2nvo9h7NKWzlFVzHymXwVb3JyRlh7L4dwWmwdueaX3ynvKENgD0ZM+UyrTsWpzStDFLK88vX5+z+vx6UDVaztwD+wP7iW1acWiLtjnIzF7hXdUDpjTysyeRyQqMRx1Idza7RLS7vf473Lzp5l3XXcTSO7HbiiaPUYp1VOVtSAvqPKESn1OJwr6jJMvLz2VpzWK9iYxZFeUVAp3KjAAxPiPDAnJShw3yqx4ciUqnLJALlJAPagkL21w7hE+1B8JkxoHytKm7niTXLOE3pz9/P4DNueQ9p//AF4xHAXYagzmEz++o+6PG85W2qE9xwyorDsoAeVV7AssbkL8M7ue3nhc5t0INQi8QeBZDiuf1HTrM+qzLztk38xKmMnfc7pvZDp2iW787+ENXhO5QvU1Rh7qiohVKCoUb1q7uhjkZFQaRVKcNBj1ZzKKMjQkwM2ST+1G7EztsJkHtW7c0pcG+S04O6pybEpqjGymf3BwzpkB7iH2j4SLzGpWZXnn659GPwcJ/Q3rYtr2VEf0hk3mwbi2tCGXOSF9sEH8Jyfc3tYJXdRjl4j2AM3ZsDI0zRyODMfAnlOeF3ModxIjGNWtMoaw3ij/AMYjtkrlBIETkodPyjqhDFoWhtZKhDHWjYWdniGZXfCcTKvXZ1tY4wZomOy4PNbsu0NeWw9euEIuSBkU2G7j7TJ0W3aL4TEmJ2VgsIG3PQg2seU/1DgHaJcyCiT/AMK+XLVZvL6Z4Sh8tW+xn7Ofut9jTrfehgL6FYvqacO+e7LxXwTj/hKTAZws73jZmVOT69+XB72Ma5YUXuTkoT3tFkx1bxdWpn/WLcghKRlHI8Lw6xaiLXdPq60f/rhxv/SJ41V0RsRVyjKA3QT7S35TTK1VaVPfLu1wlmMYBjTxbjAe2zyZQBxauMyrC7jK4sAk7qMHJPBkRdZUzu71oslY9kZHviptvmxtFC2OknAVw92tNu06OPyel/l5+3HI8Mkb/Tp8qrivBPJvKD5GTaTnlE+4hZgRPxDJskaXJEGUyikwopGdSlDp0HiHxZa8SzUYmij3KA9hNKzJ5mXdZd/atPrkS7DOxRLYpZu3J3sNBI5OEqOtHMioRq1GYMBo8yKFhAbmoMJVgTzcizk8MGEMXI4xcwFj5Rjzp8Xusv8AUkfa+nhgzQ+7oylUQ4ViPurVpxYOufVn8HKyty3Lcy3MsssrPTKysrTLrC2mRYGebj/tG3DZRG6jDh24F3ZhMXkkHnLuvhRqrHubxF4gn8S6pRrOyj+fh0x8D/Ej40+vl4NqiZTjtf5WvF5coZu4EEzs0boZti3tK0v8ZapC8bbB1HUGFRD3SjfiODewBjozpiy+oV3nrwS7w2qiO0bL4I/cqHAScqPoyJsuzYa7Z8rC7u7/AJWFlluFbgX0liFbYHXbrrs1V5eqvK1F5OmvI0l5CinEYEUjm4oeFvUQ7id2ZbnTOnHuOD8t85yhNxXj/wAReTpU4PdCPtZuH5bOEL7n3cV6xTONc4lBM6rXsPI4zC3CvVQvVSty+HLVaULEUMrbHnKM67bmOBpReGSKSej3xLw0ByB4fCNR6YIoaeF5LK8k6GiTO1MmIaxMr9ctPtgWWpn7bfDj7lBwOeU3UnwNqldsy/0q2v6ZaXkLSejZXkrC8nYXlZ15eVl2jW1/wi01FpqLT3RUnT1iZPETLa/TlbnW913HXeJeYJk1neh5IXTyJj7jjgRIk5YcDQl7glcU8ij9ypRd2zrFz+p6xQBRofh2wnQPwAd19PhZkdLIlW2JvivYcHKRnQFla3owahHRtSaJYgnaUIPqlFH2WjfLWIt4xyq5wzT5XdwhmTT4QzoZmTGmJXKwXYBzXmqy7St/ELZLdtGIkDpvwHjAk9SB0Wl1SUmhwupNCkFpa0sH2//EAC0RAAICAAUDAwQCAwEBAAAAAAABAhEDEBIhMQQgQRMiMDJAUFFCcQUUYWAj/9oACAEDAQE/Af8A29/k7/JV/wCjr8giGDaJdP8AolhtFZVmu9fgsGFyEhInh2YnTvwejIj002PpJoeE7PTaK7l+CwoaUIiiy0bFkpotM0WY+Fo4/Dx5Q56RYxCdmoi7YxyJNoU9JHF3Ju0SW/4bD+tCw9W7JYEWYcHhyGrQlRIlqNyrEtJs1RPDor8LgK5jnpVH+xBbMjiJ/wBCykaGzQ0clUVvsS3RKI/wnSR5eWJgSbuJh4UoK2YbtHrb0adrNSjyyWMrqtieF/KJLgUi9jbyejqVxiSWl1+D6RezJWVZitYcBPyYNTjaOowJN6omFqUhzUVRNiH4MTXCOquToJSlipNnVV6rr8BZqRrOj3wxoSy6udussHFlhsXU2ifU/wDBz1CZEnsYWJ6+DKD8GFielcyb1O/s18T2NRqvs6H6M5cHUbSI15I4BiR0knkkRW1k1xZGXt0x8mLLfSiy/u3L9F5orLo5e0s9REeoi3RiQhN2ycMFLY6fEUlpMbDJRFEjEf6MVtSaNVI5y5OBS+3bocr7Vn0b3o6iTUdiMZy4P9fEPRxUjeqkiFR4I4viROC8GncSMeY8bUrkTxL2Qsro5E7dF0J38K+NuiUr7b7MGeiaJzUqRFKiDQ21vQ8Z/wAkNQxOCCE8py0oxJamPg2I5MZHNP7Nvc479vJY5EJWYclRi8+0WJiLaxq1uL27kZK7ElQ2omNNvJnkjl5JbiEMQvsZOkWS33z2LWVl5Mw5eCGIyErIvyayUrIqU5aUT/8AhGiNTdsxJa5ZS4FyRHlz9tiD/ZF+DjkvvYnRCYpCmOX6MDA1u5GPP0ZVFE5uRwsr3MTggIkWRy5FucC/6L7DEe+SdHO5w+/xlzudJg+qtT4F00CPTwRiT9EnP1Jankh7OhbsxGYaL3J8Ed3k3exRxwf39lPdl2Mi/wBkkePgR/j/AKWskY2IsR1mjqNtyHBPkw1sfyMR8IiqRZH9liyTF9g2LJnK7X2/46tDLJe6NDVPs6hXCxbIYtokN9x+6RLJuhIWa5+d8ZMTGRentfb0uP6Mt+B9RhqGuyGJrjqRixV2uytSoltseSe0SHBBDdsSOd2WXmvnlxlfg4PBYncclk+/osXTPQzEQ1WcWdVD+SI7smRZwhMbpFiFmvmolsix75RGqZF0PKzz3xlUkyEvVgS2yvKtcdLHBwk0yYibESlewhCzXz4z9oyx7nA3sJ287Hkn3dPNwl/ZKKluiUazTOrjupok9xMkPgTtiyWa+fG4yedEeSWzzfZfYpVudP1Gnng2mrQ4FHA4etHSYsXCWliPJJOT2EIRZeS5+fG+nJ5Xk/jY90R8nRY3u9NkoWLD0xcpEnKTPclR1eGtsSOc7FkkKKzjz8+N9Jxkyimbmq1QviYvJ/j4RcXNj9iuR1GKpLTErwhc0TjcZRyi7Z5sVeRFMRayh8+ItURFdqVs4ddj7pEeGdBiR9N4fki44kVZ1cFCSrgXNmp+WYKXLOohpk6IbFfoQhfpntLQiHHzy4GjVm85b+74fJIXkuj/AB2PKOLo8M6hepFKj/XxV4PTlfuJy9OJJahx0xyViLRGmcbZQ4+wew0V2MSuDELN5o8kY65USjptDOnenFTIu0MxGsNWyc3J28sbYTKEUh4f6E2tpZR4+wxVuX++1inToezFm80LkjNwdobclYzAXvMCdwRiTjBamYuK8SVvOcdSKaEIWTViX2OJyNdjyfI8l2LLyPkX0jMNpIwOpUVTMXGeI9+177FUxdi+xxecqKKzSKKyTyYslyPk/jlhq5UxrSyD7LylJKVCRwLKP2OKPuQlsVlwX2R3kPk8ZR2ZQtjnsTtk4KRG49kPlrsxe15aqdCdoffD6hRck2h/Ss45WcnB9TE967o/JXbj8dm6y4JfUYdoeddmHyYeJCMGS8Zp1kuRy0vLgg7di3KF7Rb5R4+Sy+zGWw9srz5KQv38EMpeOx5cqiL08k2YXDI8ZcOmVXBF2Lj47yo4LLMTeIxlZUMXJfwQ2i3lLtRwS3Q3aMPbOW5yrIuxcfYyWxLcoe+dFC5+BfSaWuRvPgWbERGxcDRhsr7OSp0MZVdiVPKu76UanKSvKyTIO9hOnkhjE9hCGytNEfs27fes9JpHE0kMH1HSMTAnFcH9Fm5/ead5rdjPAuBuhvgXzrsktLELd9iRZZDDniOkR6F+WS6CS+lkulxF4IdHiTlTMPAjhQ0xHBo6jpL90eScdLzbLYv+CeUdt8pfo8EuR74i7V8+LHUrQ9kLJusnlg4WtmDhLDiVl5MR6eDVaK2TJRMTBT2kjqOjlD3Q3Q9skrEqzfBHkfOXLshHfV9lWeIvd2sW50uHQh5fSOpcihp2RhuvayUDGaSoji6XTOp6eLuVGiBpiaICw4E46XsMQmIir+f/xAAtEQACAQMDAwQDAAEFAQAAAAAAAQIDESEQEjEEIEEiMDJAE1BRYRQzQmBxgf/aAAgBAgEBPwH7C18/rrFtLfYX7rz/ANcX7Jf9DZKrkVb+imn+vqzshu45EKliFZH5YkuoghdRE3o3Iv8AqKs3JjG9Ll3pGDMo/IUam/66+hLgjDcOiTg0bbkljSKIm244ohhiz+mqfFjq7cIVaaJTVSJ8WSdyIkmYOCTuLDuQncv+lru0CnDc7n45PgnT/nIxEbIVaKFUhIxYeHpBkZXPH6TqpYSISsU6yjhkqim8FVWZswf4Px34RGlgjUaw9GiEbs3bOD88lyyMtyv+j6r56XFOxFfkkSRL0so1VHDKji4m1sirDIvbFsp7ZStJleMUsHTf7av95aWNrNp1StPs6aPnSrBSQ6WSNFsVOxJW0fCRUjskpLyODqekitqt2L337SVxIsW16v56oocEk7kqpDJGOk2Ik/VgkspvwUY7Vd6W+2oluy+nVL1X02MlQdrkHOIvyNlaG13KciMxzG7kf6QtLJGF5LSxwcjX17Cj7HVLFzp43eRuKPywN9Mx4JpsdP8AgpF9KUFyfgtL0lOjtySwy5a5wNY+ulb2EVYb4WIQcBzaYpX5FsZtgb9pULaQW5iVhf0V0T51iT1a70P20sexnxokSRUTuUcL1DhFksSwJbsE09uB3QotsowUdEL4ktY4JfVirvSOMa5M6WLaImiUExqw14Px3IQsSajG8hTdWWBtxW1LJFbVpDLHwS+zAX8JIvf2EMlAsNEYvyVq2zESknWXqZThtE/Xolgp8kyQixIRxpyP6MFjRq5xg5Qh9q0X8OpqqnhD6mXgfUTZCLqsjD8ashDw7iyh4RSRUZa6IK7JY0Stpz9OI0IkiOj7mNHXcpn/ANHgpQcFuGy4zp/UrE+SCwVHk4iUl5JO7LEv4JD/AMfX+LPPYu3r77losMTTj2dLK07DyxcDzKxUxgXpiRV3p8mP+D+kudESQiS3LtXYzqKP5Y45P9NOUttipB05bWU5WwXHonslcjk8EfkT5JsirIkzhWRbR+9fWPOlj5HksSVno1ou/raO+G9ERZHpJHSVL+lkuCmNFrsZFXkbRj+lBXkWEf5HkWcEl7bV1YqQ/FOxEsbdISdOV0blON0UxkEMhGyuMY/pUl6hFhOxyWGtbCLFu1nUQjKP/gm4uzIyuYGM6Sd4uJBYGQRFXY1YYx/Soc9nBclwLVd/gcb4Oo6dT45HeDsxTL2OSnP8UrlNqUboYuCm1FXZIY39Oj8hi0t73DJ5sdbRvHehSsX3NRQtlNClTbwdNPDi9Y2XJI4HIbf0qPy0sJ2LmDBtzdd71Qh+EdZJr0mxt2RQpbfVIVTc3uHCMY7kdPP4vS1jxYtbgb/o2hltH79N2kMv23wc57F3JDR10ZblJG1op+uFjcrbWVY3lhE3sSijp5745Jm7wxod0O3KLSLMY/fjyRf9Nvahfz2VwRJEVdnWwX49/lFKooybuOdCTyOpBL0lKLqSuyEtrL7pGBpDuja2PcjnSX0FlCkX7EN+tez4JT/HG4pbrMgV47qTRNWYilB1HZEYqCstKDuNDZJ3LsjV/o4qWY6P279tJ4Ldi0cLoWUPvfBKmpqzFFRwRK3wK8LTZTpObKdNU1ZawltdzcmSQ9U7Df0afAnpYsLThC50fY9PBHgfyEVL3KtDe7kKagrLtTtk3XVx/TvpT4EJly5yJDZcv2LV8EeDzpUxHAnuRNeey2kYNwuNnI1o/o0havRYQxvIn3y+JHhHnSeUXGrnHY8EKjiSanker92/ZR7Yn+S25XJKzF3z4HKMbJsXL1ejRxp8S2L9z+jQ57LackOCpZi76nBUp1JSVheRaPOjXgUdyt505JqySGXH6tX7ttblF2YteDkwjc/ZnovPc/S7klu4IK7K3KJaNbo7kXvyNe9cvpYhiQtLlv6NiLlvYll6R7uRYYlaRVzrHGTh2JKw/oxeSJcWB3ZZIubh8d6H8jenwJdjWqyxokJDEysle5f6cXdC0vcsWFgbuu9DW52NkYRdtLEI5JrbkautUIa9Q8IYj5fUWF3y1vpcuSqbMspzjJ4ZaxZIwf8AmrjojhEf6PMhiVyKw2P6cXuWj0vo3pYlKMFkl1a8Ij1kfIuopvyT6qnCNyrWlUldimdP1f8AwmQd0LRLVqz0ecaL+6R4ZHFJ/wCfqU5WwLLH2LSpU2orVXNlxHi5H1m3I8MTKdaUeGdP1canpnhiV9Gxsei5JcC404Q3i30rl9Kb9Pah4OomPVtvCE7cDlc5OCnyOF1dHT9RNem5vmbpG+ZvkRluFySGhjfv/wD/xABJEAABAwIDBAYFCgUCBQMFAAABAAIRAyEQEjEiQVFhBBMgMnGBMEJSkaEjM0BQYGJyscHwBRSS0eFD8SQ0U2OCc6KyFYCDk8L/2gAIAQEABj8C/wDtaupkQNV4j7PHOYA3lZjXp2v31snym6LgA9oboPFfL0mvbecnBNcym1tMGS3e6ee5X259/wDutmSWxLibSnh9N0ttnouDgoc6LwYTXUuk0nT6ue6zMqNdFjBwt9lIRL3hg5lENrh5i2S90Yccujbq203MNUHkydTzKa4iWi5EJvyOwDtECU8sMOmWiEb3N17McCo+C013qxg8l1lKrqASHTDvFURUpwxveaDC6pjxn1+yZ6x0Hgj1RNV0W2YDfGQs1WplYN25X0Nr3U243Qhv9OiIOURuKIMAEC8TCuL8JU7N2ySNwVrzPeQDRzcTqVbz5IDebBZaIzXi3HcntqZQ5oA7wuYRYKeZjtbfFTSMVb71To1s1IniSQOSa9pkO+yHWV35eA3lOlxALtAjuMqOS8Ffebq3qi3901u6LKI11UNmPZKDyc8m/FEvnPOyTB98p+Tvu3lEB0O4ovHuKa1pPgvVeSJzE6LOHebrKxI4hSyWjOYPJN6PXcamXumfVUSD+Ez9jqrjbKDdGq+B5qxVxBCaQOWijMGz8ENrNf1UQGHNrrqnwLTbkojvXlNA14qyAgSUYu1ANB4L5IEydwQzsc1zTpH7hGrUaHO1hNI6Q1rtMs/ktl5rVNcolRenyhAjWNFcSzTXRAiGu9jNJ+xhazaquBHgiatUmb5fVCALolDIIhZAcsal6zPOW+871oMxuVaPBNOrydAu6fPVFrwIgtTZtMCy66uNlkZk3ZaYEIMiAdFlbZzR43WQH+ZLCBPdH71XWN2W/wDbEtb5yiRTke0RBTKVEOz+vUJ/dvNZn6cT+kEfmsvRujinuzFl/wBU2Nk/FHOJpxJEwvkY1kb8qbRrdXUOnPxQPH7E1Kj/AFWyqlWoddy4OWXhYeCZaASETwuFTA3jXmh9+6yWPNEmxBUvfbmstoTXEbQt/YosYIMQfCP90G5R1jCNmdUDNhdFrolvxTnBv+pbWRZCgTOTQHmmEGw1PHwRpZG9XliI0HimtALm7gbZk/qaHyLZMtMFvgidongstsnAKI0QJvyDlSdTOzlG/T7EGSAeZhdIZnPVhxESgnu4Ia5+SoZ3F4ZrdNdFnTopy5gZLULaNsi3NN9UAWEjeFSaxrjmG8X3oVA66NmbIlS3IQd+ZC8h9oI0TrfKm/iqFYMlxjPOnNGowZagd3XaELrJmxkSgwBpy6klBzKudwbmPJVKpc0P3l9iE8FuaoBsrazZB3i3eqbKUNIOupKju+CuQOANnLq3nN0ZxnaPc5qR9h+sbvOX4FOe92dxMkq6J3IuF4TjqDdcbBBuUuE7k/ZE07uv++CayoM51ztQpknknDQWIJv4/kgO7G8J5e5zM+3H3oM/kmtzl8aNN0aLmkn50ZdxhZuozMDspdw4LrabGn1SxGo4mi7L4zG+E3asY2m8ExwuHbIyn3LO4dY1wk5F1RDepImJi3BUWTmHKcvktpsezkBTnQTrEovqZcx3ZbLrarQ0eQHuRygQTJyiV/L9+xOad/2HqNGuR0TxhOvacBG5bMoH1pROQDkm7MQnQYDrIDut3rrSdHZlk++Xfv3lbWz4oU6bO8AI3703iTAVSoLBt1ezvzThmyMy3WhFyJPBVXUhnFtG7k+nd7cunBPY6xB0V2F0CxCpCnBdqTHLisrHbSa1m1aDO5dW09W3UuP90Mpa5jHd52imjUZnLtzgqNRuex2kCNPsNVpts57S0HhKr0nXLXkYaYWFuSFllAsgIToEWutnujlqtrZIb65/shkMR5pjnd8DWUMvfHtGIUCLAAnzlMccuYDXSb8E4kWuCnHMddy2aoMz3h8E13R3w51zSO9CobVM9y1CrTvmbDnjc5CnVfk2T4bkS+ABvRFFl/AJgDavWbnFuRo8CCmirL3jRpeSJ96zVWOFUnux+i6xoLoPrCI96pF1nZRP2H6WQZ+VN8Bhphomo8hKE2aj1ebKfVFkYsOazSLXQawQScznu3q/yjjeyDA+LbTty6wkNZG/etoZS4yjpH3rLKYDmaOabhBzSabzeBoqha533rfviuiVNO8nDuktkbrfsKh/KyKlSWmYlCjne9zhOqzGkX1ddNE0VHAQdpubU+S2KZy5rawqLjmuNHDT7DPdMQJk7k951cZU9jXCFOuGaJK2SWn2TBlFtXqhsnR0FFrW2AjisjagNPhM/khmriPYbf4BTVBjcReVYvHNwVnT5KTqg6e6VVYNHw2UPVcxt58f8prgcwaMpg81UzZyXadWIA81NR4ltoBzQP0TadNw6ph11/fuRptz9Y3fIEIGv0jrKZ3tMppZenutH2G6TuzNLffgOxorfDAriphXkKInnC7xusud7vFyLHHbHdspk213pmTOeIVhlE+9Tlsd608V5a8FmIdJsIMQmh9qTRNzZdXQYyD61tUa1TOampyuBEKS2p1Ud3QpsbAQillc3UsQG7dc/YapInT3yhawUYaLZUOC0Wi7q0XclXpDzCs2FfVd3ko6vPfVZ8lo7qDm8LBEb4nKn9WM03LRuXHmnFokt3ckPkzk1lwsura1gB9hS5gJfyj3IU+qyme9mI8kCABV9s3BXXZxlPq6iYQ6mlnLjYtdom5yC+Lx9hnM3uqMHxQAGnZvuwthogtFGmEK4ngUDBTwBElTTEHSSU4kbQCdmYs9L51p4ahMLWNkboP+6hzJLjBIdZVMpLGt2oNrXTmumo12bMOCc6i7aadq3L/HxVx8rPVnnCJybNGQZ4/Yel/6zMbmFYqV+i0U9mMAN/Fc0YTgdOK2moEXA3Qi3IM+5Oc20fFOy7FkaoMNN48iqriB8mBSg/vgCtgHO+5jwv8AFPNM5KY2ngDVMAtdrwPL/dCwzPOYnefsPTH/AHJ+BwNpC1hbTygA/aQhTiexyUx2jshODhPNZWsc0l2u4qo0uyiBcoEfNmm0md4jRCXEU5mT5Lq2u22HOXbo1/x5rq2AskZgT6vEfvgmDl9h6TOLp+H+VDNBuVvcVOQFEsEpvqmbha+SjNfAjh2eS0ntFQGnONQmSI5IB3cdof1Uu2yOPD/aVJF37JaNBou6KbBN2u1/dl0bIJnvNOkRogPsPTAO0AVJMq6guAWy8HwK6ymQCsx9UrfA9bijGvZ1Cu4KzpXNa35IwcSF1oEkXsm+WqawmQHB1kwDV3DddUpOa+cmeS+5tNIPBN2PkxTBtu/f6fYjpB3Nys+E/qtFkbv3rM5pqO4qzIUOOdvPVCo2LqJshxxvdOcLkX2t6s/q54m6zdY4gbmzCjIWuA8kJDw8cCgQXa2JCFOoIf49gj4ouy+qSiFScACNo3OkKB84dw3KpLjtS3u8EOkQc9SdeE/Yis7i8q6y0mASYzOWZ/TtNYZCIcwVG/eTDVov6J1w+TJu1yyOvTcpxgoBSLKXlbS7nxUsYGOHsonPIO4lZ6YjebSodsu4YwpVUTv1QY22TfzUiRy8kynDibQD62ip026NEfYdzkFdMyhuy4FZWWbUE2RY/YcNy6N0EPfV6JQfmFrNk3uuqcZ4OKynUdi6gItzdY/2W3WwxrG83LZFJ/IuhNp9KpHo+bTNo7wOEg+4rO2Q7mhiU50b11bu5EythpnUCPFN6XXnNAyt4KfsPUPljKazPLBoCF8t0dlbxWXovR6dFqLnPDjwW33uKutFKdqjlOVv5pvVy53ITKaKzajQRK6v+YyPOmdGnWY2tTd7lT6tzndFfYB18hQK480Abxi/MJEFZpAhyd1ewBvO5DYzECMzlxjcFlM0jwepGh+wzfx/37EZZC7hVmwFrKAhTGL6b7ORDvlRmN5Qz025ubVT6RSpjq4ynknVmcIMgOVPptSpWq9Hdd1J5nK3ipEVabhooLsw48cNMax0MWTKTRqf1TWgRa/NT6n5rQLMAAZVI6nj9hqfGcJw0Wi2lAClWsMXOA2k4Olt96AqCW8VkcQW8HLPTpUWP4hqLGkcCVU/ly5zH8rLaH6r/HYLD65hVOkHfshMD3d4xCBZpgFSafsLdypZTOqvhyxOExr2S4N1VhnahnYR5If3VxZaR2mUWerrHE7lTp70ytE5dVCCDRo1Bo0b9f6rVWVsLnCBhBV9OwCR2iMNFp2y7ggYhxcP8frhUZxTmjir7kfbdf6+4rhhyUalWsuKuuSAnd2YQJQ7MdgHtvKaCIkzHhhDbkrO/U3wuwE8VsPI8VuPh9dWurqGi670K91EQr9iUwakg/pjCsiCboYDEotcLcfQxh1dyOA8E2oY2AT5qdwQwnsXC2Xe9bVvrmVHahawqI3Q7sFSLFe03gVLdd44YS5waOay/wAzSn8aljg4JzvROdwujJBJ5oPPecPdjHHtfd4q91smFceY+srY27dyoGF10WpMXIRnXA3RuFZOcHHWwTSTPFGpUdltaQvlD1vmtkW7tuKaKY054FzdEWuKHZ1jCoAb5SqeSTbf5oeHbsr6di6mnsngi1wg/WcdmcStbrVB51aZQcCDm5LifBOGY5Y0XJamEJ0QgbXhZNPWOdn15I1HVCCyB8U2nTPyjrkyruDrF3xUI6IvpWPBZHWI3KQufYJmIThmsAfNF/eytzHzCy60j3T+mEkwjYxNvQXx2mgrMzab8fqyB2rYzr2DjKLG700ERlsVliU8xZEzdHLWYSOa26txayosacrpuU00hnaPvSmudRs71QspG33yQLBAMEZWTqsznB7zb4f4QLSSX70abjN0bDNuKyVdNzlrOHJGU7feFBBgw3+6dVuDUdYHcAiDdExHmnVCjwn0MBDHg/isrhB+qYGPHDgrK6sfQneVLbqr1mr9pqIzbpTralMB7xExC7sFBoe9i+TeK3IhfLdGqMMTZpIUU+jyPvGF/wAsP/FydVqdCfOXvCCppdF6S072imVD2VKI4OsmuLyMiAdu0J1KlD3q5sjdOidD7092YZTLgQVSa7M9mfujf+7oNAjCqAJdlMLLmbmiNU9xTSe2Rp2srlB03H6nexhuNVHYthbDXtaInUopzD5IhCp/0zpyQDd/5KTcqbaKFtIRUErLyhSLWhATZQdFony0Dmo3By223zWV7YNB8k4bw2URFi7NPFCjRfo7ICuv6SyKzrgez+5x2SPByYypR2RzDgi1tQ0vHun3pstD+bLfBD0pa64U6s4/UpU7qjY8xjf0GmFlfAtdqdw1U5SPxI1GMFvEo5uktB3Zf2VVax7qpdyN06k6WEeqVKbFrISLJ7wMoi7kL2RqCch0JU9Y7nKLYLiFMRhJ0CMuBjvBy+bIm+Yok8FO5TGy25TzBiP7p4zQN3hb+6/makdRTdPM6dgoOG9DeOC6wNyfhP6LWfHGccg3b/QQbhZ23Z+X1I5u4LWOqPWHyUi4Uqe1IVlm0U8FkTwbN4oOe9wbuAGq7gZGl496zafgXeLvxXR4cIXA6plbc9usKd6pyfILVZTszoFrMaJrH3HMwhku4CPJdZBu7erJz9YFwiyTTcQU4NeIO1lPDX+yz1ZMbKyBuu9aX7ovqraHW6LY2uZEwh0iowmk3WN/7suj0IykMGYc9/YJQCAiyAx4oND8vio1RBZ7rqo50i+9pC2SD4egjipb3HafURcomSblNb3s9oH5rI/vsOXsc1pdSdF3m+9OAJP4QoFN5+CjJrxcnNBF+AlbTxTjfICziXPjXcuduzyUeyLIscIQylf3QzRMWQqT3dV1TS4Te6pwCR62ZCpYNsmmbO3jcsgyyQczTuT2tM2gO8047LZsWhWIc13eGsp1HojcrJlxfMBMNLpbHvYO6QQCnUuk0XU+kbwd6y5i1sy6E6k0R/D+guGU/wDVq6/Dsk4jszHuWpKblgCUZY13NRJHI4ax4obQvz7Eo8Rf6iDNyb7MBQNllXung7es9OesHe8ECDbWVKv8Vs3cg99QRw0nwTtmo/yWzSa0eKOy2OU/3WvjZRmtrYBXe53iUYGAxtjB3odIZ4ErMdNAuSvY81DnXPsqqc14yiPJOawSYIemB0kHby+f+F1bnTutzlRTnN3XngoMbzlH78U4ZmuadMqY1wPUztc01lGmKY5YUXdLo9YaWkEhM/hn8MphvSukOim0fmuj9F1e0TUd7Tjc9ormh2x2Acxwn8uy4bt31CU3lZObbNq0nc7coIjXrJTm6dHddgKp8C5OjujVU2tGVus8VptTco+gbg7sw/gi7IerOhURoZ8Vz4lEm9rBGDBKrF52xZvx/shU1tYncqlSq75Qd39+5Vq0Zo3DTmotRpEd9wQNWiarjq7OZPuQ6qnAHYpdJfRa6vSaQx+8T25QnU6qPRgDF7HvyjVub4pwY4OLdYKyjAVN7fqEoTobL7yHSPVNqg48FBMO1HIpopwKw1BOh4LLuA2hz5rwTmrT0DcdOwFDx6ugRe0nNMABbS0sbqyDZhZM1kBtRqOe6ECZlBQOz5dqPQN4dmFKjHZ73FcTxwc3iPqGFPDB9NwlrhCf0eu6BT2s+5zVSaxuRj3QXi0p1Nw0cdcQeXoG+HoPyWl1dubWyLGOlnDeFDaUuncrUwBwW3VpM5GVtOokcQT/AGQk5nIQ0+5X17IPajmgj2YB1sh2IGGUalWWt+ahhtvcOy5vA/T2DxWfjhHBSECGyG6+G9VIuWwW+Kp1xuEOGDXeSy7wo3dsBX7fBTlhwT3sPgRuUwTxJWmIQzBaejKhNCGBGMdiFphxK/VZW9z1nfooAgdl/wBPphAb1l0TVChGkOOy7luCIJnrNrB8eKa3jZHt8uwewFpbgjlfsntx24wnA4DwwJRwhT2DhG9cCslPu73IAadry+nzwU8VmGA5YCoy76cnL7Q4Jt5c67TwTg7ZcEZCP3KmnmpVtO2EEcJwCEqQp7vHgUWB+XmrdNA//H/lW6eP/wBX+UA/pAq0+TYTUPQB27sHBxwhTu7c4ZwUaVPTQuQa0dtp5fTyU1GUcIUhVMvs5mjcOP75oVCJa7veOkrkqp4mVZHsWx1Wk4HEoYHwQjESm+lcex1Q3Ic7oppPjjOAXgjSo/OHV3soNHoKf0+fNEHQnHMuahQ35xt2lZ5dlIgtlGmL5LDwTankujne6m0n3dqO3zR9BlQ9CRi4BPceGDnJ9Q73QgsgWbANG66aMclPaqO3cF983JVvQU/P6cUCuEIEG0IPHqm6vvUbsPJZJysqXB5/v9V8m75Snx3hE+5UJ1Ej4nDd6Q4wVB1Ch5jwXyTw+NYwDwhPoQcCst8SBqUwnWScOWBKJQwMjOdAziUKlS9V2qtr6Gn5/TneC81O5Cm42KqNF8whdW8xeEDvxykJmxtzBhVmPAHrCE9p3PP6fQIwtqroZLHiFM3G/wBIEVxTR54UmymeeGbdhklTvQUmwCf0t20yYpjhzUb1JUalbXuVu1T8fpxRw0McYWVzhn4L+bpiY7y6h7vwmUIwhB251j4rOQ+aZnyVdu6Qexr6TNCGEFZmreE1w0KkeiMmxRw5RGDByQ5FC+qlFd6yIwZ0VmtQ7X4UAFLjtHcpJyt4IBoV79tn4vpxT0EWmEKobYXlFp1i7Sv5ij8xy9VdU90Vm/8AuGAf6pUi4coqOE71Uou79O2AwnEehhXCCssp1UhGi7Q91D0ZB1TSj8cG+CcEMHXgwpmynTB7m+oAwn9+KLKQzP3zoiTdx1Pomfi+nlBawnU3XlCs0bA3rI+4IuEOl/w/M+kNq2rP7qHENrt7zf1TgdCj0epqnZu6dpv6p0aPpx+WMo478CufY1xMK4OAgohNqj1XBBw0Poii7gs2i1kYBRuITd8YRxQO5eSM6ASU4UTd5l9RABR8fRU/H6cwcStFClb0abrgrO29Plg3+Ifwqo3o1catPdcn9E6TT/l+mUxt0z+Y5I9I6PcjdvWuWtQ77T8VRqPcHEnDRDHXCFp2AueJGN8Hs4hdTod3oii110ae491W0xpjjZaYRzXmszjyTWAx1xu77oWVtgEAFPoqf06muSzt04YwUQbrPTu1RvTXmWVW9yqzvBCl0ja4VdA7+y/nuiP6mqe+31animVc+UtcM1P2T2Z1QwKjshC18SpwBG5eKgSHZjlVB1XV7A4+MIeiz+sxSjg3kom+Fk1MoD8RTsvzdPYCiFOlsZ3egp+f04LkVlIUs3K6lQp7wjRGpQ04cFleQHIzdpUd9g94X890VxD+9I0Kp1fbaDgOxGHFaI9iO0fBRCZTcDkb8q5ZYkG6yO1HonN4q5uOxrGEwm/2XSOlTd2yxZWbUqahugWUyRxW0Wt85Ql5d5K0uQ2YCv2qXn9P8kOeG5SxCbK6neUalHZdyRpdMaXsFpWahXNNzhuRZXjpHR+LU3IZa05eyO0cYwGGi5Inlh/Eq4tUgMB8p/VWrZaVtmLhZIHI8CjTf3m+hlEjRwnAFa4FMPEqs8d6Inxsuj9Gbr84Y3fuUW09N7v7KW68SF3ipmVyWnoKfj9OCHgvBXC3lD9VpKsFwXFfKUWP/EFn6M93Rnfc0Tv5in1tMf6jLrpdIW0dCmcdFopxjsytexzULNz1XSiROarb3BXtyQc220ukB0boO8LK6x9DRIMEvy/BX72/HKoQ8dyZTn5x35fsKrtHqwcuu4IChQdUHIWXygDTwnRbRhW2lIpud/4ldyPEq5jzV3LZEq9hy7FPx+nArmpwhZhZaraVsSqjTcEIx3ajSO0eyMBgF+qC1wMJo5qnH+pUP5/4wMtOqrbIGl/ctnvi4xCsm0WMc+odconKOKIc/KdByTcwExeFsmPNMdVqPzN7t9lPG8jXwU4c1ZT71VpUjtsaKbRzKY0WMIZqdN34mAqRRotPJgXetyXeQkrwWvbpDx+nObvUGyCnGVexVuzS2gBmI7E4jG11GMrmo4qQrFc4XigOa6HcfPO/+TlqnSqt9wwa4f6m7DW6NSRZZ756h6wzrdf8Q+ee5S0dc77uiYadBlxMFNd0xv8AKkmASdkrraQktvs78BKO5BVKtSzWtkyqnSelR1D3O2ihX6IetZvy3hePpY9kfTmqW6rK+ysUL3XBcVZaLbBb5KzgV3spRAeEKtA56VQ2APdKpl/zjRlf4+hnAoYQuaErkhg0b10K/wDrPMf+TlMp11WuN2nkn9JqSKbBJQrPpu6siDezW+CBaZWZdUBNFt3f2VFvSqjaT6ozQ72dy/4YfJOdE6zyUOoCp0MGC+MrnKoxkMYzvOmzUxzqjalIbM0T8F/KTmaxodSL9Sw/5kI5O4dCFZQUHcNQul5jerTdTHibIZhdfJuIbwXyn/DVfaaLFTTLareShwjjZHT0TnnefpwQlc1a4WmMFWK4ruMV2N962nW4AqzBbjdPYLUazZHiP9/TxCsuBQ4cEd6b71/Dob7RnzKEwOSKrDJGl4XSswmwHnIW3o+y2XsqUt17hGkyi+eSayxqGwG5PaW/J03QAbWbp+SGztsMws5bWq1zYU3QW3T+ivpOc87T49bwQqUKPUTbq5+KA6QTmfRIg7gusa2Qw3QvvTTKK6F0QElpq3+H90GowuS5KHCVmAhSF3lqtexAT48PqADepwC0wsVBQwOBXQKvB5nwQI7B7B7YKlQrpn4V/D49l041xm4foq3ItPxCEblY5SE5rS3K83MKn0fpPS3vpNqtho2W8dAqpqdJPV7hHduFTBBcyrsGdb2WUPgNeAebZVNmerSzaVA7YCJLi4ttnldJ6TOYUKWUGZlx0381/wATrXHhZUXZ+uoVDsviPEJsHmmxJe4wGjWV0QNvTZVa0Hjtarr2GRhmmFDkDMWVrhAPEFadiwWuD/L6gFRmqyHXRaYa+ho1ODoTJjMzYPl2D2b4c8QeSH6YTgzkF0BsiOrJQnWEZVaOX6KrQcbPbErq6rYPHcnDc4Zpw6N/EGd5pAd+ip1RenWZPvWTJlcwzmOoRqV3Ofa8DcqNdlcBpa10R62qqNu41DAB331TqbnPNVxzVId637KDYgN0TaNWwdLmu4J1J16tN2SBxQl4qdNLYcd1Pk3+6Zl73WC/BdT0gDqzquu6I7OPZRa7MCpla6riMNcLYaYv8vqAMfpzRq0hBKughmVih2y03i6r0NM20EO2PQleCdx0XQmyDFDcguKr7PmirtlQ4eaJjMz2gE6m4d5M/hvTa4BNqJd/8VMbf5o587PCFTZdwY3KMyzdGGWtpmKLQ4ucbuJOpTaDZE3ceAQaBYWR6ezo7etefnDJhx+CMmyZWcLuurLYeW+Cis1lX8QUdXlnmVsVCB71GcOUPZbiOzbCy8SPqCQg13BZqOy7gsrhCAwE9h3DDkqnGEyu31TfwQI09ARhPaOFS/BUxFm0gAML6KuRpnhOWUjVBPbrdZsgzAzyXX//AEijUqk5i59Rxv4GVlZ0YMv/ANSR+SAf0ODxD/8AC7op+cradJQ3vNmgakrb2qru8f0wdSqNzMdqFXoVmxUYYXRcvsLQrQretd6AlG6CuoI3qxlWbK7uVXvhSb4n6eMM02UPVwHLYwG6yN1a5Qc/3KG48lWrNHdaSUabjLqZjy3Yx6KOweCDHaOeG6Kscr7QLe9TGX8RRzVp32TNsu2re5FeCHso7pj/APpFbirC/ggXXXBF73QF/M9I7zvm2nVg/wA9il/EWN7gy1Y+CoA/iVwhshaD+6shZaYaBbNlJmFz7DB936gBTeCg6ISVK1vhfXsHC6qCdqqQwfmnUzYVB+WOvoJx5Fb8DvVJnB8nyVWo58tBvl5WWaoJc7cUcubqaveYfVKq0pnq6xavPDki52yxpBJO6zkHbioXFaQi8u0X870lmRg+aY4X/F2alF/de3KV1RGUs2Yx0WiPazU7FZamNTxj6ghMyidnsa9g4HAL+H0RqMziPdH5FU6zRdplMcDZwlDAds42xsmF1pLgqnRx8+0nf95U874qt9SSIKDmU5yiSSs1s76hLoQwHBOA9fXwH+6oOdciR8VfA3VPpnSGx0Rt2Nd6/b/mGiWO73I4cAFc4H0TncTP1AU1pUorwV+yMHLPoF0n2acUxKlgvwRoP1Y6PJDGPRHGnwFRToRCdbenjiE0W727Fp3Kk07wB+/cq3RnatdmHngUOkVmx0BpvmPfQaBlAtHbq0vaaWr5Rss9oXCMq3nhPoah5fUJwg6hEIg2lWKGM4jhww6bunK74LZVOp3adYZTyKCHotMDbAoR/wBREgEafkinO4Sqd1OEepyTavQ3/LUm2ou9bwKLK1N9J52S14jBlap8n0Jrtpx9bkE2lSYGU2CA0eizsGV3DjgTr4ID0LudvqE4ZlOHFNMKN6GORgk8VmJl2HTyNGljPhgC2zheVTfx7E4z2B2PJMgesfyTptJRMKq7vbJVK2XvHETpKlp14LqOn9GbXA7rz3m+aa49Lqinrlt+aayk0NptsAN3pJHrejpt4n6hPhiDw7Eq6s33rad5BQBGPSOkGflarnz+Xwxq0Box5jzuvP0MRhwx8kNd6dLC7adc+KcIVeH+qqO1msVGAVu/vCuLqcqj0lPnPo6Y5fUIRxEoT4IdttKnZ1V2UngN6aAMCukX9aCm4DA4BBeCj807xXPAq3BA8j+ig31/NGyrQPV0VE/dXPA8ExzLO/McEcuoV00dnNuxtr2Ojln3p+CDX6oHcfQu5R9QtwEplrLRH0FWob0qQyN4Tv8A3yQQlEsd8o7ZbH5qd+9N8OxGEShdEzgcSnIu+5xjeEC2pYt3XQ+UVSH+qqc65R2AtjQoHANm/ZicJ7ADxMcVnpjK7kg1+o5qfQVfGPqFnjgFBOIOA7DhT+cdstQaLQEyk28aoN0lPYfUAH6/qr9me1PYcq7piGJsKU+Ty1QbyHYba2mEDcrFCdFYzjARB9DHoHu4n6hYeeEKQdEAThx7QqR8jT7nPmmt1e6zWDen9I6R84+5Ui7VVdudBHuwGAn0AX6YkLpDp35fy/uru+KaJVGk3V7wnEG09kVRqRcBNg5TvMqZb/Ss0gBBzqlt9kCCFe0K30F7uA+oweWHD0B6OwZ3vEHkCi92yGp3TOkjKNKbOHNZQYCO8GxUZmgjuFFjhDgh2h2NVdaqUAmyHnrKnq6a/wCFPVHxhCAF0J3VFu3qmnXs5NHNuoe0sdvI3pozkuKIc7801zjOW6d1Ts1Opre6NOp89Ts7nwPY5Yz2OR7dXwj6jo/glEHVW0RvjIxbSbt1HaNCc97s1Q3c7mmPqbNNtwz++DkeCsv5lmnrBD0xXRaR4ucfeqfRGg8X5VldQFrKkx7mnq+lNykeKaLjkghi1y0VXhu8E9TPI+Ke0pnSaN8nfZ7QXW0tNCOHZy9kt3rq6gg/n2vF0fUdD/0wjhJ7MU9PaTnxnrP1O8oOqHT1RpicyimJG9AuN04EJzPV1Hh6E4SuKOHRzImTAQr9W174jVXpZPOUzK02a53nHYK8sOELyRCeOcrMF4qaV6Tr5dyFRuyd7eGJUSh2YKDXXHHs028yfqOlypBQhI5qPywjKZ8FfZ8VJ2oXV0hJ/JZ3nM87ytLIq13L5UmOAUMbhpqqTSLhs+hupUaWxK6MZGZrnju+KbIbqiF3nfNn9cPJSVKCKcdYEppOuA+8IwNM4Z6fhB0KbVbv1HA4FNk9p/Ra3zdSalJ/5hQVrLewwfd+o6RG4QmzjtacF8m0BS50BCLN4rTDZF1tutwC0VsCXWWb1eCrl25xb6Yqh+N/6obS78Fd6fkju8VdRuwGBKObQiE20ET+mDXq3BAixKB3oyLFW7k7TeODgeFk3xwPYd1ez0mnt0X8HJj5h29p1C5K2Pg2PqOq3cIOESXea5oSU1rW5nncEXVYc/hwXBSvYatL9jwRGkIwqruLifTOXRJnQu96Cuq5tDaZHwUqNygdh/go9bdhC5hSFyU6hExcJmYy4bJUi/JNI07fW0WilW72x/q8jzQI3hcsavjH1G8fdwHgpQZTXEnfhlZc7+SJdc9qOK18FVfwaTPoZ7VTwQaIEUw0Lhh0l257g1vv/wAKF49l3giN2mJiyK+KAO9EIsPzdS3miFG7t1H5Zc0F0Jtan3alzhG7B7uJ+o2jiCgpJXVtWUCFJWWmfk9CW71mMAcEHuEK7gPEodWHVZtsNJHvVx1a2ag8wtpocOLUI03rkqnO3p6dP23AJ5wvYKmw6i5Vu1HYC5K3q4RvRCYZ2tHBaY81ONTxXSOhOsaTzl9+NTk36kouOmYILqmEygFmdwR6NQOyz553DkoY2TFmhCr0lwz8NwUdF6O6vz7o+KDukuzOP+m3u4c8NnU2WXdoTyWfcqTZ1d6frD3GD4ovdYb11dKiajva0Tat+saYIRjTd2nMp3yGHn9EQzKAifWhbQh2/GcQ4KdxX3X2Qwuo7BVZw0N154P4u2R9SyPFF51QaBCFOl866w5c0Oj0Zc8mS79SoB2jqUSXF/NBWxnA5L8k5j5B4FdGb+I9g+j6Rl7yYPUj4rNSpw7QlyYd8zyTuRQ7A6J0X5LMJdU3+S6p2uaZUhXGyU6CHDSVHDAjCcMu/cmnmsh77MCCp4dl1V3ecqreDsKdMat1+pQDqzZRRqG0J1Z1nGwbwCqV36v4rK12Wlvy70CLclMwvDDf7kYC0+ODSe9xTOsc7ZEWKtUqAqGOe08dVsV2uP3hCc99OWDe2/o3jd1abpIRlF3s3TucH4YWQm2DXzBAVp8QmPdwRZT8JRb62oKvhKnAhSnM5ptUaaEIjgm9vpdObtj8gnPdo0J1R2p+pWM36nxwPig3cqdCkY4oW96YBayyg2VkLypQw2L80JKnsEagpzQD1Lrsd6DaqNHmqjWTscbSqbmiaRna4WXmtt7Wotpgvzb1NhbQK1YzwXV1m29pXWWndymoT4LbQZTGSmMc488NcAs2DY9YQp3rw44Adr+K8Glo/wDaE2iDrd31KBxwOD3+SNVxu5ASgSnndKMOVxvUqyObTgntInIYQdOUc1s3CvorHCxXV9Ip526oP/hNXq3jWnUvKfQ6VmpvG5zQFAeZV6rl8473q7irIuiXF2W/BNq9BpyN5JiOSLmCx9ipdRW62n4myupDJpv7w/VQWwtSCh8pZbT06XAyslAZvvbkDVdmcoGN7gqNQdMRjzasvvQU9mMP4h0j23kp7zeT9Sg8EHYEKnS4m6jTCZCvbCPJQFfVHdxJTqhja0JUEzfDXsaFbVRrfFyPXUqPSrZZ1TukfwhgbFz0cn8k6nUble0wQrBXRgXWfpLJpHus/VBjGBjeAwdTe0OYdzgus6GOrd7G4rIWxuMoWkjZdK1hRquC+VeX8lpCsrq2AV+1n5I8UOyVcFdIeNcllVqHgT9Tmi8y9twSncsHv4CMQFC5qML6JoaLHUKD78JXAKUd3FxTuj9BjpPSva1Y1OdW6Q907pge5a2QcCQeRU9YXDg66FYdHp0K/rOaO8eJWyWEL5vzCDntDnc8YlSMM7AA781WDW7MfFbbjCBhRjKLWm6l2uN1bvdnKLTwThO0N6nC/YsU9vtR+aqRabfU7XjVplVMpkagpx8leJK1wshKhBWupRdKmIJ1XJBCU7pPSqgoUWbnHvLqKYNDoX/THreKGBxiVa55IPqe7sQVslScMxaCVLNg8FpZcFa6OaFlYUXe0guKviN2YYyp3rNuR4ce2BwTKDYJBl0fVBoVNHWaUfxKEFO9aYSdUcAO65NIvyQwjei6tsUaYzF8o1ZcOitMUqR0AWY4nC+GZ2qAUKQpTKm7eg5pkKFK5LgVlqaFS3aarrKNVJQAHkpQVsZZ32HMFPZvp2y6ds90Kfpei7q7vwXdHuXcHuXzbfcvm2+5fNM/pXzNP+kL5mn/AEhfMU/6Av8Al6X9AX/LUv6Av+Wpf0BHJobqOxJ0xlSBJ4K/C2Nr1Domfwbo7iKj2g138uCChBThGE+7DVAFWUJ1N4mU6h0hrqnR52XDcm1KZlp34Qe7OGUqDorHKeSzHpTp/Cvn83/ivnPgjtfBd+6s8e5d8LvBahZo+TqaR2iBp2dJ5IvNPwGYWXzXxC+aK+ZcvmX+5fMv9y+Zqf0r5mp/SV82/wDpXcd7lofqDKexl+KtjdeCAPhjnd3KW9dN6ULtqVXFvhNsRgVwKDUArKQrqCpwPFO6M+9ObIOarrZ92E71dB49C6m/yPBPoP1YYnjhKGE/QrsafEK9Fn9K+aHlZbL3N+K2KgeeBEL5SmW+j//EACgQAQACAgEDAwQDAQEAAAAAAAEAESExQRBRYXGBkSChscHR4fAw8f/aAAgBAQABPyGGujL7zXTUrqkJfXUHpUMypVddxKhKlMq4zPUYhuL1qBDM4jlgQvoZ+jjpr6b+t+nfTXSvqfpqH0nVzK+ioaidK6E56jEm+odL6X0d9bg10Go1LxLqG4S89DBD6DMr4np0HS4wbPqYR6V1qVD6qh0rqdHpX/Tj/kai9dS4xmeZx095Uqa6BuPWoTjoF/TWIGOnmVmcdCY64lETEalypvqfQw6X9RGXL6X9Fy+hLx0ucTUfqv8A4X9RrosZcuDcfoCcdTpz0v6FubeunQnrK6bmmblfRj36YuOpjmWjT1nOo/CUaL2F9o3R1R+4PjrqP0n0v0cdWP0PV+glZnMfpcfTx056MDq29KgUdCLU5h05lfRv6B6Lpi56Z6jpqEPPQw6MuzvG+9RVLw4i4evHkz2zw8cM7ex7w9K/NRjEkKkWlLaamhUqpzTm1/U58/jzrFej0l3wCzgbKa5Ff7MVhwIi3FWWeYvYzYF7+niZKRSG07c17So77oK+2/aJAWQCX2llhAFqzxMdRj9FdOJUOjvpXSpvqddnQ6Mfq1K+vcGpqcwvoQIs30KnHTno9a6V9O4dCaZldHpz0cJqUWLbD/TF0UwB27Xc7e3zE3dWcb363zUGXmqOehA+7EuZM2vQhE3LYr2/1zINzcSXblwYgZfQu/V4D5gkYZB35czMl0DzBhjIFFchxKszqyrmGq5Ng8bgDNvKuMh59T+oTmwN4VvLAdpMXSXw87IlL46nWoRlzia+nicfTz0ehL6PQh111fq1Fjo4hLnMvpdTiVmXCMIxSpePq1LrpQyqJ6y+mpxBqFDqE8ANNvghvdlRI5sDjxFFq4Lh58tXDq3QF/naE4dU7RyYveYpUhQi+7u88y2/d2vETYMP9B+IPbnG0At1z414i8K4ALS/dfXXvMoW4YeDP5PaE1OcYnt7/MF8bAt6MQtVGy1lrH8wXa6N7mk1GYGdAw53/wCQH9PyJ+X994mg8gr2r3YRVDkfOX594dnUdcXLvoy3ofRx1uM46cdKlQlzcOlQnPQ6cxnH0X9LDR04QxNv0uZqb610MRhOZx9REqomNzguVicy+lWzJmMoW6KdBcI+ywM/vzcsBy4Jh3Fktv7RKK3aJ3v8PtK5Aabxx7sfdjCBzfs/7zLlWVo5gKomhsBx+Zds+tJNEhaiLyLwikQsF2ft6Et4TebhOcQXG74au8nykFQ2havm+8QB7UnxzXaWtXgS97wZcRKcxku/h3xFuBVWMsShSzDrsM1mZcGfyJr6KlzjruPWpx0GPW5cenEenEPoqV/wdQcS5xPaHTXRITc113GX0v6tzTNsviZJb5T7zmXHcvyxsmfvcTRq/sNwh/FavVtgKr21fvKNcwzdPaAQ8Dg6vj95mFA8rdfCZJtZxv5P1KaoFt/ROVNveLuo0UGFvHH5ZkT3K9LlyXvB8wLMCny1/cNG7uFhqKvAp5l6IVZ7vVFHpCrZ/dfU/aWpBQ1X/kyrXlI4283x7TutWW35Y5AK0338416QW8qo3gluRqVpOC/iMI3YoO/iWFO+ZcOiSvq5ldaz0DpUr6SV0Pp4+rUTE0R6BX0B0JUqPXiV1DqS5c46LcHEuvM4hrop3+YDYE+f/l/aG6rNr4aL/wBRKeZNVi+Pt/Mq9nPG/XefSLekOSjvWfMb3lKP9vn9Q82DSmD3v1zK23h3uPMwQfxA/uVRG9B1my1o8ZvjT7TEuVDgPP794ToEqPl7ZlgqCAvDvHmyouQ+XfiZ7ZO9qVizvxWLNy4pMLW6szlzAyrkPZXl8RMKc/ILq/z6wu4nDp2qrp59UWjZwjrWlhzzSvWFCmxB93dPmLAexdplkFzmalZp+/8AEtCOFtcGbxWpcqVwa9wsqowXQE9OguSiVKnPRzK61Km5U5+o6V019L0vpf0Opq6cQfpS5mE19FSoEetSsQIJtmkIFyhipuYjAlduZePvMfTEJgINBA5/EvPLMv8Az/2YLtD2v+o3ewN2hf8AvWchgvzha+7A24Xm8mj7jA5rKGrjPbjvLYiH++0sabYcT2gjZd0vQZuOKr2KIy5CFdpH+eYPiBRspdszTQ9Owg8Bl17vXAxgm6FXKTaa3x5g4FaqIPg+fioffUEpvZt0ynkSZF9zKzlzC2O8R9yAW+rKoEUyF5Wcl3GDd3U457TKdpegeM/Mqo81eD4Cc8tKrV5H+ol6hVkY6vxr2it46EJi6cw689LjmX056s4hKldd9cf8tOgy8Q6X05/4m49R6XcYo41KZdTUaJeLl4hsXsfuRj1xtppf/ZVuec+kp21QeV/gZcAYMHZqIMgtm9h/vtMbj4LGv/PiasnRW64+8uqAotijy+rcpKbhyDir8kqyXBX5me+1KEZa54zHSvBFtOLp8yoZkSAYD76fMqbioi/TvHzAH7hKRdNLzoo/DXeazPOQun4YyXOlhBkus5+3iERoSrWW+PDFCKqkewF5eNfua6G+eNWffO4CsGL94N6ifmxW+jZ6d2AtIZFB7ZzUeUlZZnvR7lyvK0TK61d/7cAKtRwDvfbyx8xylfh771zWIR36eww1qMCDfXmXOep1ZU5+pj0Yb689T6Kmn0QVmV9D0IS4anMvpXQY6YnMxc2lZmpx05hqLEtRnWFrJoTt3l50uSrmYWLCNUcXxKIL35xLxcnI5rcbMSug9CKkRaw5eNR9A1VMiZN3wlKSNlb+HFVTqWVjqhnWt/rEHC3xBFlD/OIAmTxhycwuhe7s9ha4PB4Yj4lCEnCNHflA95VJ6Fjfurfr4jr0vW26TO/H9S1EYiYLD3OTvjmWvlhE7XdlenzOaXsOKRvt+ZSCd7SkL76qYdQXKcs9x54g41+QvIMEcc/QBVGf/cyuLZlPZ57aj5ymgNMFVoomlR0Wz+GGFS/wS+9rh5zME15hQr7Z7cSmjiBCVGJTGVmJK+g+jcJfTXW5UvpUuX9D9HEcM4lwb6HU+lhKa6BK10roCJUES76MTEplRq5Ru1qfzBt2vzP/AGINSb0g64u6qVsLuXP+5mAZfq+IhFmG8cwTwC3k/wDZl7A5vhzMj2K0bGz7xToLUDNGWvmDPanfCvMeJEyt7U/MYQIT1JrYGGwuj71GaS2GFaABcrd4X3D5gItIl2PL5P8AyLaohWFWHEOJjKtWDXhcSufOsVWH81EZwlCzBgfMvmmObOZta4+0WidhVpg151Kl0mToyr2qAUo8SJ37MYIZzBYWfL61MZnWCsrim/sQsvDm436fee6g1EVGRTbpf0P0X1vqdGV1for/AIfH1qVnq/8AAYOGXCL5nHTiEWYuuYM3CXHE2RnqVN9z/dozDR+DDGy3riMrwrWZeWBcULkWCuJQAdsn6nEZzqrmngV/3xO7ULxzLXVdWHZ3JttkoueQDTfL3h79x78WqnjFfPekJWGxbUfl+0x+KP7CB7A9G2ixh21Dfl94Zk47KTcZQUFfFH9TCOUbq8HF/viDryoEGkPhvTzBX+ILzyX5ynf4hfwhkX7dx3GZ7ctPpcWHpiF7spe3D3ykcDnnK80mB3lzBaANjV2zXlyXUQtrgAO9BfrMX3/LIxtCISFO8PFlZlACnnKnezfvKG2uBvNF1LIhE8TXoTmalfTUqV1OnP0cypXXXQ+p30cSupH6CV1568dblwbiriBxDHWsxITEPaENFXs30oOELBLd47S0haWayxs+EfVGbYMP/oCAsaNB7wBJ5e2DtrvKlwls4QbafJiZV7QLXGeDfzEJDptEW4EElECjvZtt/iJc3UKXzx5YATMXH+8wqwC0qn+ZhLuBXn3/ADKjUPHgW1OeRqVtvtqv5Q2YVa/WeCZBjWrb7fd4gjLHbZVWq+R1BmqjBPHC4zMY0o0QbBvVn5jJpeixxFejl5gxrDa3I53v7QqLDdC3btGw3HUU5lZ/4HS+pLl/QvXn6n6NOt9Lv6b6XLl/TuGehjoZhiBKlRwy7jECF3hULzMwC3fdbhEoBSS8rE72/ScgzOYlnEC8ipxI8y8xjFVFz4HHOKjBWclj3rHzMuyXhsCN6/zCrPfHft54i5I0M1cafftLHXaD75EG+B/JUsYh/jVkPOBx6v67TISBLvXNxzsgs8RVgpK32b4sgHUuhid/u8PEdbZ9KuV57ZPSCFcWvsOWYH1lSurLrH/KIUMxHeb3xd7jMCFvbd7yzAKi5z0uh/MaAQ7R9lX7wAYmHNx6dvR39FdCcwZU4l9Wc9Kj/wBOIIcTmVfSv+Fy+nH066BuDTGzovomY9L1eyXyKPzOMWriUpL7s0stMmGPg3c4xXmCOHmAiuJum+KiTHoYrujUiyEjo9wghXK2fiYHnsJ/vEyw3WCHvXpFQ84cPaCTiln4wVHCzQTCO/Fwe1uRt/iC3lj3SiETByyv8QWOPA2Ypqn/ABDpXtNrpfiP2LlYvZjG+GAeN1j91MsrAQHAV4rzFTuGzKDV5xvMAAJR5dd3OSWxjamT1L6D9SuYkOjCO/rYx68dD/huOo42y5c56XHDBrpcCOJvpUOupzPslPeG5h0GpWOriGYiJlT2P7lqPKgEJRA1Mu8CqqY3ZJ4S5mFpcXFTWMyj60WGwStQK1ollRCwduEs34XkOo6y5lO6owf7cxCpUHfzH4A0kXn+My8VV+AXe/1iKwo1jCUQmLusERkHd/nU2mVw1WaePJGNIWLVn3X7RkAj4C+VXWnETYxZ5z285/EognapUtKug3ipW5+HJ24amE1oquei2Kjrq3OYy6Ou4/8ABnE1/wAajn6Ax0Oty4tzjq/S9K6NQYRhl3KqXg6npzMUL+yM0RmfWIU7ZFBZYwUBY+Iiqdlwjk12lA0YZaeJnWcJgpiVzjobS8dqgBlbplAuY6KzMo7x2i+xe0VupYarRy61b/M11w85hkFO7loBhVk+r6TWuFPJ/hcBK1XyqtGb9PePqcAHAWp47+0UJbuaU3dbLJt3bsItX3gIVNwu17O4ZuAyrJ4Wwfb/AGYcQEdSqCby4fRv6GVOP+t9X6WB9ei4suEqVmVKjqJ9Fdaxc4nHnou8slh6zdxaijjpc5hiVLZdXvAFeIBvcw4Osn9wvQh2jtCvEQvtCB2zKDkuYHDMogo1EKqLm+h7RrN+kDhmue6DLm2L5glGX+IelloRa28iRCtyNiuzG+vY2/6p6mY1TtG2hWPBjM22h2zwfP2ma7vBnL9j7xXbSimbG3o/MEQLIMN6eLY6YxgXlN+mT7JYFgomTv0GHcOIsVzeX119O5fSvr4+l6V9FV0HEePeZvS5cIR3LjFe019L048dNLlSpUZ5hiycSoyq6BKE7fYf0QDLWLcTIThYlxBwQAgDhzDQhYpxFt4iLl2hS7n2lWRRFQd49Yq+YFpgRPaX8A3V5iVWO7ZZtwUUMNhn0gV4/UJdYmFwYyd52QN/7maPl1zX+vMCUiUcCf195niKMtK69f4lA3aBcbfslSPAshu11rAwTCNBrTKw84PMViSx1bIdi+fRQgNFOujuJjozOmulxm4dOIdXoTfW8Suo/wDHUoDKuPQlQi9OOlfWL0NypzKtiw3OZdTmcxhuc4G9oh/CLUNFrzGB9xH2iCgc4aftFjE4uWKqhRLUc+BEGTWoG4Vg1nwheqBxPUYYAfNs5f8AaaU+yco+NTZivEoWTMFw5iORgkBfF6uHBKND5o78y9ZChz8fe/iXOMncHfwhBpdFiqIa5yxI5JzoZfg15l6uBLIHD+l/3MYkw7mWve69PSEBohWEcJUGu0MfpucS4dKmpuVNdGV0r/kkzWYzMfWJLnHS4TmVL6115+iug5hElFQh9HMNw6UbXzXHtMa8rxKrDXJLX1Sk+1GMrCWa4jwchdagU1Rdj3RPiH0iE4vMNzeILO7mjbJbyT2vcLwzjiVxc8SxL2+YLT4cpvwzamdqLmdcsxvkkr9xAxgf32y8RT4Z37kAhbOKYf4wXbTwLOvWn8R1lLXIPH8jM4lRii+dXAcRZjc3mal46XfSo9LhGa6EZx/wuH184g56ViPc56MIQl29Bl/SsoZz0NRJeZeZpDPrDPQOZzOYb6Mu4BHxDgMIhx8raIGsOVCwlsfpCaDcnB6zFIyxDqt+oYIW2GVDMui6PExoLNDfeYVDROyv4qU1weFHyvt/sTtvF1vgzb7RUrzC9DuMPKlabnfNswCFFPvFrOrYziK+VTPNBDnPEK/q8nYx23Shmt8f13lb3eFzxd194WxqL4Ww/P2gpDzG4hl9ph23uy1a7u5TGazhdie2b+IszJ6UMLiUaYk3fW9TpX1V9O/ocdDoJq+sr6OYdKh0563N/RfTWLiYuXiprUuzHUJiGGOfmEtv92j7BPQWZ7A7F8GItqHFAxnNxoewG0bakT4LWH1Iae1T4e8KDe4jau2CBOgFjphGK0/hjUgWNb7/AMygoG03f+7S5gbxjE5P8XIY00sq+8DEz39+0I4HBt/1SqKm99TUeCC7cEfGYgHTxZELhojpxr7/AGlFeHAvZ57cQkNKMs8mvtUwbM6tsq+IOFFF79+k3ElNzJieqc3EGZWOm49AlQOh01Kj0rpX1b+kh0wPRhLg9bgy7mpqbZVTmenW+rAXC3HaBUbvpxDp4Y163O08TRslaJedKyrwjBWTQ+XMbezVLPvFvNsoNlKXmaeOZn0YJ7PKgLcwic8SnU9KxKNex1uVOGBjxWx69veXK3Vb3+P3Lh3lC/DHcDzfsAzZhOYpZ1uAF8BX+osXApCwc945X8wh9UXBGsV9WrP94mRWRDLYAt/qMBY4FVrT0zOzzPtrf3+ZUxgxS4sTiOriEqHpUro9OZx0IdL68danPQZc4lfRdFwRmyc5XSqlwm+r0eh1uX9BONzaVayWT8dBucwh6xSnq4/cupKKuIxbXMwCMDsfuAju1RxF3Fy4PtOIdqn6hQjD5TA163MptGNGJU1C/iUmuzqDaN9MhNoswC/Mxi1gxAjdh2v4n4v3oW5b89oDXCckMXauEuyTDMK6n2ojkmPaEbEBTxi4P0RVWBx68/MHTbNmUZHsNsc7MAhmEBE6VHoG+p0r6KzDU5h0ojqY+mvrqMCiVFhl46PTnodGV1Iw6K+n06XAnHQ3KhuBPSX8RSN4l9HXaUbeyzOANUZGG2xGaUT7Ql4iscagiSiioaDxvLiURbSy1msagbX8BE7NGVtiNhocNqU4RibmsqHVH3mGNLRdSrRxdrz5mgZmbT4jwup8ajjtAt7kURdFn3fv3mkNW5XK+Y7RoNYjdfFPFeBLdXkUEbOqNRslrmE4hLm+uo9PM56GIvR66ly/qdQSDfTCcRPoOly8S+l10LBm5cv6BnMF7QV9pc4hqXCOi5frMHMMYQTVeal1UGuvtm78IBWZcowG5hRRjUoVGcDmYQmOoXgzwiRxBLEODMYdg957ECriWGvsw0es3gfXjcaHi0tvmY16j0lKERVS/Gsle/6Jxk/s/qGOx1b8x6DDiDK5mWg6gFddQ46N3pUOnP1D1roy/wDlUZg4g3/wt0Zx0qHW4b+k10EvMC4C4ksDKEyAfmHTUbY9IbrlAJeryxINwis7iKyUBz2gr5WOaq5SiJVwIFyrub7Rmm66suFQfdw+ZaBjJJLEBrMGcswSpUtPXfaXCtLspcRDUlVtrzMyBoHiEi34iwuZuN6XzCYWFQYlYj0TEswQ19PaMr/kP/F5lzc5EDsmv/AxM39L0qcw+gzFbiLIIl3RNpFuB7Qfmu9xWyj0gC37syksC7eYljqWjVdsL8LcAw1xLwjOF5xU0mpcA0EFBLqHKYm5VSZgPaDsLJx0mkJ6Os6mWJcWssRzes1rDFxxOCw+814El3QqvMcrzYesyR2zSPUvEUm0etwm4fVx1Or9L1zU46KPMWHpqbMS8/RU19OpxLnMuUd4bimSw+AV4mqxid7Y++ByzKF8WobAx7Fsdu15jDKUtPygeQ/klTca/EXvyw8R4MsxrW8+IyhMCBDplDUAFji4KxzHtGWcZmaCr4YdLJSvjUc28TVlAFo4iii+WP3wfEE7S3BcpVrYghfJhNWOcQn0gwvxNzwGUpW4e+Im8PaMF1ExEiibR+m/o5lf8TrdfRceovP0HEu3S4TXXjoRPqUN4mFPqjlPE248pnT0qlelYusdksGccrVRWeSWy5jmVeYFl2HKi1QxV2uCtZcYmAgFlzP8lyuncVwmRZbKFMPeKWAad4Fj0N9pb4hTGC5V9GWjExYpzgwZeVskPhSiN2sfuFO/BUSiDGDMo+AlR6C173M2LPAlQFphBsjuHmLHrrpf0XHMv69zXRqDdRyIW4lnQ6l2TKLzFomWHtNxXHpxCcfRXUauYpvEF1LgHMZ8nibLS7uiGteZmJqd4mjtCwVNh7EsDKCx9P4I7YoK+8YV9o5H3iqzyQsbXOqXYrkbjMWhKI7yqIrku0EFsGkblJY8+0yA7uZC9TV3lPBJfhqZcRvOXEEtnJwXKF4umHdhbUrt1m26Xr7Q6jXR24coVBqJFnEWhVxKKFQw590YNz85Ju6vYiPeXR+u/puG/wDisMtUOjRKsjKzRlD0Lkrpgnx6YuX9W4ItajWjojrLcFzWiH9zEFJFgZa1KjFFwq6yROJBOCzZAxd4uPbHvDYX6zSLwvIfxCC3Kz0v/fMXfpcO5B6sFpid8HvLC7xluiEhhgtxsl2gVmPnbQ1Wx9b2y8IqYCq0sbixq8rHYme7POwSc4DUGi+ZpH2l1omR5ipiWUfUleI1QOhdGISEHI2rl78wiqshx6dDqoAHp0YreI/ki+foga9A5ziMMO/QGVUDj6A6YgdD/jUJVxnPiVE6m0bGK9GyHdHouXxORKIOe3TXTnozuhiGX2i3E5fvMzuvENbUNKqeIsBUdvEOhdw+dcHLGvBmaq4YX6EsBFcTjQtZ3qEsOWF+vtUqQLQUhwF7Pt8yh7OxmGfSS2sh3h00od1P3mVpCUN4jjxWTnmPRAG/92wDARUXbR8WHzOHJDd+EXkuXco5O0DAU07xUTykRRfCXPSnED3ZhQZ8MNlSyNAtWXosQej/AMldAsCYKTXi/vCOS/Q8peojOPMfCRSKdnE2mAiUSrKcEtzkxB7QdIDXrpAVa8pwl9Vm/qOly/oNxiqXjrQkHEW4uYpymjFfoGahhQq4HTc0mTiDAPJN5zMk38R7L3KGFf2jvA3DlRXlhrCmz4ZUS5UWxFdkwcnrLVoqGJEqGfLGsn4m01f1w1qt83R5i4AqScQDdYhhUFBkHOIYEAEA8QwtS3VH++85Z25N57TkABqxojy/dIBtGf4/iYgFFfb8kAYPKW8Kq7bfMVqQ+K0F+8fN8u5xQbHiBN1rClFVHmUC4YX8gn3gIxKSrCHOIMCwu7dU+JQbIBeh+oJQCO5RLzcCDfacNc1fHMtdOAqUOc+ejlAnEu63UyhuWVfE7T8ynMqJG6Bx/wA47pH36jj6+PqOiX6dLimPSEVWIC8dFTD6ts9Goy4Iqk2vMXm424nji1832IE37I1UPmO07eYlts7Qtrn+CY43d47SkO5kXb2jXKVg+ZaDJzcxta+eYYDlDvt/MM+iUHLPU2o47QwKrKBLQDmNsBxTGcLw887IiM4PcNzOTasw+GDPN5/sQRRcKIDnGYVtbeYNY16yoU4y+yoAtW72KtPvzCrrXsWXTZqGGtO3E0M3FPO4WvH8TAiXj12fEwAaSDX8kxn1S32L2rEVCBx2jhnjMyhwQLvEPgEgUGPo4N3qXA57w1K6tJMHEqzLvGE4HvDRjczfRieNicMoTb06ZUP+FnH1O5uBm0bSZrzN47nP0L630KQi2AbeIjUaUpLet/xFRZzHxsgruo+l4jDT3jPVP/IjaNY5Gaz6Lm6tviUnNSjr37Rnq7QzE4ZZgCSuU44mmuLgznc1Ana2o1bd/aCDgGDs7wuTrvvKJN+Rn8QhL5gLUWMDFo9qmYAu30m4j/H4mQGT94INCHG8WLjt/wCEQ1EwWn49mMeDGuHWT2g/xsZixLrjE5RBsZcVr7z08mecxFjVFLpnzDdlUmmwH75llmbawVaD05ek36IbRxUAR2O595YKFMWB309+ImxppNj49XFRKDa3fk/niXysg30KiXwjiUrM3z361SphuHBbOcLX85vqOuOt3GDcuDGMeyDqXmLUay+Ybj0xlx6nV1LhjLqbqWO+FlvZ+F+0ouj7TLaZlzulsqrtEwegNbesuwZrUEj2gWlfMwdoteCPLlM1oHtFtzB2bAzJ9Jco6oNT7XcPgMMf0EXXHZt+LQUg60Up8HJ9oJWNYJbNeY6YQCVFcgM/7MJPFqIfEE93Lz6fmd+BzL4+zGOhroE5IrU8/nU5/VzNwrR2JTld4dswKexo0170/MGYPZq9PY+8ZMq0rK0JnQsofTEoZUoFWf4XCPXmZtf8LMuciZbLVfF/JArMMTbDT7S7glsQuUDCtJMpHtV/CYdT4Uyguq8kMblll7TWwZxrbtFdMyV9CEdlZhGMPle//Aw6ajJLmcaTZMpVwtY+gMMxw/RuHTjpWpQs7vnvNKKCO6yT3iol+vM0KPQhvsjYDxMStrmOlePMd2NRVdcTIKK7VqA5tXMKldIFLEUaMOb1ENAKyYNgJy37fiXGUK2PgZ+ZVJAtoax6ufvLYeE3/eV7k06JUYoQJ7/zF5wMmxfvVPvGAXoYxcI62spL+Uy0jY58uMQVgZMLywG891kNa8Xr3i3rZR02pz8/iIiDI8FoMMMQUxwZNQfeWSa18f6ypzqIN+TtkRiYHhdFVj7QMnHaqf78RgYZ5O5AcLfcrPtfxBsMgXcOPcT3IH2BKwteewrm4NZpg3ry9f1OJeamcPeSg8zAOIlWYIa6JbCKzW4ixrx7esIKfUFEXhbq/wDSL0zQrPmofzquWou5ih0Wp4YHJlQjaXaswK6sgOPEPrJcYQYarEuiLUqybOjmO4zjoes2iz0vPUMelyvqU1cI2CueZcSC32CvBxGdcyjzn+KiLVBMra1F42xm39oX4EqGzx7xGJD32iKJ9lf1GWDboPyYwrLBer4uG8xIuHMSg6EPwDmFQZVf+fapcM+Ss44llvjmCjwSh7euYw2ckVUcKJ8FRNe/6i8WYSegIS1RkX15jSOMKdl58yoMBaa+IY+Cgs18dmVo1XYlEQHYvYPzFrczuh5joQCZDhcEFbZYM39OYpgFk+MWa1qU2kmnL2rmVOVK7Xis1WM6jWbffDmL8ScDzP5mOqw1t/7+eI7ZTPwK3kue9doDAal1D7sFnRT8JRA34Ei9W5ix03ekXTvAWCKZcFl7ygYGoEnimL49ZuJd8v8Ae8wCEchcnYnGvgiSl+mENm7hLqZNvaUA7L/hvX1FuZYkOjc3LjzFmK1m4b6A2fQuXFo2tmEK64XOJpNP3Ip7mfZm/eL7HTPpuXU0bOliuCr+EACw7O3vD0bGeA+64em21lRnG39Qxq5wvn4Ce9c5Fi54em/m4bsdhfglg7u7a+JTgUb/AJnJTyeNSyMFMv8AB7Su8ocqyxSrMRbEoAU0jdVX6ftFeovcU3iUbq8NcvMvY7aTa7o/H4Ix7CBh5161L3TgKO9s54qWuvLc6HXrLaHUhxVHXFRhIbbV2vbMsM1aclM4l2OfdbsC/YH8QIlatGwwLz88Eviit+kCaTUXEqZQ+vajw05yDmCucTaXtL+/1CBvS2qs+VnEVLxC7pYeYgl28TOzk/aUYMHS4il3zFG2VDBGqcdpVYK9J3Q44/iBFufQiaGDs1PVcyeCEHKYvpNjx9LGYuUX0WOi7JU2y+010rHVzFN2XFGLz4mjGYP0ZF0NRgXlQIlacKG3zUtdNke84+YhI3eyt/7E0HjJ+JSV3d+P1GQhaLO2TOpdVCrI5Ujdwu6hUD1i0U1mJrfOZXZHuGLNq5Yl8TAPaZdKe8FsDcBfg+YHPG+8uSUU2O8yw9NxWd/iZGG8zh1/7LAsir2czAFaHwBCRRFqtNnHpcbAFnHOv5ldAQC75fcfMpZiweR/Oz2mQ9464X8fcwIMEF9GtN1jcBhACVa5omXtSgndsH2gp1wzKqjoFmICQJgpf+/n6Jm/eLFFScstxmZ5PVAr2EFDpcTZvMCPMuHHRzFYekfHqcyqbq61LxjkZS7p8m30jj9o3VcenMWvaUKhkGSn0+p6OOIbSURN9ToWMHH0GJuyhmWWE4XUNY6cRmor7pWLoNLzCLpaM+IVAejO78494vdGktq+0FX8hlRr2xlezuxXzKB7plHqPxMqnhADWTj2lVo4S3KNJ2hF6MdpeZhvHMd6tR7r7xWjLiCIe/adoh4liszGV3MqztgtTOoNWmQOPT33MNd9f94jUUOAF36zApV1fzuOVkDNxG7XUCt+s55RV7i+IDHllsHEqq9oVLIHSEWZ+R+uiwxefaLLFJ5FeYVb7xlz6ok2j6VEpMygZt8Yij3lTiKlNVzCMERVfWVEqpqAVy4h1W8i6EoXghn6mblBF2mokFQhLnPR1Kr167YnnColMHhiS/t1dPuxW7Z1MEROyH4XMzNKBGtQUbQGrv8AMxSm7QcesboWMN3zDyTx03cbiq7Gf6udtRW5ZXNTd5jRm8H2mSrfCe+u4zemUc0nBQy3QVmKuPiYjvxL8O+V88wGTDwx+2DYbMHzUDEeS18dSgQVhDAVxoutwWp8L+hKDHA2FAfhCPd9iplwMeqMNO66mXTjppjiXjfSjcKCXDLdm7pN5FYjeolesdwTWA5Ko3nJUNXDpE1Xno0eAenmY4WxWGXJ2ln/ADDUrB89/o4SsOtRl4miaJolZhuLmOutdXEb5i56ESnq9ZQQdmpcJR3Nq74jOnhK1vzKFna4Ud058Me+g+M+0OK3Mdmceox+2WcVExZ7TKfV6zd+QiLwSz2nYEwKGpgr7Swbr4mAQFitROVE3NWA3zLQ5+Y7wbv5g5+8sqvhl1ry5OPMYiWwdnn1/uVbQU7KcRWUuV3bLTjiVWMSvllIOYKHuQAEQpTpcGZQ4gSqJVF86ghdexFyLp7TOhucqt7zBUy4djLxA2J6Q0fCVhLqKHflVxEVebgyMMl2ua4gZ88xtengvwg0waCXX0dvDTL6LLuZkui4scY9C7cxenEvHQcy7i9BhFPfrcyhHaptLm90H7gkGlFzjIS4fNQS4vaBfI/MCV6y9T8hVfHeYbBR4ayf7vM43TX++YTgEwlqaKv97RS/yys/mZvN7iWY+JllcfubiLdnZAq+IVhmrmXjMQUuly1cr45jQCqrcv4QHk5Qeaz+o5jgJTzcS7JyEcKzDLWLjrLiPQS5c3lCcNZ/AEwjyWA/OYyhwJiTxzmI1uXmGpap7yzTjUoHSUisWrWcSsh+WWFS59RXmX7kvjfsQ+6BWOp1GvdMquqXKniPZEpj9T0JWJWMyuii3mX0IKMuFqcNxzvwxKU8wh2TzMReoGRnT0lf2S56ofI9WB9vMLTBidNw4VRq78fqUyjGYpGTxLCMoaqEF5dzLFzF5Y3bzMniWzZVf8y0scypvOpg2aJ3Wu07hdS6mukVjt5hsfJLDc3U2964YyK443C0/IZQtUU5jRevzlhpxebgkdtVG6wb6X1yTyQzK6w8hE4hiD4mJ7S5f5qhwlly7RhcyPvLucyFtQQO2I6StPlhQqKNuGC7zwd2XQVbuufE5mVXj0hogDR9BLx0q76v3h0zLx02zbNoxnHSpVdNRyR1Ex0Op10NdaEYeflPsuqfCV+qnMVmItcwD+Iqtr7XMlkN704KrHA+0B4wlNkHqc3ATpzMJg4lyUWRPV5nYor7TNc97ImgmK9zPSq1kizOPiDyeTMqwFeJZpMZdYlXoIXZMdwSzFVDHVqmuYiEwh28TCfmdtEMqzcJ01VEqc9c5YniNSuSs+ZhtV6RxHdKpcva3MpN+sujGXKUuBUyki+7dVPVQ46R6o4IuzvPiNdBYl5la3UreuIABY49D+YINpzKeU3DXQl4hPs2DLJc3LzF56LzLzNxetwaZd9OY6rnoONxDNy+gy+pqYK8295YraPEdRddqzM6Nu4aH3rUxnYlPS7lrKt9klejB28FND0fJUv0vN7rJ9mety3zHbbSPNLl+cyN/aUFS5sL8zK/G8S7pio6kLHpLUSNPzzcGMMN9wzIxVJyrKobPWVpj5hCwN4bvqW7g5PmINsnEe5uYR1MxL6uoIKx3sgeXmWzEpGcbneDX5gj27YxAR4Is1v20rnYgJFQrd/aXRLhZ7m4VzlQ2N+SAWa4zMWc0eQcrB2s+VK7iPJOTpcv6CZ8/wBIMXNxzKiumupLpl3GczZ0NEcMuMUsMvo6gy+vZWJgnNn3Yo05LKnLwDzKNnZ6I6ANImV+c5+XiZCbIta0aNDZ73cdyDape4VFAY3TiIQXa+xfipaOahrW0y8Itk/cKm3mDniz0nIPiUHmYWLmKrnh3BwiTMb6TenPpLnJHc0javMXFY1y7MkYqcTuD4i1bQpv6A89Ny55nhd0+kCnHQxBbJ0Qcjdh2go79WKoqButDnm6jjll2JWwoJ23JYC3Z8yh1xUq+Yy54BttEqoyGaPHtK8KBZmbVYmBK5QzLrrv+f0gsJeZd9C5jF4jLRz0uOpcuLNpz0uXQzmeWYVxHoRQUJyTYVXuI2eTDOZh93eOMClfEIrJl3x4ubWs/MsrQtibHueYF4PF7Rr+/ebCoT44/cTHMY8Uv3Cdqd1zzKtivWPxOBMM42drmf8AvH0TM/xDiI+iIsszCQrMtfiB8DvLxmcF0prJ9o5OvbVOWBTsscBGDzKQJd9dPQgzBoeZfpSjmIVuDU5a5Y2XDQdiJV2LT3lYXkPznf1GdU2s5hBKQMlyEoiMNyx9hEjALWG03GYBh9TnPaoIrTFHd8xF09AinLx8JqpUDOSXNwc9Bk7KNdeISoSrmUW3pcqPQm36XA2ssL0IIUqFplX2nZLu4OktDcQqUVermnL5lsXBO3eYUFmSvtCUPmIP8zLrn6xRmrwanzr2IKRUgc8v5ipaat40/wAEXOw1C1i8xWEOe70j0/UHDiYA8x0DUz/SLh41FGohdV6zH4l5rHepd4bgeykzcpDtMA7jGjVRKh7TDsEwxpKuZLZhCwkldERZbU1gxq7mCGsfMv0TCC88EsWMMlXME/dXyxy3ttmFWBdMz7C41LetAcxuZbjUMW/Br7y8WUzTJ0maO/lo+Zz6DAcTgFa5ZSWjINv8RhWjijEyWrTVBNQ6c9D/AKdprEerFhqcSrjDL0Zx0Jx9A9BLS8y4dCuY6TGm0h2vtPUjSQSbJ2iGLqW941X+r6xCKpt7v8Q9W9H5Jf8ANM9XtClqVLyeYOQLjkUwnzEvdAlKsNP5iGT1nbF8ztaj7ZhNHMLTFz2kLXmWKs/uGrbjgBz0yt38xNnjUT0nlVcYj+yhgoLNtZjbczDFdvMXXO/Ub+1TDQ3SZh6dE9oGe8YwZslEwNe09JaZxwNyx8rqFUO2Po+ZxBp/MMeM9jxMGpWxIy4Cexz2mx0i16bKa++i1/nEAIJzwHvz7TfraYW/ExoagwZzBzNJ26Og/wAxE6PRM9cCHETM1OIfXqDfRfEuAddLJcyniZl9IeSFzFM43Kr2KmFqKplxjIHJnvHtNA5ZLBBaMVPuP4lYNev4eJTLFvtGDxcD3mKbeo1eh80+7E5967jT9/EdekUqKmm5g25lgNcbZqaepBQtYqMIdXuLVezzExVNdpVvUozUKi8jPaacS/SX0HOYkOAzVxiI66viHtm6jOuLLL5x+4p3oQznMBBF2RL4nymSQyamviWHynew2viZgRlcj7+YZeD3H9sDvB5lL7F9yYHiXAyYZhKm32l3vCEVsIhMweLh5Dz5g5WGL777seYVebXGeBMWdsITcqOsQxUOY69T0GYuXmG4uZzMpZLlxb/4MdEsdS+gFf0XPLxmVL8s3bthJTWFdpQvhUIwBUYoM1fD1jjGUmSXZ07ur3GLdjzfPzCEGZTGHaH6SO5KK+y4A4BjvSflmabbfM3bXiUQ59YwBsNy+g+6LGpm0zcpt7I1afid63O9hlndRqYm8nVyiVvvAJwHS42oJcHHeaFk7czzJO4S1+psPI+/iVC+qnRUpUOb+8vHmC/USg+X3liu5V7OIYMHlR59ZltmX221/MwxlThnsr9kXCYVrzlgM0v/AFQW8Z5jDMkMJRj1VPvDo3KA4+IQa3d4/wBzKa1driXnHeZIcS8RTQdSBV5YS4HM3BqeZdfQ39F/UShr6Bad9weid2q/M1D4JEGw3HjhJjx2og8QvENfKX9uclazCvOHCyneXwF7j+pZK2gPgcomstFdg7Bw53CsrQmbMnzc1+nzNBblgdXxUt2uZiUipww8y5X3ipxu9TvX8Q21bMfE1MzmNYgdBnZVNzNrEzDmBZ3jiVqVvXeBTzucyAm5swgZQ3DFZ/8AIIVV5wrJK0MEyxrokvxGVUR2zKTx57QQpXL3mGBhNJO2MM8/JzERqxUxKWVaxzOEuuYwuNIMRcpV4iVXEKM+64Gtvv8AxGRTfNy2G13d6iBymoJtC0z6JfXftLu8SmnRyS4NxX/hxKroqp56B1fov6mMj08YZzL6LvcKspfpLxei7hmlWMQzeiNRVwbqKEtZg2T7ssRS5cGWNVyvcECH2gpHkailhhIwIoTs6O5zO8Whxkz95cedy7gYmMXtF8F8Tm44gVMNczzbgvDIJz+5heqmIq/fMAmYnDnzGOWDTUqLzjcstENKGWoBIdo/MSuqsb9Z4E7cS1CynwGPmoxGOFbPJ2qW+uzY2MXhctGR8dEN+say7/vocw9xiYBuGhVzVKF5lR1WsHeW4UsEpqbr/MJFcVLLdhhreCrRMdGAru0fbPtAlnB7YlSngviC6TUs07txDF2WzJ9r/MCvTqE0XJHACGfJhuJXRmpkPP6S7uOupLnfpvrog9OPo7w3FBucxl9BqXFYn4JipshtB0uIA6gaIlIVOheiNTB6Ra2slcYxXK5u6++cU0jMZ2MF7T5nflkas5x3jHb/AGUbqINd2NXaWUq+LYFdjtHatwGHxDfxFfTxKC+7EspDCBbyx9mSLZvRiNXKcUkQPOo+qdpgbOYiYq1EwivVMqz0mI4V+MR7xuwFKae1/wBTEUl99OfMvchWIOGI12mHcwQgtD1I6swUaZJWD8hz+pda/mFjUJGoTVfzMYvmbFXOPaWxr4Zj8NPYrL7xaCypwBX+eJaDHeXcCAGplPbmLbM3ncAULGIwzdO3ecyVzPvlTDImVVnzMMO4TiffOg9HpfXj6NdHKW8Rbmpx0JhlNy8y+tw3L+QTGd4qt53LBbZutTP2WriUL5YAaDTKmg3UoJeF7mgUVnxiGFp2izLzry/CEtKrQPXkhrQJjzY/ggmhygwJV32TSdpd7JbYDMAjAEVqLziHxdeInB3M/wCosF48XMMc3KRcU4mYyWfxC0HpAGAPMQLMLYrLGziVCFXhhbmjWHcw0wysSi/SZIgY14DmJzp+53nMbmA8xmkYoGX7RYlDygG5XTmPgACep/UZFYf5+YI28Q+Te+83GcNLF7o5vUJxQhL9X9E3taO5l+Y4FLSl4Pi7ZVX9Xie+ost80hh5l8fiYCrX2lOF7f4hXLlgI4wD3fqWOXtcLg9cRPI7EAQS4/lRl/Tf031vNS5e4sZqEDK1FLg4l3qMKmAGa32lIXYg0eNk0lahhWl5Jsw3ZEBXuISbDNg5jQ0ESYVZEetMnxj8Qq0Edetn4lXKlzC2dkLXzNHpAJ9ZgT0gxqFCYFbg8JETzamUAZD1mI8faVs+GWVm3cUKYNYnnq94xNmywh+W/ieyD3i8SnOeMC2gq5hqVYxmx3s+XzBRu0d/E8Yjk7QSubP0Z3EV4p3CyvEtsrV2LO+/EPGdTQfEHdj/ADibU3GNn338S8m69yv7nMY8wAG7LubpZ3VKm2AzMQDv/nMcybqeZfhPiLjVlULPkQ95WDhwjfsQoLheVVMVtswWVfiCtGsP1Me1UulZ7sNCpfn6MXrPx1Jz/wACXKlXKqes31Yaly2XLlwYYcTCeDVkWj7+YqTkJWFJzC33jEpPaJhIC4hziGOvNQOqe3aGb3slNrnxNldolOYl4tEPzGUyesy9JYBfMKWWnmDg3DVjcFi2T053CF7Ep8jxC+JU4b5hUNF6hgNIKsQVx9TAkTnJHd8jGlF1os8yztnK6jCMIdTVcMPOJAko4lW7olt2ms+P97yqqe34j9GKvmYX7n3lsFg4YBlVyl0syw23fMgrwY9p3caVAa38G5fj2Fh6s2t0tUyn6h88GYT1yfjzHyTVMqfuPNmu8fQfiUvt/X1/iBVnnEzp0y0BbCrVomBW9wiy5twd4AR5XTMeMrLtmKmCr8wjgrvCo8IzToQjKI8J+/3L+hbnHW5zF6DFpIy6+nSXmXNy5cGugbl88RBSdkzARgPBK0clyhRQcBNy5d5S1pzuUcMhpxDc9Taj3FmDrkJXbHJhnbDSGnwBX2f3Gu1jmlf+zMzbVxAC7Zg9YUtGWod4OcOMzBVxLdISL3hFalScu4NImjP5hZThjzCN5V96gac925ZJ/niHGFMxjwxnHEzNXKRc8Pke0VNTG5tI590ubgQZ7B8syBk8ePX+MACHIkUZYrMC2sL3ioPNZjvJgty26IJPcvbLXk/MyR8RC4MLe/xxMfXCqQ8vOcYmdnbxnlq5cuzMj3nyD3CH9FLzMSlVzMwLMgbf9llQYKUt/nMxWEBmxp+ftPWSb8w06K8YVdPIvUJrIGVV+z7S+h3tT7Q9zluc3qI8K4jgKQBHoEG/SLsF3019DUJvodHM3KjNdFSFouN/EvzFm5Z0Isr2jUL0lZkFuF3gcczCXPaKZzXEtNp4m+K1cctC/M1tDsxyq5lj7m38S3NttYTc54bJXswNwh+vslkYm+IZmN+ZWU1TijwnEN+kxteOJYO22YX/ADMMd8Rc7xMV7SgexqCwZGucRlSe5FYDDkeIrycvtCd9r8JdVqt+DfKk8pQ1se7Cy9kGnaD3Awei++ZUvMv2zj9yoeXHoStQOWiHvdHvHAoUGwvfvlgUFeGOMZxTQ95RDQ9DdVniXa4iW8A9rmo9/Ao4FetQo9AaFsvKsRN0D4G0+4whGRbbWftk+ZqS+DArYDj0/uVrvOWt9oZ4VHV4ftKmanIrZcr8j3XMSK255xAlt5qd6CHTB5n8VLVBlXCCsW+0u8QtZnkPeIapot6tfWy2aiROjSaOlw3030YMGmNosvpfRWpfJxxLNWm5qzSVnM7N7xe6epEgr8QeFl8QXMxHFLTLmJPduZVEqb9YdL5fsBhVLPmJyMS4C+NwpH3gAf64O/PaBmI9bmGZd/CVbOJWcz2pod09oVzjG4V6u/iGqsEzU4wZgi/8TB1u0oPJMO7cKC7rcOJiom4W+3x5eZyzNfF+4D9rfm5gXwkNXNtioVGt5mHALG1bAMc88IcrxwVDtPk3htmu8GrRl0ULv2j8owqe5Zjxzz83OpgT9/aO1+CORsYPsjFqpxRTjo95xkG7ByGZRKXbkcRoJTYOz7T34LVlClUS6qage39TIBcYrH+uC1GXNv8AMuPJXzDxaDeP8QRjLnmG5DPG/MWaIGg+0a/kjitDsQAoi9z+R/xelku5uJUZxNSw9Ydbgxety4MKQh7RLWdhGOEZessmCdqg4O33l3wqJRJpthuWUT+Zpg4hpivaPI5h57xSN/eH9RbrCpNcPtUuwMW2O9z1FwfBnKYtfaDsqLTKYPVs1YsvtBKvmPcH2RTe3OfVD6nZl0B31MrpVcyrrZtiA49Phv7vzEpy7UzbSaP17tQpAchsdj8y9Yr1y8nclL7aAYaa/cxcyYXVoSKNAaeBM4qgvBrGCZ0gHkKViise0Khbrzofhv2mACFpnph+uUhdzpY0y5rj17TzNVZVOA1ACUCbVqPx+YyVntqMY+8zMQXN2/Jw/CohXLNOxv8Af2lQhvBk8y9tct7ryQJKdao95VFEKlndjwlSTsLOOrzAOyJL1BL2iB1L1ENTMIbyc/l9dZ6VO82lR3Hf0JnowxKItxam0WQ6Q3Ll5RiIiFo2VUeuQ+ZSfCzzBHgfE0YjqJWpn0mNxDdpmAgCuTiLG5IAfGIN2U/z5ittKhxjD+ftNxi5dY6jX9RuZS/WLRHnvDRZSC0sByvPMzJBut+Z7MprF8TYX5E9ZUZExdwjx9tQ2Du3ErdAjHX+RjRFopcekLl2DiX2lWcL0Yhz6MziRWkuo8W7Whs9IumX/s8zQm1TjMdLlqGdWg9sBW0B2ZQjFTkvB59ZjADHaDUoRvo14943WLv7BxMQ81/851ABBgO0MMSrdwUtPUIe2Bljx376gi4XHtVzB87rDczD/K1co2zXiKSeadTNVwMmPaXUglYzE8MThppqMEvw95Wnbfl/ULqXR0aQYRc9LQ1Lg4hPM56czmOel29AzSXUuDLEJqzghpptV5d4v5FemWZITFQvC3cVsVXciFFfruY7mfFUJ3WI8raMwbHdlWtI2qWqVAXey55EBtdLHx08KrRLRnfMxPxUyo3CwlO+odDU3MDH/VA4MTmG4kBss5rU4HJ4h1TB6TG01CL3ObhLKcfGIaFladb/AIhsXnHeW7o4i+UqGv8AdpgTXrC0gOZjXO8QrRyZg7vswvDVRYq0A/DSzHyp9hTp4KjxnI+vj+UONz1P1K40XPHxChFlv4QQmsyg47DwTiVMpUEsNsiftU9xplXni6N3eOpw5pf6gCrF2ElcXHu7heh2mMa8ynFznUxMaXc/GzppS1PnMyM8Jqbphfwf3OOjqOCEvoOjLxOI6j2nECDLlzjrHotfQdKIKwjq07BhBNVDL86l1M97oZc9pofQe8R+SxlUX8GIlYRiq8HiNctyj2Zxu27hz8c9txl2ywvqnicp7SmrGJVZmNIQBEuVTYqr7QoSxoqWI6pYKMuY96QSdiX+YVVMHWDqNU65ZvR90Jc2wPb/ACgbMHYJYdCIZL1rcFoN1feOlo8IKeWHXEYOmU+9fwikXkogKnkLBMR4BUqIVNGXNkoFgKf/AKLZ9p3JT1Al2lTfe/j4lqNl18Kv7gypXxFTCuMEReDG67JYQYc8fMHA08kBig9pQ1H51qYlv4gWivhmbYE9HvLjSJwh+zKagTfU6xO01HE5idGbYtTiVLlQFEqXFmELmDmBfDFZLl1LikF2TOBt0gtpzGb9ovwSsRGlF5mTvDF8DGlc9pZXNsqXC8sqc7e0Fi24uBUAx3yL7H3nrFPv/RYRt68xhImJfwPEZd8xrK4iGb4iUGFL/cR53XEpcnMavKe1TVwd8xlYwRhXR7X/ALtH35Y2ItNwrfvP0QoCnYXue0C0Xjd6RJCdx/U9P3E8KZm8VifkpZZzTNg7drIFvYgqkBs2Vj3g2uShg80hbLCEm9tEsnOldbwdYsPWOc/EqdSszvQSZRmsykriHs40Z1BLPkHG5YKX6e0CuhXdmCZ5gTKLEuBlg9JHc+yGmP1oneWG4VY7XR9jH6lzP0LuYS5eZeermZ4mUcTJlxzLYMuFGaxviUlzxnchZlx2C7GccA1KamCUi8xCFs7RRwfeEpTnxNZywrccCcMrOHE5uphe6Y7wATZlnDVf41MSh/Fl9Yg84mseIiu2OIWC9azGaziLXMO8Zjhvcoc77winzq447Zi++Zkrzmp3LPfUTscSr71UNKZr/fmZalg8YZf4Ul4KWMy3hNoZVkxuFGdZVh0SqMsH3x7ILVc3LsqU7xcIueDo+WnvEa0FvOkH2JuhjxLddHDFZqnGoRHy58NcA581CgdpbKL6XcSaz2U/xmCKVRubvI1cwWhagLCW+IM30zEPEweOl4ejvCyrMCQmi+CeVv7oMsg3CHTUJxFicTiCd4wNTzLLnp030Is9LlwZcuDXRRvL9ivHtKwAXOpUQRIYBOVtRMzv+4gKXicA94gfLEyPcl0Zw1AucZgCiOhmal01cB/Ny3CEz3RTs8F8jH3uUlvErCbjt+QgFvaEvaO2viXnsVOTB1C2AzpmYYhmXGy6eezLk20aJkTmBuF9piawXWNn9zRCkvLg3OAbczASZbzxEUqlk18z4BU7By1FkNm0lrGH+Vm3N1jxF479orXWJb9OqCwwHcurlB50pQBLz0KN3iGMdM8A2jwpuMDzTCgqrw/ERMtinhnMBrmWCDiVQQep3iWRKZw2jqHPfpU4+jicRI4SsRjXEcsqXNfSRTwlZhhBtC8GXLjzOFi5SY4C4DZ2jAHdqb9ReveGdWWW34mbfzKVnUqd4gVkd95iXvGEeoSlde82fJiO8VLknclHGBa5Mf7zLXmcxwkShWbzKi0TxZKUfeDVm+0xl33mYuWcedM3hz6xc16pmOU578ThZrvLY1TGjbstMyuyYdy+PgQR0nicYQt9iWjsvHjmfOTvuHvBbFpa0ykpof7MfftKz1tjMCY9vvCyvzD0qsmyOfwXxBuMxoE3smTKPe4Rx0VTSxqd+YcttGotOfX1lWDsYowOpQm5U4lzUuZM9bCBx0vozjoyosy6Zls09Fx+kjLN7l9NIPMJMOlWme6jGNyqLLNMIdmJcrLtLzY7PpGzbszuUhdL2gK58wOYk3y/YT4XiYYrBB5IZ9P7wXiHh6oDT/iFz5ydu8uBXMcNmZnf3KHuMwUMmu8vtURBReZSmNStMeywQKxd6hSKS9EKHF2VBbuoXLuASzbjzZzMBSZa8+07I+sAFbBV8QfQx5x4JxNTN7SiWuyNjArT8vWWop+VlbJziK5vj/xAfLT0U4g1icwIFPRReIZnZsjTV3M1jOzzKf8AtQp2fue+EibqJB3HUMxV3q/B/f0OYzfU0zFy8y5gy7l/8C0GDHPrFoQO+nBd4zvp0AEcLJLzi2EsovvPtTcat3vMFaFzCob1heR+AnpoFSqhLWMKwK3wuvsEEr9QQXQZir/bC/lMA8w9MnpMEojkcs2F34mTEoA7y6Mm4NavtL5eE+25JmE03Gt81dS5yN9og6yR3ABNOdB+yOyJQu85iBAK1Ern3krUxPATMRj4d4QyxfHBMQipk59IwP7EL0beUj2MSrJqX0uYIs5J2JeFZlxlgsO8Fe3QkjfMTnvLrL0RlXNMwm+Wdjf7y25qXGHrCObnF9DlfRr/AIV1ucPSueoNT1QylyvzCfaC/FL8MfdZYL4+oxM2y/ZC7754laAZlHZyTTmeSl1E4Mx2IotMXb2r7V7yvsIFe085crazi4zt+B4Kgb7x8TG48XeNMol9lSwbrXxMCq9RYTTLZq3KbbNcRg7Fb2heJkTXMV7FPFx1wOTKEOVsFwrzFrXeUathqNOUX2QR9PL1l7PdMG/MdcnlMisqYwDle1zDyhY9y0+cSgoTjgU/MwuhcymqKN1M/uPuRF5dQUeZwS6lnu8BcYoV4hh9ybRjh3gpUG5U2j3EfGH2m2OGDc313Lg94tOJoRSv+O+oi5cuX0XCBzHYeY8nmrhGpXmKUss59amgRfmY7B4iBzGBzmsQ8EteYsawztTCrJsfDcdt+7z+CCXlwS4O6zmZWA/5OImVVNp2y45ReL+8ve8RYVzuV5JsM5lBScahWeEwUK5BhI06xEpou+8x6xMxo7MLazUXMWjUTPb7fnPZlWklQorXxEOlqsvwwB4Cw7bla3k3mWYqFv1htreXF4zf9R5gGzEAhhcwVTqE4Hwbj6MCAl5vvCVUG64qVyeZ3Mv4l3E9BHB4qaiNALuLRnBbAFaVjoYVRWTIhAZwD4ATUx0aPW6mIIVz9Opf1M4QynMR0XXQdYp6MgwAOdzwHxBgF9mYmrh01lqDENhzUqxqYRTbxKG9w12n+uV7Yhvld+xb7Q4rAZgS8tc1Lvbj0xzLsXSvtb7qLGMMx2+JgKcstz7xqP5mB8+8NHRC5n7TECDYtwd4WtfDKf0SmTTn0iHJhRhSBC9wBhNTdBxudMC2rFo44i0TQhmG76wpuj8sLiwj4JhV1WpamveNvk7zJsmVFw4D/vJxxAfDo5gXimT1HiDUPRDxzDTvmfyHaWvCjT3jntfaDvB5EsT8cy3mIaSrwwE5vwwWhKAdNsbRdIPRlC7XoS76h/0fpuXno2lwwh0CCQ7YfzLq9HEoVwlXm8Pe47QLW88f+zFbGUpZSN3uFh2kwHMAb5jArxmUPtWeaZp9oWMqltXaLBWy0eIe7CPb+IUBsfcofkZs9zE84zCwFyiv/UC7QwV7S6J5WVIs1ahiF36R9A3KODxDK9zmFTbnUcvJfeNQjw5cCAChk8mVCFTfsPT39NYjGNJeq0SmlA9524FM1m7jVF9pnzAXy2kOfWA1e9o+0VQXzWPiGlt46iOVUdssLGJ9Gtkp5TvffvLrOZdCsd2HK9PEdR3EslnEx6fKVGxDEPiFftFtx9BuXLi30Kl6db6X9dy4bgy4RcuXFUEhUTiU3q34lhq7KLmoYPMdFNUThuyhr3jDziPIa8T9ObFNTL0JfogMa1lv5mMVYK+CJSrt8O7s/wBz1yU1v4zcFjkdPyLLRBpHvM/+ZcjvzNiD39oOC5nvjzMMPSDaWVmpjfxKrwg4vLEFtHiYgc3d1CKYBEDULQZXChPyvlKETdFG2ZnOxcL1iGK5Z+YACtQfaOt8supdW0idoAEE4B9vWHYFbVvH9SmqiZMEvHJ+YiK7hn7qwVAzdUOTPaNva+m/aEomoBqA4ySvXAZMy6ZQZUZhMy4/JBsm4RYagzLn/pxOP+NdX6a6nW0Jr0ZQ+iSFh2tp+yNQWCEcbs59ZhSiY/M5fiWRiW0THOY5n7Ti3Asyv23sTeOkysJy2jte/ogUnaphmqg+3RqyeuOqiLIg716uXyuJRiBaxl27gwsYgaXUsJTLJ2gtLdc3LsPPENC2WYLeNxe4p/PMZz+8qcaahosWfvFPoncI6Jj/ADlBT3jroWCYQ+nevMW/s5Q1ZvmZwbhqncwXEYEwNTS5acQ2irUntD2gh45Hu90JNT2jprJ/p2S5C2sGV2YrIZxA9cefEvhWZ7hClagZuZqBaezLwDDPHolayaY9D7pZHa/b9f8AK8V0Pq1Lm+Jce8uXCBuX9AG4N3LjaWVapO94/uXk1oeOYVqyGWv95lYNa7Ga2g3LnDo1BpfPEo1QPMokeRi4saqvwEbtWRzP3AoCE6gZoxfWkbcS6Y+xUw4Cn1lIueX7IuWLTichmbvKW9pQx9I12lgFajkDJFouGu8zFtO0ayrIgcYqOjoj2S237E7xjPGu3aMtb4Cj8EYC9oe59tw3DAZqFZ6fqVtXiO3oqPdqxqPoQU3o2xPez7n6SbBpNRFwlMxFTcv9WHMSuentAjsxfaoW9ZqKwuO8p3YOPaB9BqbSrSpWZs52TYzsAh3wOpM6mLaUSul/9L6cRxCNGd5caReq+l9BdBiy87o15oiq2YTs7QWpWIUxR8sXaLFG0IqV9zHl1dzAsg88e6XyNr9EzBMkbYQucHpoCJnkx36ykozDsN1qVght394NMWXu4/Ev27lV8R7EBcyhwtDKc3mDlay6uUorvcuZN8wFDj2xEJdiahrvKCIdoQQPECsOS25+yX7vVFRQ3Q6v7RLlpst32a/cwr5mCn3TGrBctrSLLj0ho3ghrjkDxF4Yprvz+plVOfSZA5F+f1KP5S3BPE1DJGmN2ywXgsfmCKvTvM47SgcyPOI3rcuOfxFiFi42iIC/JNv2V+KguFjKFPKdyyDEjdsW+7/HTmH019V3010S4mYcomYkavqmHVuX0uEXLI6GdkxL0NZbheFB3Jq9vrEl4fciOwXLzcbCgbO0Ivs9zHYctsSH8R6rHqZAC8Mpky1ctYajVf2hYR5MdODqLgm1TCdho/EbeBHNnEUGmXTcLXXfozYoeO0oeKiPmsRNFxHuXXYMl01ZO4/csycueJmysd1CUc4L4QI7XKDB14Q2GBnI5zLCBpWLqu0dGVKe/wCly8IwZE/uDuu+zmWxxXfkl6nl6xegYh7IGGrv2mQdmXl5K7x1suWYF+yBOQh9osxpBB55uM+46qBCyVgLyJ3GOrOeU5uUVFbhqY3tfk/v6GDf1XG+mo7l8QczJj2dHMbQpFlwZfQ6ot0uKTuo9b/gipsy9px0b/z/AGIgBtZs3N+Vaolwi7O93+8K4p5WRms4altbvUyTfh2xuwcrqO52jVLd42WzHJ1La1Gu/mf5D3lBI5z1YahfebzYnDK2VFbiDHySyFqTMty+nYl37Eq+Z/NfuX23ccy3rNzDHz/6meYx3hopAHAKlYLt7Tu6gDVesowc4Ce4/wB7x33zmY2npFpeQWUZZGUSOZdQGlJBx+yRUs6jvEa4UjfS+53uIbJiXOCX0eGShNA5A++ZSiCZ5sFy9Uy+dvsYi9d9DpdfQGDFqXcuEXUxOJpDcZfQ3Lgy5noQly7vL/c6DIEtwxEzzrcwTV2vBO7Fasr/ALMqV7uYZrwnUZaKJl3LA8zN6viPOCKCk1AokKveq5qLGY3B+MQSaTul18S7m3mXzNLzFcFa8wC8Sw9pgleOO88iRVvCBqIuTshOG74gbj/inpCo7MXKq8xtJ8yguD7+OnAnf+INtpbdo6E4+0tQ/aNGNLmaaP8A2ZYaSvmWrxozEvE0R+Nwf1F5Kn+YwPbT2ZiTV5h3QyrjoypKTeZafcmaYyjvW4R8wd0Sjc8xL9+mpn6AqbehLm3QhiJUNS+pK6OutcvzLlwZcGX0EsgAz6X+pX1uJgEYv9S/mF3sl9iPeIPBi9Qv34svsP7iGhFUlsLe+JpXwN2MNg9lEM8x2csdPpI5fVZr5g2ixn3SwLoTGmrh+YrgwkW3BCXcGo63FG0tTN4dEYRljw3hZki9h9v7g2t5hxdODyyjpLE8sLMPiUkKoQ2Yg09ZSjcwUG2GU7moF6zmUJan79KLXtmXcirIAdnMtL0TBeWGtzBBoa7B5jA6DZU+2XbSnmqcz1lCXKlVC5h/GPBaZaCGO04EftLsw6XLiy+i7YQTEvoy4tziP0VNxZcHMuD9VwEFC58XmURedwVwd4jkK4vbNoW+yNVt1GNMDy59vUg01QHR+tQTQGRv+XzMPFilfLT7DNxCOh47v+xOx6CogopijiaeWJCa1MAtNN/x7wN9lnHEprba9D+4sHMwOkNvggVqdrbDLLGVaZxNpW4+cK4PKZ2G3nuwfuNZTn0cfqIx/tICNgp28va/Uj0s2jEcxEwZh/VjhVQeglt/TEezux1ndLmHPgcPzE4QmqfN/aeOmNgn37Qqt7y4clVAFIu+myYZ42UtpVa/zLlduypmeKlTY+JRXzDSdAmUlZsH4f75iwhwj79DC6xnfv8AaYdNzmYgTZM9pucw300S7INTiOIsZzLJcvvBuL0GXL+gGUs6KIsrjMBfbf2nM44lOmW/R5X2+0Usia7aykdxb6+YBgLq2vaobcXxCsFqIaunfzAej27ShD4iE/ECsjW3aYWA1RAqa/gjiTa5oQwEGoC4YzLGmIuYx7pQMF66ipVgXRuqYtFNLZt5fqYdNgqX/XEM9tXLKxtOXPvDsqpml1Qp8+0/89CX8otszWc3NQ3D9cIUbg7Dz6QS+5UM1yTDidj/AHpPLjEOA1RAyqZ7O+kvdvD7MUMIZ8neYI8sp4OxjpJlMnjoQGftMZPBwT3gfJf7nJNYCvu/8hiN1OIy+jHXQ3Mx1GPV11vMqViOpf1DLlwYZTSPlO6y3uGo4LVTU27Xwz2MS933qZt8RwC4+WGBt4+OJ2iMdm4WKqwzzNj7IplfpcPco2C956Yi/LQd7hR4FAcxuLYMEXXuDD+p5ONT7J7dhf3Y0fbbTvKxyjeGsbMa83KnmYbjjdTkZayz07o/+zMDKPvNjp3LTAALejHau370QkXiNUF2QvsgDtd8wUYJq7jWmEAPpcrmDMvLqAdjccsBZFLhPMeMsyY4neb4lZU7w3FMmvvAUNAfYbiqaGfyP9y2rgY8949Lh4l33Y63k7x0R7lmGEQOT4/195ybBjQZblxcTXQlQuo6lQlQl10B01Ns5jKn5jqVH6bly4Z63LxDV6/ulD7S0nIhT0n3tlFTyOCIbLH/AKjlnuN4mFhjOeY6pxsIIo0OKeIoWz65miUMxjxykpSnC2o0Tu7cSppfrLBrHiOJWZaICpGWaRY5O3tKsJPCURu8YLOZWFJ4p1ZPxFbBo4fBLLtsCtkssCi8xhtdUufiDETVdeYnVdBR2KIhw+OAfaArCMcItTqf+/Tb6zHZztC0YjvMejcdTvxDKFDVPtFXhHOLSstqY0GZgqvdjMJTUNBk/dLdcKzGb3nO9px+vvN+qchBxczgA1UqXuYq/eoLEHbl+JpGViVZNYhBuPXmVTE67etVNTKXmcxZeIy/mEv6Lly4Mq3FqjJFujtcblZZWDiLX2nwEwzAmSHZuGEq6GcTYBd+0am6tH/ekSqVnhlSJM1QbiVn6JgeaG6gNoFhsnpNjYwRzQNCNA4OTocCFdpQVdgqZ9mZy2vAHhTc5YnmB3MQSreBC09u1BORi7Mzyy5VrmsrBTslNr4B3JgBHK6XzN13FtvRggd+YVxN2hhW2jnMrE7hc3R6gmNoXmNbPJjK8MU0hlI/EPFjUyHU0LmpTBFvGxbpV74uHZu8XC7rEoXZWZaO8Oe0IOzI8zUHmeR7PiBSGqaTAXtM4+0BZoI1gOequRPzFMyK9OOtxinfTwQhwy7ldHpqX09emyVNx3GPZFTLtg2/UOrG7VkzQcbuczOEnaGpTuC+swu68Rslv1xLZWF1nMGytdxbB5qyVBYsIvvmlXdkM7CTmR8j3iKkyWEy0LwEts2xlm/dneXe8AGuO+Jfz+qL16EFTu9opB2sgNoAM45N/EWi0/hN9GMfhHSBFykqK91QoAMDRLwM528uDLsu5vfoXqGN4Y/uJtDJhSvD9pRNkfXw7S5n2TCC3wPtAgZXMuMviY74QaFudwynRzjMLtnWntLNMZDOICcnMyKd8xPcnHhwuNLR7zzMGWngh1+JZt0cahsOjFPEGFG+TmIyoIXlx+5qNk/72gYlwh0vHS+q6m5cu4dL6GdpcvPQeg4jT0Ny8wWzj67pA8onaX9+Lc9bmVsUvWGLNLmeT5smawc37XC757MbF3tBOLpRYQa1dxE5pItqXBaHi4bcbx4Ey70aI7ZOcXU7xK00e3vBe4mQ0TPkqt6vN59oNTb/ABJpEjc9W2d5iYOB39r94tbXom4K37y080uphjfyDUB9qBASGooziJYVQIszFnc80CoxOsA1mbs7tGb4WQGrjZBoxKJxmpUODHcPw11+Ejta4ZhlcbHw7cz2o1H8TSPa5u8nlmNvLYujsrbjutVplHDEpHC7zKk2x3+kDPkucx2w9j+pU0Ih83V/a5VE46VfXjodL6bhCDx9FTE9JXQwTD1DMQfqZqajwIRS0ljCZicW6D3TAIZH1mBeXpKFvE8g8kELY4j0MrphQ8+85eHreuYaZ1b+2WC7YR5obHzKYM4gtleXiX7DUVYcd17EpE7Q+c7H7cRH1XE3eY7VvIHpHtzuMSqqKnEvCsxb1vhM3UF4yQd6hDhxeYC8XxGGqFc9RJqCaPsoavFMJ2S5fxMVKDm2JAteYaplV295gCsRyO+pc4OpVaoMBuUDGTfC8/ro2sX2mNXBPSGoOp/aWgBZiHginWJRY7KgZd56sXHj8Aj2izMZp1XpddF8S6ly25fS8dHEucTU2/QnvE3sgO5KPJCzZDuTzSspLJTqNpi8J7S7prX2IhRnviGW4d2TNHsiXl2ZncJOMWmC34mJGfMQHoMQLpz/AJ4JZwzWfEqnpMzLN1Kr3yKlm19I+PnkFXdmBK7MsAeDPrLrH0h3TBFlCyzCtfxFWjgHaEVPtMEUYCcwoA0y+8Vr0SnJdJOCHtKgXMSBiXsM4jsMc+oztFJm/IiWhd2xHUCFRc7medkwl4fqVyxlnFrHfuSq5do5Yy8TK+0sc/EIvWNq/qlAI4YKtroMZjV0QIDTtX7IrTatvTU1Lly+rDHUvPTMN9HU439N9cOPxKt/ZDlEd340H+qnlfbD+F4f0iCblCzimpl8AeIXXnggNrDtOMrjapzFn2jhYue0R9VnK4juGzmZ6XfrKOkbRUWqcP6o6TPeiwFwakr2GzkX5vPiMqUlkw9q5lSeCVGGhO8ZO2chLhCoRscROsiBYfWd0YvahhAKg5Hh7Q5zAynsERR2QAFug9pqmLAzUv1fGuYJ29/KOhe1P8yoyp3/ALzvRqv9uD5LfhBAx9kDKiXxT2l4FI6tkWVDX2XmASZIViO9NMyBq2UE1K7jl4lUBB0CIiJ9nMxMtBgfMo/y/Me7+5/MS/oh/wBUV/z43fuSjcLkH7onsfVyvZe0qtksuWMuG+h0XozX0X0/3UQ/8gYPpnCRDiZgjmUcsO5KeYBzGR7hmsRlmSclsoO/pMfw/hMd6KiN/MWgJS9kuKYdKZ6x/RqVo1PihaILo15b/Es03a9p8VLw7zsDFTEn0lBFxc5mVaQqPnfiJr6QLMj0npyZ7LOZugTsN6G86x7S9AcLxGW2XUzQbgg5kgDzzKYaZJUNNYfEF7s0yoQci56C1iILMMwlXkdrhi4gjSnD8TBvM30sjzUpvNYxKFdtuCWzxZWJeYH/ACtlyrn2wBmxPtmzL1P4QXN+aEuP+wO5i/Jpj5l/8v/aAAwDAQACAAMAAAAQyh1M1wiNgrfR9HQZaILuT5f3D/RxDlRR1dtVVR80s9Zd93f5d9OBP2t+sLMN9hRBD90H+SUszIcpbhB9nZdZtxF+p4N40ld5V9n7Kk1oZRZyvttvuYfCyvmKpPZN5poP3xD9skdIoF0w0wJq91t3lbpIEx5h6lgHnlJ3RfDoPQLF0IlmbZr99pswccdJ0Yl8U5N1Ftd96P69FAeOPTfNdhr0OnLb6zEPirX3BHSjXAkdo0l19t14RlF33vcOUOXBHbYbj7zW13feZzC/dZ3oV3Z9QjOl1cco0lEMUh1FxJvb43wPAt8lAZ3LJvKmUHfTJEpmxH++JHYo5W4V8kplQh9o5Fd/f5cd4p9sZzdXjJrAdXScjIJqxLKj5CPACV4hcwFMMJdMswkJPtZ7BCQ3n3wFLxXnWJYzk0Z1Fm69sSzjJKdTL4khBoltdUh8d91fZz0UQq6JoxU9hb/jGn45ortdLOCX73kPTU4HDwkgN50Zdp997dRfW3T04NBtjVLjXlvv1uPnq8z3wr+Ac8LWXVcoURsZ9Zyxx1Z9tN2RuocA9R9ThGiCKS19gDp3JBfWMiJgj5+TKIYUFRdFVvJx15p96drlEqQmTjnfDTtDjQBs3C9LLylDkBmzX4SYlY4It9p5fxbvbnLVSKe/Ml8LN3fK3ufuACoHkTC/h4aTx97V/VQ9J8B1QdtVd9zxPOH6o0HNFl73hWeuZfpPbWeU8XmqSKU7y0Gn5otFZ9pBpN1ftzHm+6Ozq0UoBdAnc8aZSsC8ziQlUuFAsBFrKu0pdtJ5B1xBpzVO1ukz2yum/wDCTJlQdxVALarZnVLmHtkYreK30HSXaQfXf6+WZxKnijL/AIf/ACLWuOftRTNHiETtYexFSPL8FimkcPV99JFN9xElTn3nJyVq6emQ4NK8PGa5Ozo7Upu3aau1DiwVU0UtbNFJ9fxbyljr6GfFPN+EDYwRLxUIT7glDEV7NJxqZPshz5SS9uxCL3/95pP4XtSmgguE7LkJMu2DwYUcH6HNL7b9qkE9KqDKADkEO9whlDFx7YebH+xQW/KzxKnnfdJmFO/nKECh9Zc5y07sdA7ZNo3x6qXNfFBX/KUopKP2YH+0Mfwp9A6VgBSOs8005hOYu2eOpLu7MMArvlz5dOxy1pobJkSV6J0qwm5zqHRk5o5pvAUTpYPI0XTfWRIO4E5bN0cFi/NtDfKcXaGgDQrMF/HMH7bdLTxN7zrWY/XpKwHFIvtBv1lo6/uxaSEilm9MeB7YUPbw77mVj5nuycnyonQuRix45ckavbpD7Om96gsntdj6JJ7ET1jCW7R6xQCUPIPvM9q+r5asv7jV+r0sYUPmWIkVmvLYFKJtZ5qgtuxo+QdkLiAbGtA2X3j6/G4XubJ2oykmUTMUOpd/0anZLy1mzK0/zrWx/eBPxVHFvOffVE3+26BBuouY8MNmd1d1hhDHUaXAImjabV+ebfDhQqR67/hBtmUcst/fhPXadC5UAwFddZ/QBPK7HtMHJbqRDOUmT3sIWWP4kc7hhEHco6PePHbT4Yt3ZdtQTc/CxUg3ILg6CBfbNNnZ8fvuBnMWOPgq4b4ZKna+wrVJ59hGrbQrR4LoT3iPeaLt3wR6gpDcHDg4O8uaD4kOr5GsmmVR/wD0blfD0ZTkn9Eh+f2YzpolrBAtawbByN03SdsNDs5i1UauZa1iT05P6DiC88dGMTaoU7LoINYUKrIEsQNbpikntQ//AH6P93gRUGQuc5w3sw8JjLWxJKAIUUeyCUXudmGroIhQn6WIONm8JOycNw8iyx01nhrhTCA3dTExkMfxd9Xb38vgPdddLiPJrV5Qw/rvAxkFm3UNnGIYZAqj8XLcYcsd1woj11mQzunKuT4HPWvT/wDuJDO0U/8A3wvrlw7raAPPf6l8oYip60UfFtTyH7iW3GZd3mwEXzzn4jOH4Fwb+qpk0NcHf+P9hu0+w9S2y+QNxUKy1Mko4T+O4C+BkcTTjqX3mWrIKfTfbfadf+EAA84X0I4A+loBHZp25Obm4um1XGwT0qBSmjq9XIDHTe2WU7ZfDx7NfD68ZQaiUo/apOjrje3dMKo5kDSg9CLjP0ecdfWSSUc4dCQUMu6XVDCnL7R64xSZIFpoQcryfpoeoKy56OR3208z4/l298BWVePX3E0Kv+R6LAnsTGNaoJ2YFA324zH6SCsHJ0Om+qSoTqFRf0f882o1305GZWZUxleXY4rrORwXHhIoVEfa4Gt1j3S4hG8qX23EZ/gppko6aUlcFaer2laa8JLkqss8SqywUr5N5jw8VwzWmjRBwic2rkTZcFaOZGyMFyqYGAq2uN5VVY0IQrYQCSFsLubycEspDJNw5au2/EZuzpWJwqNC83mNp/ybpqLn5HoOcAYZF/y0/wBwuu3QxgD4NHPv8HrUIuEvAiszYLsB4nLgcgN7ReZ7LuJReffTHoerQCWgN/5d9GnREIRVEYdUPMij8hg0mL5QXqccKy1W9OFHDUVdzDhECvX/xAApEQADAAICAgICAgIDAQEAAAAAAREhMRBBIFFhcTCBsfCRocHR4UDx/9oACAEDAQE/EHyuPvlmfKETEvYiYyJf/Ah8rHPXmz4Niwb4bGzI8ecgseGuKX8C5vD8NF5on4P2Ip98ZXD/AAQvo1g+uD1zclp9mPFipeEzL8lsfm9CJzkfHXlkz0fY3xoYwWjROzRsWHUb1y/DXKJxoWR+b4vNyUvn+y0dOz64onQuLEbPogqh5NDyzK47/DPNmxk8bxOV4dcaLxpkyRkF7NZRpcb4Q1BeC8L+B8M2Lhko149DQ6h7zwl2V3wqdj5WSU+CilGQ2uMiwO+KYnxDHg+Hx0T8FEPNHqiNuIShsbA3jQ54yGuG9j+OEbHOuMvLPD3xoV84RCnKXhePvhZ4aM0xaWC5HYW1BPxBvIZgQhjSsMdj0NPfGlxhz88d8z8MNcTl++LfDHH0bwJOpCVIggJNFMCeiRCWcG0JnOxJlTYTA8YLw9DwLY+EMmeF4LyYh7GK+a5tMs/3kLQXciVwxqtlAxdTLJpH0A1qkMdJCn3QxQNQZvjsfC4vhfwMXhPKEYlBMgtBYEMZl+i20dcZ9DJUiKqyW0LyQmJY3BvTvj5MD1zoeuEvxMRMnvhDJyueydHZ+pQqDbFhGRzU6Fn0NpFNYHnj02ZaPJCRl5BVYlo2nhMcso/B/gRrHGxcaJ4IQsC9DGxiTyiIKNyJ8DMhDcJGgb6SkIq1N3/cComYZDR+hjexqsxps4oa2E9jWNyh+D5Q/KjXE78Ps7GNPlGhZFKQv5ZFaxkWBvuNaWzNQijCQKJK1PvQ4I8Mq8CMStOlkRBGnbobAjPiVf8AIjYsMfF4fK/Bed8LPMQ+V8jTsah+iHm/liHniwmY/ojLdaE0aEp4F1Yxi4g039f4EYDuvpjHRta/f/g1r98/Q9ix+Xsy4WSmHzsY0MkyNBoG4UXseKvlmIVJC9BXRjlJL5V/yMHsFlmPBKgqdG2LT4Oz9l+ghOhL2UY/y002Lj5PRoR88UngNm8mxsy4YWEavySlWN3ZRzpgizui23WCwmzsyiRpF7PSEbtFsymWG5pTZv8ACxO+F2dl4Qsj+CoQlHjJs6Na4I2RZ2JQwAVKkNZUNKE+4YdiffoaYbIOYxJ/4FLTldrv7I0iIeoSrGjJjyphAmCPwH4JodyNC5TLkRTGNkTFw+C3RYc4pDNhJSQ2o2r8jrA/2yyJn7/7HD0IVPofj4GrBDGfoBk4aGmajEaRUhuhVILh8RplcP8AAuJtnY9UehLh83g+QhOCfHZvAlgGi6GJ4GKmyRWK3bChIwxWzIS8DFtsapMSRvR9YJDZQ3cTQftm6KRJGOCOiRGxun5vRpjykXfCfRouRrBCkx5Q6fZcE7Ymy2fANpLCHGuDd2YMzhLCZrsQ8GNFti5XCWUJl9jvOwswsNaWvosGlD1mNg0L7FMhKFmBLsWENzKE6vLLS4dH1wi5FwkNhGLCdtMSeGxTcYmJlrHWJxFnChCdMwili4FtJj1H6EY8mbky1r1w6VDSBKxYNEaCYG4NtojoQ3MFex6eGTaYxdFo3SdC5kfGgPNo5ytC0D6E8G2LRYoPGR5bhsHsbhg7w2wLVJDnbBoRNRi2bo3TNDAmYR7HSK5CQsg0iG0qQSzeC3z2UqUG6imjovY0bIUo1H8ih8iKVCbOxBwgT56G2LOBehpUX61ItkLLHNNIShCExKjtCBqzJBuwuAVmHeRA1SEuXviiGrXg0PuE4tyTjaEMhpFG52NGKNCRlz9oScJOG10N0UTN5MdDr7aIqmI8jGplZsWxqk6Z3B62NmFbNuA0UFlQQqR2MyVGWaNSFk7G4Nzi8dTlELxizHmJHsjEZlVJKh7ohKnxEvY1B1ZFlFZbB2S/gUvWxoEFwkY/YjVsJ1ENFDR2ZKYlFnROmCTspuCYzcWNibMtEbPrymR8U2m8HsFngc0IZ+oGNWJ7GzgT64wJIeUbPSL/AJOhlAobRJj0+p7EDVI6BvXxfuxzwgWGU2g/Qh8a8rRInB6s9BELMDKRjLDGk2NUJx4EHAmJovYn6HjJZoYgYlLue/sWoxOMwPlDVmhnQUNWkPkkkh4qOZIacH4uTJoTgnC+aFsb9FYngh+wrqaFlOxIhW5HAgUqWCoTMZpjeOBbhVw0awhcSeI/2IUDzl4EOpHsMFkJND5yMkiGUEgnBqZPoXKPrzhDo2hLho0/YnVCKJjz0fA6MCYEax/ehOMas6wJzJTI26PYnHSFJ/cIfazE2dMk6ZDTyRX1b0MacobI3aIDohWtiZMBMK8IRq/B0VD9mS3RlFEQTESeRxZRkWiYHWk2I2x4wdYKWF7E8GTCCRTMVl0PXSeiFwQpWa+z2IbcZ4G1rNRr01/2hPKE3aIzi95H6oq3kqIImOMl8pgeEJpYH64qYlB7hE8if7DbyRU8ip8WnCPngcjrQ3HZ0PGC5gmz6ExvR1nz/Jq3x/yJAzZf+h1oEdKBf0diNYP/AEV7hY+0NQkJ/wBg3X9hmygl0xI2SllnUhtLIuLykTjXFLjBZka7N7IKooJDZaGjZLklWDI8sQlEbG6KQWRKx7rELReh/I+j/Q/5HHnKq+oJxU5tDmWf+qYKgoRhU8x6Fr/kVM2ZZDL9ipjtBUYtSETd8S8MfwWcXjRYVMSud62QnBNM2MkKsbzS2XsJ44Vo8DyK7Exao8oJWjUNtGW11D/yPW2/eBJ1f7IQi6rb1/2PRxjo/Ik+hmfsRYxkWjImtmGgrOzlca4bQvnm0nEo10ZmmLvBJjXbNit6P6roYbhoTPC3gbAsqNr18fQlEdM1H+nILQ7eB0//AGYx7HxSKGCCCRiYXy0Y1C+hIhTR8jZa4dG88shkaHSog7QmYptYGkM9DNNCpqRoJlKOxHyGi8LGhh0IdMS4/Q1t0f49L0XimhuRo9BKJBPIlYyeBKLBWVlwPCGLGfGNDaKJprJBc0Q0ZE5gtG9iTSrFrpfH8IWpPvRYhuhOjXwNxmWBNrAtB9Bo6+eHzYtwpmx0LOS5FkcF3LA8AeMTp8lXQtfFZ9G8HwPJ9eNfY36KiehtowscGmkzAocUg2tsZt7LaZ2glOBJC5K3xRzae2P+Q0hHQQdKl1GMjlKmsDpxcOIQ8oSYaj14VzryvRDehplZk0zQ640qNDy4hq2yH2HDISIi1sxhkmzHaNAi57YziD5/Y2eh6E+ommoXpdCaSozFo2ojYKMa9FuDZ/kiYhGhNoqex5BsbglMkmh0oNPSHEopArINVQ7rNlo8IzUVBZv4Ha+Q+WPY2UOYz/oUPGR3QfZjTo9GEh0NpZYl6MQawLi/kor0NtbFGSiRTMHCx0bZg28GB6hGJexuzskGGsEHRlf0/wCBEPbFi/rsesGhmSHgaUMQ+mbyhpLgpB4rNIxn8kYDqfkPsaMgqZCNZHNWPoh+2JGoNplmiNBKdgkD1BrhnyNj9C5b+/4KafQWWQSrNELKgjVTQghaGIUgn6x6MnAavFInhghk4KiioZJihm3BIsjjeBSQInA2bnYhrhqbHoho/oPr/njByaKWCZajYVaoihDE0Kk4J0RMkx2LZ+4LEJxjfEFoRRNmeKXiEKOhHghQI8BNLBliEqTsSmcNG8k6GhmEf3+4G6lhRrbbKNPswlGqaNCyYIeMwZ6T3FGhzTvtiyosrjs+xQvCYykIQnFExsc5hK1D4bEosQmNpqGyNmTwYHkzsaY9ibS17M8nZC2PSiGpZgF+zR6EEJiFnszY+CCUEifYSs0WlbLebxvPH3xc8bIQhSZnaFE87NOsSuhUwzF2CbaImU8l2HsZA6DWZsyQsubIbMmiJMlS4wXBpXKF7GJgGrglLMREiCTtsWIXyfXEF8DE4vHZKy4gk5g96Y2KODvRJgxcFFRtcCEwj8RK6h/DMshLEXYi/sZaTzRywieux39cDr0PGxCyxMVYztDGqxuCJKJWhIkF0ExQjV6SFkVWBMbjwMWmXwvGzRhi9eHtBFQFZk0EL2YqDxgaSQkuLbNwiGhMhitTspli90JmNH/AM90V2sfsJSCHkSIj3GQWRJ1Gw4ezZsr4z5piyRE4QgxMJJIbio85E2h5kWqIij4GUEJJ6+xVzQq2IS70jUq9Cimx3TsnuQkdHxlNoo0JtoM4YqnQLFwlhQpeKUv4P//EACkRAAMAAgICAgEEAwEBAQAAAAABESExEEFRYSBxMECBsfCRodHB4fH/2gAIAQIBAT8QNca4vKg0heDC4nwfFGy8UYfCUHeOK7gV7/Rr4J87J5EqJLXD1wuKb+KrNiBCC3y0LXyf5doPHx0KErFo0IfDOiXmCXDPA3mlwVk7MmynWfyP5rybvxfFXBQTfF4xwuPriFZsU5dkE2W/pVehMpr49iTITPOifFPiETPol4THxno8F/Rk5w2uN8SEjG/Qmqd3h4+DyJ8M+h5FeENib7NkNFykb/RmbMJ82CEzY8Ll742IZSjEYXE4ueO+PoRTWf0KLedFgxiE3oTL1x9j4TMCUITYFlTE6UsE+ioa8GRMZfAijeP0Kq0dcM7F4Q2+FBLZM5MD4ZsXFbQhMQ2zRbIbYm2N6YmKplnKZCL0Xl6/Qr1y/hvJotQ/XDvGeLMjF4GaLGUylkTMtmW1MiiSEomC0xaZeeFgzs0JCyLP6D2+bXCIx28Ploz9MbkOawNXgTCKMUiwZ6yHkaLkSUYs5sZImKt8wQvwX8C+cNF7M6+NGjhg8ylgw7YnHwdsVYYsTZA20pTkd+EJhUiERo74n5rk2Ll/BNmeKjXN74vjGPoWc9Q1KpE6HbEoy8mANqhKzFYVNRj04XZE4N5HsRfzLY+d/PZTBn4SC5hFQTq0KshOkfYk7QmVtzH5PDGJ2sgsGgGiNZMTER9CEoMkZcfmyY/EvZciaps3y1RehuGGTpoeqkGkkM2VDzzjS9jdoxMjU8y6GeyEMcaKM0aEL8Ud4Rc5INfg0bYujyHjQm6KCvZbX0N0aWzogm+yqnsgxYMY7wQQVoJiX9wfXYQU73+wtCaQ9HkRp+FvhrJ2K4E+zw4f4GNgboToVbJwlZ+jJLohvJLdI1BRuv0MtiGENQuK20higNeZ6I8rMiY/Aayzv8Ox5Ee0ZlKjA98L53yxItCRCzhWz/CDrcRNiMhTEbh4GtXsn2OSo9rAxhUm2EivZ6VxTMfcVaEdC/Fh7OsGzPC3wnFjh44jEzcQpZIaKdjZBaMdBDWmjJsoo2LqEqrm1RN3BjEqxWhOViiQzG8T6/4ItnWIGCgoNFaRIjbN8NtEvKMiq2LI9C6P2N44WxmMFyeiCTbgvg+ERQZ7ELAUN9lLSCoIqUaFU8ieUsjppNDW5F2PSkieDRoMjRD4JdiO0a4KLPB7PBBNDcN4IglRajwb418F4YnghQs6HjBD2dHQ1BvQJOCWoxaqQs6QmFMjJtpDJiwQx4MJ0/gqjRfJYEHsolUMMiKxeDCSRDNmSo6JMeB9sqLXGT0bNvJM4KOzha4aINcMZASqp2do2yrrI1RPISemxU8iCXXHDTpiarZ3Ds9wY9R06RQpELmUIq779vsSqEwCxFxWyGUWijG5g2xDNFiFjBUNVmOVx1CcPhcti4EY1tDSZokSg/I0QUJwolGbQ82PmNiFEfd5H9ucEHF4gwuw0Q1FrFTGzwiSseMs2oy0hsrSKdiw4xuu8P4p5gnuG+NgTjopZ0NJh2HgIY4gqJkwngwD1bmdcJYxgFLJoxnEPJrs0CCpLA2YzAGOIeSSsbrpG1Y3iLXHRHg6wQl2QnyYnCkQsSXog8D9DGquhu+jTEJwhJU0xMCHkTO8DSHQsiky2NZhotqjw8DoJIWCWRmR8KXQeYDXgZa04h5L2YPsV+GuEMueKxZglEvQ1UJtMTxRrD0xuIPKH4NCZGs4Ox6Mn0MY1kdoYoNDS0NzZ0JY/a4ixFxjJEnBzQ8ZEmxjdBIxrjpmjWScwl5WB7hOc0QqPcCEeJhEWxnQ1xrRsTrE00YMjdArGfY9bkOStGBqLOB6E6IdNDUC2xapgSR9wYIhqG7sbdESV4Q6KPjAvhBnZhRVGGaSQeFRhMiTUMTLZBfkWRA12JgaUEhYK3gVTgsbEdgv4NaPBSE4yyope5aGgTLZaMWELD9iyLzHKGQ8i4XwXL4hDWCAjJUaEuAv7h0lFMvoQ0mNCWBpDTJGIlFoswNbGHr6KY+xTPTEnqJHchMNiuGZsXoqDLYogyHklIQnyecHZgujDLB+mPgEkonsZBMV2JQaISqCDEIIQkVHNtZo0IF4MiCJiwpL1ok4tRBUY1rognRgZaFg5x0/lvm4LkYudo8OiTQ1jIq1pnhmVJj1U2N1Thck4k4Wh5gsbdiBPD+sFPG0Oag4FWLJ+yFh2GJhmB8gWMnlDCn2ODUyxv5dmkXFNvhHZSmykUwPgSuzDBIJ5GknENUTghEo0SHZULIm2tIwNOxHcL+C+MV4lFy3F7FRuqPezTx7T/4TA1jA0/SISDmRnwND3w8LlvhDfSFMcLjYlxBtBR4ZoMC6ib7MdEpnbGiiR2KNColJxoyG3X/YIlk7Gi6tGLaXQyU2L/8APBQWd/8Awm297/c2sDRGyVG6GyZf5GJRBh4KekV2NVwxKUbo8vBSd8QnEFZOEJU2JiiZCafCVNFJmirB2QXGHDGhLAu2Wb/vgk1PI0uqWzPerodsZ5k/1CEeU/8A9QmH+LwOwzsiLeGaSXZKekYOgVnoK4PMM1g6n1xsV2jWBcTiGUXxxUaCOA6yiRiFkfgToVJMNC4QhoeheBA+GzZCHNofktA+EJ9Fkyv0YMr8m0yWzJdCX0wbZRkeMfR5GBsVQ3WitK2YNuE+1wsaN8LicXyWCdGhNpjQY5KEMqL44hMn4BoayehCfDWBj3FeU/OjNu1/vB2aEeTQxyYiR0Q7fgWdC4Sse0SdEpmwNGmMSi1CL/URdj1mSrQ8iJPjoXkQiMotMakbRH0XIm3wXkzi2PNsTPCQjoejsXPjIxSahqM8BiHsX0kQsdEHzCRqyIaqMBuj0MaopkeTZCfGctpkZPBWYNMLI2ZFXg2m4huI8ZeRyicbFoYiHl5wRP0alU8DzQgaUIoiCXg1TyKIKmPBeHhcY/E50ZZkhkVM5KMmeDnoTYdoQ3gUtDHY0U0HrjF4PjfC4rA7ptRVGiTgQsuE6MEaFNPYxYY2hAXCEIT8EwVsrWyong0g+SZPfBM2GYpFPoVQn2WkNFZ2YMf6S/gTuJTJX9wJGQRk0Y1kWXWSsRLnZoXgXRspCfkamTX8GfhYoLalqyRNkglbQtiG4UVtiabrSE7HGA67E4JwpeJWNmOoVwvfoVP1DyWHcSnQhrODDRizhGEnY6ZiRiT0hvyPYn0/mfGh+eazBhkhYxm3p2JXQ0ItJLwhO14JT0SkEmGdFFnjrIjR9r+RzaL+/sPn+ujYawJQsiGmPVBrDE22T2YIkxZVCLTDGps7Niwx8Ynhi0JFomTBQ0JtHsIaPdig0XtkS2Ym0bFB5wXInk0ITE/AhsL7X8odQ/8AsNxUb6KLZMmColbsQENAyY7SBsW/+mGiQ9kEiiNDL2XpGDHF4aZKnjhiGbFhUdaISoa8LBQ2QsPQ2ITFnQj2WqlpX1/0dXY1Tfk7psag1HDMGoLkXmZCXI1BmjQTVGmQY0Mkxsb6KZ2jfH0JjLxCInFaIo2MkNmdj2JoPtjhYQme0YGzhMsE4J9DUhpehKu9CEkkQSEq4SnKBRYHvDu4QTXkYl2kzSDex7HkXo7pH0Vmsi5ohC9jg0aJDHlbN5ehuMxsI2okmpynBMQwhra/4KA5EJmKeRVI1zePHw6F4WjS8iZErG3V8D0NEpjlc65RPhbwiUheB1r0XRYNJkmhqsDUMklF6iElIuyCSxyr12LMSK2WXoRvDzxJ1LHCQewXFD4DJmcU6SR4D4nDL8kYgx80WtoazDQT7MsjbFLAl0x4jw20K0HnjB5DDHSrseDQ04zvKumYMjstwtDG4hpJxDSaj4xZLZJ2JxMeth7o+YZeaw3mnvhZGiT8Czw0Tm+uyaD0QldjeDN0WcimGQvCHjOC28BKrITDNiHofJuqMgf+hqIaSUQhaGMTyLA9d+jF2YB4LhHwvxnGifJrisuR8GUUQbovAhi2waIMdg7olcD3EeFEMahGb2YyhhhduhHZIcJ8Bs7PaNGmPvII9ixmJcEmbEi/m//EACgQAQEAAgICAQMFAQEBAQAAAAERACExQVFhcYGRoRCxwdHw4fEgMP/aAAgBAQABPxAITvCzu5YxxAX9CIy3jOyO8hR6yh9seIDvvBGfnJF1uYAkOcXnUwSOVHHLlDEuUHNwnJzbRvKGBRXjJeDAVkF9zEl9/oAOMET+sG27hmmufRmzpXmZVKB9c5Qx9Z23ENeMq05fOIm8KMoO4eMGkZgJub9Ynh6xpb9MGljMdu9TGiyfpv3lmDcPP6AJrE18YM/Tg5blneXf6k5zh+sjLnD6wKx8XWctP1y3s3nTdmW6zgx4wN/1+gOTNoH6Ww6/UdLif/HD9I4Kxpx+2HOHLiXvDq9cZ284AzxkvLvBHBy9YAfLBODFB9ZVkxnZMQgSOCmwHKpZmm4shnhlcY5x/GKLd94P1ymusJes6Hf6QcD85Q1jWyNxkA/bIqvpcQO8Qmbc7QRmHv8ArnytzUZgQHW+saqGFSOM0umCDPhiAbyCR+mEAMim9/o2hxh84Fx5/UTeDKTRga3+hJ+m3MmEXOGJHeS4kwCc5Nwzj7zhmt5tMSYgZ6YEwBg86why7cQDvASxycFM3cWYtcDWe/0Cf/INXHnK5H9GuNPxynBXBrNmTbLgRjA4t2YGeVy0RgJt9sFUjPWPusBN8zORiVkpip6OHWsDRcgH6AS9GMaDdyc3AWaHzjF1rAJefWCAmC2wD5ZJLgFO3nGtrreD9WWM7yBdavGFLWHjGGjIAj1gk8rgTRd+Mh5TzgizfjECdXEM7mGmnJDfHvJN/oSvrEzcw3vNp+oFsw51zlc3MN5yzk/vnp+o0kzfX/yW84kONfpLYuamsvk5auIykwBOcIOPrH3+ivn/AOONY8/p4fotyfbOe8SmVODV1kAwb51lawgicZJ2TBXnFbvWGzn7YeGTvKXiYRjBMl3+gds4MVO/1yOO0w85rrJrKLm6HW8atcmveDlN4lDR9Mrg5cqM/LDn3rBk9ZIbx+2DAiYHwbh6XCc47Ji8UlzY2T0wsnjvBSOzcxDRjRRJvfWFJBSqAB5dvB3gLFI1stAe9n3wIk2Ub0KRfJ8U8mG42kXhtfiYjtRXhym8A/Ryyz9XTnLxj3nWHOb1iYXNeMDT5wJgbOCyGsUJgjnDAV1how/8yJ6wldawSOs4bn0w5c46wLg2mfYzj0wV1gTeLV/Q/GbMQ/8AhLiauRp6/QRcmJF6xpxvAX795KaDIjxlTnKRgDubwHZgCfzhHlrOG9ZC+sk56x0y+f0C/oef0Ocjr8mbOzXjDoc9YStYFENuKA5MFQXnBrw5oG7fOG31MWp6zs5VHl84Vb1lALvGmz74t9HfOM0fKneECGzVwhubawdouuer/GEhSBo2La4cS3B7wQrYWgSarS8xtFR7ZgManBsQt7jSqXJugwZQDcotYJ9iYmK4JvrFQog2IURmDmT4BEyVCBZqjO0V1AqGpoqOl4QvIhPEXCXdPQVfbpxBb9oIt2Wi7EBNuCHeIpZzduNi7Pq8JUKIqo6e94uJTmjqYEBxVUy4Of0C7xF1x+hFw1jHtxE6xMFFyI7wV75wT0zbM0Txk14/QLi6lwUxBjQMeLeMV0ZXxlGDLlOJXiYNMDHxMZPf6JSc5wv6HLi3/wCFNW88WLVychxcCMxUt2Yni413xgDg9esiucGu8lwCcuNjoyvf3zjn5yzBJZrHnCjesln6ld+N4z5fpZzyeM4crgdosymd93BK+8qa241R6w3y34wauRr3m9Ly8YN2jr0f4++bUOTBBg11kuLKjDe/UJWCLq4NOtoUtenYaNGprLuS301N8bX6vG8OVKuICjEJJe/jGFJTAoSraCfUEzReDIAERag4455roo+NULQYNsKU5DNsCep7Bo081uI4CAQhpTt03z1cn6gJpbf2PpilrElQRVj3v+TES/YhqsOuXjxgLuA3xcrwbDtMGZoCECJQJ75YPTl04AETBoBcgGqDvJiI8tZw4vrPsxN404MB1g1sxEnecMmNA3cAWZI7xLloHhzXwxbHePAWJhenF++CJchifXPwwYecprnH3iXeeGLx5zTBPjB8/GMTw4eWb56wftlPX6LP/jizjCj3xrGOGh64yBvBiPrh5GcPWW2YIOs2qmEYEjqYqZTqwxLy6zrgcXZjHL7zaBvvPrh85w5x3gCVcu04wlPOIAN29YEUY5AA/XKCG2A57PWCW7+uTwedYpWG22e8Y+3eUEsN0Lmh5x96a9jQPaY9yCRABoCh4cb9Yxkd1aUixTkqqllxDvW3uaT1dNHheoCBtYFEJigM42VjcRsDTJiSl0aSosAQFEBOyE9PfSHKt7mxPqkFScBW10sNDh5HwIEjg7OqotzeEYTKYgYDoaTwEtY8Jk9AQuqGngU4Fc3KyTENjPajbCKzJ5oSXjBdK6WANm+sc6DtNDYR6saSb1vAWggXwNB2bV436Xl2EBmAIlRsoQV0WqCA0SCBWQksZVNlWrFFQOi8IDpuzrWM7a0GRTlFZeuWjJkWiJB6HZqfcwA1z4cCjleM9GDvjE2ZKF5wPOOr1lg185oTnKL4yDXeMZOTDyPnAcDZwHrvAd4hpXWcuLjtzgRtxTblhrD2maM/Ty5wc6tw1jvn3XKpHO8Vn6Fmbp4/Us198sKGsWY3bj3iqznDkxZ1g7msWPrEEmzA6v3wBF6y9dZx3lrxvAQmLhE+8VwGQIv1/QjfWPBhJunxizFoa41gqhz04w8H64gJWBQFcRE16ziDECAYqgvXWO913h0mujEB+/7ChG7Q1SuLzmm6O02xJyAgAYTqY7YHJ+zgBA9RoaM16/GBcI23EonP+3hd7BXbACfGgftimdydNqiugJ1sm96czYmt/Uah84JSrKUDZuh44cveGgaoLYocoS5v7tAdiWQtNg/vkyvuyByDQi9heMMViOxtTdHaQ30EmBfQQAQ18tbiDyneTTICAHB0aCDbxri4cFfT1zVCkdoQh1h58DAtmxBQcqSaeCV3Iummm0G7YaveG994lhpfW08X4whTlpkNoksNnAuIkLIjpwEhQ14nW54Mg0CCrRYcK9zzm/1HOWZQc7w3s5Nus4HOA4JvH3nXi4UesScsBTWQ1iHznNx5JziNQyDgzk9YfnCOBC/pT5YA6znRvArMTrxkG7r9Gvr/APeur8YiHVmNY7wL8O8AuPxjArjtdzLF5xL3iC947QufS5KuvpkROJmsZc34yoRw0zmd5tHEmFx28YEPWIkPOXZxm97GcEddY8j2wERVT5yj9GKUehzTyHB0kEwOR7+kftljTg5QtW6hqefctYECaPIkXv8AHOc/B0CfF4fOSuACdlseeb1bvTnhuzlpFfK3iaOTedXaNb6KhX6H3xMbwgJEJv5Ps+iBt7tBt1hNTped7gCiH1dhivlccRiLg0lbeNGu08YZobbziB+H8YE2YiPUbnjbL6xgAVhox2b8Cvl1g394Oh0vRSZowMyhaOFoMXXi8mFLvFyIJGViIOiXnCUCIIHzLpHRzaiyQdBs6jwHE9mob7LYGgt5IWiVGU9Ji45PKwtt589ufEdwldxNGSNBV1tpABxEhVVE5OPx3mjvQhM1NxikOOdY7cAKCL1DgMe9a2YhbCB8sZxjHFJvhymOusHrxk3mjWIS47QxCL9s+ZkG2c4HMcjbrF9ZTJvGO9YwmPHxgTbgQfGLcB3rEc9YOr+M2UNYMceDvLrFXHh/9guYRa1yDnI7yDbXNJ4yGIPOaMTSO8GjW8dhNZKfo11m39B+GHHzgTWBKp9cC/bCdunIHnXrDayZQ2Yx5b8YQNrfWBeiveGy6cto6eMa6O+G9YIB2vcx1ScZyEh5Ux9egxLkZSonCxbg3H4KOlXRYNBAHXJiMTiJQNrsRKUuwFlzqgBoAO45dQqrwHONjQQWKDQWCaLXqXDn0AibXaGyO4DYLgUcQcngIPO30HdARACCktIdcq6bR1upNeFFXQXFW6ybj5xQ6NgrgLAr73xuu8TR6FLdCJQQRqIad5IQ2MCBgalv7BIYNIAXdoiVUmtd+MY4HLsyofAdQ4c3OfDporL6dcPnxhqhxxuUoAaES+oDoG4EouAQ0VA5RsNZuUJmyIV0bRsZQy3DqLkINI52U/DTo8DAqiAgIGogvLWih3CBFvC9BFbUA/7isEJs+gOT41lUyogwEWMHjUGXzscJCdFkSdxjlmnA8OCVToOQhuwnJzlMF4xo2kbY3jXOsvXvrtFPw4QeMQE71iCm/wBCF4yQeMAOP0CmGXYPJ3iQOsKMOVwI5x095vhjbkTNg/pNec2G53hWB7mV0xY2Zd5aT9OH/wCA9+nHNWJfnBGs3JgRxn0wR25Z1+go8ZRf0ILvHWG/nHYMi87zRL98+VcnAYa+cdMYG/pgKHI4KI9YBqOpgNl5/GAb6yE1d7wUA+MSKdYCjxhMKV6dc4PkSktUJt5g48+MJzuNC3ZwbXl7+NYVbSCiqYAVFlamupvilrtrB0OEaiBfTR/04Xgq7MdtO0PwxGRoptd+uDWgCYzfKhbGipxP/Tw+OKsNQhPwcde9AK3asVBjHToevkx27l5gTtrX84TEuIIx19ss/wAAbTuDe/JLTw4bEA+MFtGL7Ub0TciY1sDQN07k54yUsjtQn3GvwGT7S2b1uvIiuvrgNpiYbIaYQnQE6zeZcrzU0VG1HZsNNS8bR5B0JuaEA3soWvM4qIKwuwg8FbhxPVaUQKHbb8OQtGKinjo2Xkhvh5GNA7HgEeg7cUEShDQYiWUaZR5DEEVSgbVOdgO7Tj6hzEh3ORABTuuRuM9idUDJKdvkiDlSFGhvPnFWcTJKG8IqbuXeS4UplBc0XPDEp7w+gzQPWaE5mTZcWaZd4zt3iAmQh7yd4gZkDMdP6BXvDSjgbmMHnLz+ut4Ew5cvX6irCz+h+hkromXrjCsHkxWNfXLXW8a8ZwZXecct95NXLoxDTnJgTjWRy+TKGHOMMW9ayC3vNhWnBRi/fNvnziIh++fGfWaEH2ymuBwG2wyrZwkj7HTMUHcqEoQZpYLd75axDQASGjWfQ++LRvqAE+kP2wJwICCgrZ2Ip85o2IAW12+DjyObMO9JgUQBxBtJORRSoyQwKAt6aJCmuDyWqD0kBprO2tcDznR3wKKhxTRJwTY4cvWQZQdHgKSePFwNXopLBNRNBS9Gsb2AB43sNfDA2JQEYutGvkXd24NNWr+dDOeojNcHAGKRQ1IqNDxTn67o0ZmJNKK7EdJLIfZ5BJOSxrEer7xZJHhwYKEUlHupwv7RxE2bcI8Sb85CS8kjboBaeGtRrFsgcXagjpRBHbwmcgFNJpaw1hFlOMLDI07IwWBQiKQVmODMrgghCKzw7k7K0nQSCQ4OxArm3SZr8qthGQTFvM78rgDM5h9iWR0gmyQ4smHA7nmiAGPCDWqKQBSBAKJsPHGGw+p7xQL3rWKaYzN+houJ+iLGaV6wZ7YMedYtxE9uKb1vHTOXOXvNkJHLtrOfpjLlDjNK4it5MiGAg948mDs7/QdMN/okxGX9OGJO/wBWu0+HKFHpmcI/GfymTWE8MqRwJy1wO3JSYAucGJSpzimusYHFpmiMKOM+D6fo46zsReQcHWymPCH0xjoIYSUcRs8PBiTCTtvvIHz3nJOrkbLPD4wAPm4Bazy50k6o0xEFi0gypL3SgpYTarq/OBekaC3kwmqgcmjdncznEZChW9zco+JetYRVcTFTsWbuzvjrEDkTmW2nuri9wsh46jgFu7uUmb+APTdJfg7VnnHtQHoqgCdEg8PpYqW0IrVeCoH7GsZWmQBKQjdnRvpXEKA+WEJp4mso0NeITSnBNIt3qmK5qjwdHt624GlyyI2StwJGn5N8ENWRotBESr24MI0UElL2FBE63EBDgid5FgPNa6UjDHTDDDHNQPU1rRnAbCYbsnLQKQ40LGx815CFTQulEF5vvJcDhBFNqdKDlXJpoHE0cmQAKtiqFtcemeAY2IDIyqKe9MlYFpLsWfRbGzvGgARWEEfQQ0mgNuD7Gyf00SAEb0uw3jDvNEitHImCw30bGVDok+qiNDekOEKnKO+83lcYVMIzLBxP0M8s23Jn0xaTjE34yIeM7d4rm+crrEa85Uz4TAnJrOWI11cRHFRH9BBg7uPbrGCH6KQMC8/pw/V4MXkZQ3F4fvi6bweVS5brE1HLs3jw5uBxjyauJuzAre8RGmBU3m2CUcYXETjHUSHa5Fs3mhlfXnFWcYHa+MAtB5mIXdnWQh5ymg50mPvAOW+s4XvFRLtsUEvQ8O54yJlThqRXWUoFB0GvzhRUtge3xjTU9q2OrdS+N+cQkqdeiiW2+V6TFRAgpEvgOj3xjNWFFdyb7765yeRiLUdyGpG/fzgcBtV1Rd1q31L7zfkAScL2g8GfHRhASRqeA9H4GQbhIaH7mCurudZcUmo9ClqDjih1gZEIEaZ/OaPInb3BzKF6x+KCjwgxO4qXyPjGLEWp4CchzfHyyLz+pSKDpL8TabQCyCREgGRiwdd3DsMM4QOnEj4vWCF0h2oARUuoh2eJj7a25KmtHQm6jLvEIlckIAFRQzfwHDjCFv3w8adA7fOwVNiejtoyl3KzBL3hiAVHYEi7bhNWORHIw2rcqn1mAgeb/ghR4HToyfCtAm9TYgGz26MRqoEQiPE/r7x1kEU485MSPswFw8vWUmOlyvMuDuv6IZMpfODa8YEfONcZa+5jPO8aPeKww073iblRwVMawI63rB3OcWDf0D7Yq4cJP/lLikcFEDbrELMAneIHAW4kNc4c2ZrEyicXOF1ilN/oN+MXFr6zZigGh6zdx7Nz3lFozj2wNc9Ys17xuOXq4NiEyhqssci4rAbxU57uOwPXOPkaTK4Qim4oIi9nPIdmYChRQ7EgeNft3cTA4T+WUcro+zWMQE7ujH96AR5FLwzZ4YmzJKA2f9OPGBIgoUJeWd9cvziBCc35D3ifAWhKGKBS8dXX3xjizW7YMdHIwS6AXmAIUpqqVsxGHJNYDNraCOpQBEFSfLBpaMKWjvZpuoDFafgBKQ2guvOLw4hQSlUiTLo1gMolzYRqQwRedvOLaSIGidu9v3YW4aTRQFgVA+AxZt1VKURAcPsui3e6CCSk4SPQKLOa7NKA0KIxF2GjzhMTVACrz0Ts5Ly1R4NVgI6NK+NAONZa/bxqICqAhUkaaR3goYSaT5KAlTxjJJpPCqEq5Rbe9rVE7UcjIzjgPTDAO8JZXRDVUU3m7xfamBQQC4CQy9OAJjElTUFIKzb9cmus8LibmmG7YFzlHNkGIjNi48XnKTjOQnHeBeOMOWaFyD5wBPeJD1g4vGBdOjEv0YcbxaczCrMBp/U41l1lq5uy3BXnF5/+HRvIk4rgbuBRglsyTOuM5bMC+MKeLM2LiK87uBm3GMY4hmgZ3rKCnecY5r+i585LFqesc2yQHnnA2ucFQjenN0k5xDifLnctuAUXXzkAeOMQisrX++v3xuC6Zs2B3LLq886wPATg9/bALUgk41l8Tw0UxXTTl0HvHtJ2BefnF1d7PLghCF88pz9PzkSQZq7jofc/OT1YInhKeT4+uNuhJVY7GzpNVkLrL8vGaPjv15wPj2E4Hh1H6ZQ8IZ+OVUu1OoZMuSdREGtbeNHO93ER9Jl1MmCb4YmkxYsLQBeGbKF4OV1FXJRauy69LoLYGjWEgKXgmhtCwAPLwYvpWLVrQreTaWpE5CH4MGUWe4cQvmOqvKSWpqhQq36+qchldtIe+g1Jad3DlWAWIUKqaQA5q4N8jtwLaxgI5JWbr/mEhqAtqYz0AmB1ToxNC5D3rhrEJXvnIgBJ7hH0TGMkwWFIVo/DKe7ahKIQ010c8vbaQL2DcCg85ZRkNzGiwWFiZuZFuFvjF04XebbrAjiveNG8u9ZaSYMId4VizJaGHPsyn6DPeLcHLnDgzOX9OH6oz1MU184O3Nb1Mk55wTnPRMqvrE3lvqYJd5F4uLcQmOmK1rEqL+ibzrE2hvwYKcTqYEOv+YTedx0cYHaXNlG5Q0784ey7++MacmQBS5WtTFejZUkrhrU5OcpsrOahL73gv8PDu/XCyQnHGObAHfeC6d4UgMSWwHgN/wA5elOREE83BJJDIH+MMqQiBBLxpybSAU9AfxgzoEgBSG0kU4cRE4GnVjWyTZyDdxJXJiM4QJAEKYkPVRbiKs2giA2cyqBY0ERbEGG5HprCanZwCyo1o5bz9904JDJKhDjUFhwGNzFdJfcqfQ/TLRrrpujpZOGvJwt7aEXT0bpfr1rHkKbaaW/cInvKsICzwJCixPd62pFMcGuF4F07jExECyLcCcKaA8o8uJ73b20hAllByNAcoIRjlurE3tuuVac9y+/o8zdMmmTBJq3LEualrXr1l/p4KEeR2nhcE5HRIO5C7d9u8u+GPY+8Nsfrmm/GPJjR5p+hup05RPGOz4wCZees9OMu3nrKO94clxh5XCPnD5zlN56c47jJqmPg5wwQ/SaufnE1fOcdYcuLV/8AhARlr9pjuuVxSyJQ3jtcgNzVeb7yU7w5wM19MoM++NYVjOcHocazbzow17xY0Lgw1ipmvOSqnfq59ZjQ43lrv84Hmax4Q/OUdSJkOFpij5zt1cQYRqRYIDtRzqD2mC6urEA+PWTv0uDVLDgmSA/YZch7vHxrPCgmmPIXTZ14mCl9NlXEAsPQD+cABqYRR5Uuz6c3AjuYrpetD86cRqyA9g4a7AnHGsWg2J3CR4GvW/GD0g1t5CnEGeXvHq4wLQFarYVDwYyoPjEaoo1F5OjjN3AQbXl6GTyXvIhhUITFIaPZo585EN7HXyoe2oXjlwKs2CtMPPzrnDKO3gDrXD6Pn1iexpNDZKoa5OTRjjXi9RQJ7AWlmudzEwqBVO0csCMdjXq1jpRaAjvSjWW8cZyKz37UdEtBJIfOk3IU0JFXprQGnUJs5tIlADQdBQXCcLNNI9JA6NQ/lIBbZxgV1b4xBTfzgcesSOBL/Oav84HbADBadYHVwQvGCmaYOXEjga5x4N46dOTWCvOUF7wMLi++sd7w3y/Ttkj/APgcgxDYlXHkduKeM2yvDFvfGbMmcDpzgecu+Prm1zyTBVwY1mzWKEzUyd3WOmGActOJIsM5RdO8LMEJp7wWnQ/TAIXGKU00c0jtyRdLiBHvFQHdzs7zbHlwMI29EZ9YrngdOsd20X3h/eFRQ53XNSxesDQc0x8kc3ZihREW24Sxy6pgfad8YPQPnf4woiOeJM07enUX734yuCTU8deuM2lJIQef6ygxKAD78Y0WjRu7P4HAkjurZhhHxPGp3zJXc4JSGzqfZ8Y3IIXQNpe1iXQk1co5okGzYbFyTT7MKyL8VkkRJWwqsNwwSEuQKVozvffONWiq9gPwt+M8L77gEjiJN3ZziuLr6ISrIpTfduTLBclAtASwaEhJndIjlG4ytEAx5eG/VscazY0RtSIjqKJz9TI5GFKaule6OyC3oJRRQEQa5Ol1QEaWhpZZvnmTFkdLlxTWCJye8k4xI8Q8YOrg0k1jr0xE84aGK4qTzhOXOAHGdYTvNSzCOQH1nL6MWvjOWt5RGa0xSQP01r9eHOd4k/QK/TvDw7xlzKs19c8NYh1zl51hZvOOUBg7WX1g34wDIALrDYNzv1i76x17/Rszhc1G5o1b3cQ07PGHsWF1iw4d4Bo9GsSau+t8YH2TIdbN8uWp4syr5wBmAReMuHwU6pz51+HAyDBbbG8YpI8Zr4v5cPKgQ8GJFRpWrhliq7s+cPJKNPyx4UCLP7xeHZQnL6xQgg1N3/RyP9uOsMEDhn/N4PhOpTnn+d4Rlmh1vRe/jBOAtxTXyM0c9bxiVkGiJwvDV+hjAjXT0qXQP58ZTwBgap0k4dT3my3MFwqnR/xlDwwbNA6Lra/XfWCDgUUR14Tv6fnANY95ITgklXZQcSnJsICi6I40QzXhDVNClECoQtNHFmOQAQCetIoEmkk1j+dJAmoAREHuR0mWGSCl5epFcoJB0Rh7gpQQDR+AaCSIKqPiWLIQ0kbuYDQ17zU7yDkbwkQ5zdesCUzeOnnFtmsWGTjvEf0ESvOGt6xa7wBkC14xB0/Q28ZenELDJHFsODFA85r6/q8//Lhmr+sQ5w21hV43ggxPOXxJgb6wBrnElZvswMzT2wBJk6MUHhx3Mvg3jzvHUyzxYIO5SA3gepcMvkc+MGNkfOAuXyxYE9mDRMQqYoM43ibBmUjfPfebrzgskERtidP036uXZprjGO5GQF/bFBsog/tpzNnWc15cMF72jAU8fbHa0QS7en5En0yTaNl91/3xh8jofL/kcUTv4nxkqmx65yyQ+B5zlwF404EjBqQftiLnQOg+cUpQKWp597wzQGgPkb+MqqNAvMwu6NDd2/Xic95ADHQ8HPO9lytYVoASXM7+mcuR04npharXhH3keK3AtEq6lNj8TePFdXnShH1onOJWPbLAFVqofSI6wDRPCwtQLVXEgeOrUxIfG1dghdpAa6aPRGk0U0QA0WnBYjAKMEV1WKH6va6CO4Jtx7G/fPCuA1JXjCau7jIFXXLkHGULxMYHXGbN4rcWMVHnKuF5Mi5Hp+jeC54zbrCj8ZtMbc2+8eT9feBf04foUfpBN7MeHc9+MAOXFJlFjWztjVaP6EeLiXRjyKpziUTUx2JzgaJhtVvhME/e4eZvOd9Y86yzjKcGuAqp6Zye8Y2ZRrXxcG4JE3gJ09m85Rv1yAA1gnRg2TGnEyRM7HjEDLtfIV+v5YVEVINDfnjGzeRF8dfn7YJVxpk2eb/vWcBpFh98OJkmnKfq3x/FyYgbo9Jw41GA4dGEgKCMOQ/77Y5EB0HeCQLwTx1/f2woyCzw3iSPoXWjLKNeR1xec0e2Bona3xPGPFWwE1tt+m/nG3I7GwsOYf4zSFAcR/GCAHh3vEChRy8LzMoKyhJA+THkRsdOA3GWOSeDNYG11YF75minPowUXg1YFhoRgN/DjAjIqyL2Bqc+w8OFuLqh18WkEp18op+SChPrAHKFXtuIWYYaPKKBo6dYJdtBDKaPJPlPNxZdKPHr6cfTAPOCDOXxllDDjKWdc4gmES/fHXGDg5d6x2c4D+iCuCTLgeesduK8Z3wgZo/OMo8Z07CcXO8f/gInj5/RL/8AHDknGMCTWIBySvcx2NwQHJY+MErhoKZpXAjg78esDtlCZs7/AEXjEubdTLxii8TDaujrNC4B/ZghF2+M7IXUx2uC8GQQZvjB2++djl6cObWVMbQdcmHZEXNwY47aM198Lp+fGWS6wCrtevx14zrsSgm+3f0/MxCoa7Q8+Hs/s3/HZtPh3m0GiApeEnD/ADl9zVvEsGvfLlZ0OBKX8duKZIavJzy98YahUm9LrG2pN2GQngSnebThQLwY6gAdxXx+1ygqT9auzejR98CAAmoePn7Y6Ayco1/5jPBw+DlyHun84dWHhMvTew1lTaM7aNXwcGOY4VBiJD0P1+ceWlvVA6b5ENJw9YrV2VVKpa7VnkOMlwBRDlItA154OUzoSGjhiys2Ka5bwjypgtojN1hzeMVAnU6wYxptF2JxU2AJDjBSc+MDCkTCUWPsxjkQ7mG0Hyw0fGSMu8I4IcYmyTKNcY4Md+GcJn44xdOCcQjHYnPjAJrNA3vDSj9874VnWsV3nr/7eHcwBbd8YiagjgWod5X4zmOcJNYoPjBTbnOHBJMXXecC7zbvKGZAb4wLM233k4/RfozXXODxgC8zFhesgzrGoovV3nn2vfWcEmIjQe8YtgCauab584lsZ7zh47zfvAhc8HHvDQPLbB9XXz6x0cXUAemfyuTYn2DIZwhpH74N32iY/RxtxTOxvjmYOw8pR4fjZ+cnTKXyJUD76Jv3hwNzl5L/AL74BUCroV5xReh2+cAJOo4f9rOUKR8D71gojXYDTqfnFLTpsJubr3vBr3FhuvM5wLpnIhShPz+eM0U0CMUFs88P2w1ELuR+3k/r1iN9Fm1wOHI0nR7xXKoV4NY7VfToW/FQs9p7ziLPGm4Y+UVyLPBvZKL3IngzZ0twClA4qK8bTjDcCs0QK9lX1VuaCqbQAnRSIjztgjYGMRSPrzmR2DN1rbgAWvnGwU0b6yousEWOsWqusFEN01h2wEwgx+OMNkP0bD4zhg4GGKXOX6Cn1xEzafzl1P1W9fo4Zvr9DnOH9GTeSHpu4Ci78OLOsR2y56MuNaOMW4o/p5Zo3GDp85w84XpxhTnA359foND98FzV5mbCD6cdaYC+8WhkZt87wAPnNQnHi4Vx+txwBsduBodJjaiYwqTHehitTvK5bHKbOg5xK3ZJvYfuz6c+OJEXeDLoFlJc/mBnNm9xfB0X3iQFOao+nDnCp09K3q8/cxs0IuYvx5PeMO8yAqnB/wB9GD+gAop4EvjCHLrl3PriotdPJ59plo6OndjUm+/vnJnYUpLE0F6VvjCabQ0y1Wcg0XZpKjju8oN2uxpeHtMKS3v4TumjhXxveUxgcImuQ0EXjvnK5VEAOYNdhoeHFbTFJXkeU65+cOPtpDsxwAXqft+MJjTwxvmyDkET8h3g4UMVwLDQkThrpZgF0Hg6E+Gix3z9M3oNoAr8xNjW4bc3nAlOwKEggE0ARwxYEVMClbF4Jw9SHgGCvgAgrRR1o6wvhmpvXGPBMSBXAF4nkw5RH3xhLLJj/wCn6GucrZMSTjEk3zl5jipksybyLzkrD9F1kpbhYzL1+hRh+P13/wDJYFZ4waPfnBszhcle3D2MSu+c0+8CYlxyxI87yl2zARS3ALvHSx4e8pPGIMptknDjzl6DGNJiFKXWfEyIxKLh5xSFaMFb7PGbHzMeX4xNvG8QSbzcu8iB2It/3nGpXreQTYFiHXR5wS0RSE6COa+ccSHVxAh8Fn3x8qIEjrjNm5rjXwTcOufktcA1UOofgxcTSNkxdvPQ+W+clkSanZ7yortG6T3r6YXWCDqNTKjAbGyHgj275ecESKs51qrSV6AYrQE0ST3t41p/vCxsHciyVRrz5bj5OQ6Slpt33cMSYU18teHH7ZufoC20ImwOmzXHOM6yl7Sw0gx/GIqS0556XNTBsXEBEaUOfnFvRFypRN+tuQNQA4qUt07+tNbx6xQAUkXYUCrV08Y0qIxHAUSaHHS3estiIhyRshutPN86WGXBtAr7PL7XEYSC3x7ylOPjEwjZi2VT6c4K2w6mVU4Ok5w+xke9GG2cs4JzlN4hecR7xNHvBpwK4lZGdsSZUv6Gj+py4bpnD/8ABLkld7w8veLejjjIzbAwCR33gms/LNF3s6xRyc852GPK8uV7w8i5AvHrHRicjowKOMFQkMYYMjEr0x25XCXe84bl1/GUm8dGEpcCwe28qBeG5ZGzDyc4Fq5opm14mKgCgB5QA+6ZLXQ1fMwYY0CS/Uj+chqEGAFCcnzg1mtgu6xFu3L7DAIR0m183WTUo1QFuhQXlYG8BapTnBv+DOGpoezJpUDo4+fvMRlYKHr6/wAY4hTQrTjNO2k3w/7jKKDnYHrFiRt/oLjpyMtgY7BBRCRjx5GCGrDkZ07vrkbSClhNgKU072aze1Q6cPeOrqroh6Gl3jubA6R8OuQcn3wAgncZxouXlHYEwUBVrdsSSJw2RD/ffAYwRf4AcFDd08YxA3uoZNNNTkWHTAUt8gQ5VEbJ0HWB73OFCnbsNX6DeG3W8id/P/n6SCTb5zx784+uudYKC8+sVfLxhgaMtuXKvj9BGafGaesVxx8sNkwS9mHnF2a4wpswQbrEF9ZZGXWdb54xHziTD+cp+gSjvCv0u7lcQi/GWUbl9nrNy3hmeHWO9YFXl84UvjBbq5YmjEmvVyf+YAFDfjKoU+mafGLsP0JD3k1esdjZknv9OXLu4jXA+cJZCdTFOnPePQPMySLnY/dhp95JhteMSjcrJg8t/wDW+mHQswjXbgwynEEyB618YSUsKidJofL9MnQfIVzFMhLyaRpHUesCPdooX5eu94QBENOF4wVyFgL1+2AElzYyYOjw1x/phdKBsgIc0x4Q7sKPemHHjlw4EB0oWdBZtf3wv+HrF1oK/wDcLLih1U5Vmq+PnNUawjfSOx5v1yzcrtlwdReq8KUzzI1wa3kiCSi373EOIohOOOcGIZ5vdzapzyXtxVs7iMEv4uIVERdtQ1ABZ1pcJ6XvdpB5HLypuq7MmEKJElgScH53nXSh/wCLObo0NfqKH1cCsHRG7wzZN5tPeI0/QkZNTCahrLw6caPxlvjEpibj1m3rHQY7LnJ1fjK4Z2TBwunrAPp+rdLrE24IjrHkwCw/+neIS94jmYVUCDy4DhvGWnOMUI3Lhy+9mbJveRO4ZWCuVOtecVvnN3zipzHCh3XECYnGcs22bwUjgCYU37ZKZPGcOJrn6ZL244zXu5pPGQdy+QyzQ+hgRXDHvWKqjMOl36xFGDF5P7gxCXvzjpNU1ozaCuESYOIppa+FM4I3ABzfa1Gfzi4RbnOJkKpoczDlcAlEW/71h8NTDF0TjowhEiIFNEo5pGwrNQW8CdYwypTEed687mR9FEHcOTdmKGd5MRrOQ3PrjSkhbgBGWphYGJGVIxuz4RnwmOCw1fAV2IjfAdY0rCef3wgJANzS+cJEKuzr4wlIo2Z4mNqoWwpJ9Rc1gC7p6HYgbfw0baUcHkq7VauPVt1Yo9+Ovvh7Vqb0fpihIiyxA1ByVJJiqRwBftmyXlx4neaoVw/JhSU25t8uThmhvKxXA39DyuUaky/jLim2XXp3iq4jhtMGwMBPX6tsKNbzvOXLuZXFuOLcwWrXvWTo8v6ICe89e3KCcOAnLTBdvJlhXOGC3xmn1zaMNYGDcfBcKmsoyTEkC5eCYScYUGpi4EcXeMNPG8W1kWEbDhdYbvDhXsRz6mDCn1xK85NOVPGvD64CkKgb/J98sm1mzFpuHaYOuv8AmHw5406+MdCrdONgEDbtgSgYob1hvq2o9nGucUtQrkLOT8ffPkWgcvBFEiZR+WwqeLz11h3RxsSU7FO8MTq1fd8+8XbQ1B6N/wBrOW4hzbbFI5ut+8FJoBXfjL+PQIbyJtQP/qzqsKPR0ZzzlTVixhw0hQfHGLVYowMAq316wKI7YMG34Ht4+mIVOMggaYfp6W8zATIiVClegHb1Tzi0cgGQPGCSSzEOCTJ37nerjkpoS6cmy7xTs4cfOac0Gd4Et3kptzf9JSG8YkTIFP2wfl1j6yrgXXGOt3WKoYPeJr+MNc8ZHnEnGcMqT9An6R/T64c51iXB7Ftbgo3jCJIusEPrAhes3iOs5cOcjgbM4IYe8+HGPAk/V0wdtyvXWBHPyef0DdyFyb3mi0x7yE+MdicXOCjDjWUk4yKHnI0u3Fb5RZjkKeL+wy6A2w5Il+HKDBBe995380nBjSriK9v/AHHWb1j1iMDyXHAeFi4DPUJmuEl8OGIFCCes3q7wnWYkdSJhUFZPfPH0zdWBACPmxwo4m8H9n5wKoAkhEkn5v0xM2LhOa7lTxgbMeebzovrHACHeBtJrEx19tY1Ir1iRVJGumNTwcBIF8Aq8bN4lwDNaFLPpZhSo4dkb+HBgheH0uJEemGjWV6jn83HnQKcXvPA2uCQvWcsANYAtpe8dy06uRFOMupw5dTvFgTOXAHvDnAmGhiOsFmbwJ+ksm5k+2b/Sn6LszZxg2+cSTeBcekuHOBSOzFDovrFTDE+TAaQ+/OMo2RmKGaUTH1i3BDhz3i3HpefGV3CZVd5esqzCiN14xV6wU+cE4HbrI3n4wBcLvXG84KzjnAILN95d/MvOKP4hy6Drlcaa9pThJ5O0H5x+XDZtcNiOq3EVwBSrX07Pz42QZfdesB1PqjOHAwDEqhTd+msAroNjcJgPu584kLsHR2GsezdleDDBcA3vBA54cG3Ec23EoxiMPPPnIAaAGkk1/H2xoCckP5+uNBT6DznEO+5iJYp1gJoLNzAyd+88HFxgVZm9qCDtN4iGqgw5XyseIPZghoICOO8H6Ain5y2YmHQY40jA7RxjTsqhYpa5ZPIt1kk5LhwJj1xcUFU2ay6xxg6tyZO86euc0657wTWa/GEZwx2ZnXOX9Frzl3hrB2OMWZaTOGWfpy1zg48851+lawuJrJSG9zBdmDhpr4xxEjKfNjuYBW+7ty0Vd4DTvnHRgjnWGm9uBtZ/8WHzg1+jwb9ME5qYD6YiHDVxiIz3gjAHLi58IJl2hnp3gmr7F3giISrQxiT8cF8Vv4wpicHQfP8AOCvoFY7drrcDD4J+euduKLSxJDh1+PuecA/HeCvSu+8PBocGXCyIBjYdgyQ/0x2wTU1t1huBC761gENgcmIjp9ZWuBZUXrD0hdHHHGCGtJ8X/wBxStFhMgJQqL3hUBj2D4ww3vNGsSFesmqienfGdgY1QeB5xHKgHO0mBswk0NgNshLzt5yJjkHc5xuwqo4Xv84Kw0Tlc24F0q8v9Bv4wCHoIPzFFwTR+EP30/vgwRjhF+yGVwIsURM0BpzipAM5HF4McVsQ1M3Lu5rMy5xisj+lm8G4KYbzgcDeJP0N4M6zWcP6TcxQfnHTlXBv6fUuO6Y8d8ZSPrB6NV4xRjrCQH/mPBnN843CvVfeAiUvImVwrWRUOcU+WO5yYtK6xLgIBip4wIeMX7YtwbrEL3MJGXAKoO3LaVOWjEGPlDEdwZeHebca8BDJ1DmvCYAvuy759fGNWheEp/uMdWArvEt0WLdTXONimix1r/zF6NM0v75wmmfWP4+653EED4XCCuw7uGMbiONbP4wzSLS+mTVAgl8/xkaBSUdc5FrE0eMZaAecMx6xG0mboXEB1rFTYEbwDjXMuPa2HvEIauy4wFFWG9OASmxvxhJHHGc2o9GEBX74+FOGusYQUCreMBO2OKlAUIVRAm0l51TBt2HwTAu5NujXnG7IBlrefxjgQ1syQdNB1g0tv1PL9z8YRJlXjJeSZCpehofDhhLGyT8/8y0vuNPw5qbXfMxa6L7x17vxgI+GbvnrFW/qNfoRgXDn3jv5/QseGdX9Lu4c5PON+n6PbeLU+cQo6LziBBzjqXjJOh7xBNF4yTvjINqPhyvNM3Zreax9sKmbKpvAjWuuecHkcPebG7HPLnH847xoQIGb+WHHjK5vvOFypMV1lERve4GJgr10ZrBuV8GajEae8vsLFVfWOqIuxTn/AG8nEEsNeXnEChiiOP8AXKsIobnHxlkqQtMCgiTX/wBybcM0Ffr1kEAUJBXzirgEJJtPv8lPebfvp94U2puH4/rHgRODsHv84BY7hG+ctSGyomCeBiJV6er5PthJQIcu8P8AzAogbTGx02cPlcDi9Kv5ucfG3D8JgIEKIPMD+35xzwI767yQC1KffHQLNIuznf4xmV5FOEwQXw6wYRQeXCDePWQJCB17z2phvxkFBhcoL58ajV0CUSS+VyrkVBV4FOfat51wEnktO7ef3zUCp4xJ0ML4O8BHAdZoHAscNbYZIA7x9pd8n4yxNTYLjKh2H/o/OahnHc/d19cKDvyypxbZirg63+ln/wAF3h4zhpizOD+g7Zr/AOAmJP0H6PjJfaxQV5xEKZYzzi9F31k3GJtHLQHxhC3iYfvYs3t+c2IPG8B4GBtXU7wAeVxadAy75yirrzkk52z9Kp/ePOcEzjvBa7uSqByrj+gInLilo5LjzsHPjGKKTns1jliy2cb61vItdhXHv+MiO17woq10Z2MZHrWcGTmJ+8yFgJyJrOGKELbwfbb+MXSKvLvENAYVf13m9giHsgtpwvxzkPEkSBQPrI7+HGJspIM8tw9eSiBWXIcF9tXRp3p0ObneypV1BS/b+MLmQ7Q7W3ianu3s7CM4671OrTKIZU0aesQVcShqmjg61Ou94o3RPir/ACePWNfcVPt8K/bD2mh+DnCSUL2k3gikQQ3ZX/z6Z5vJNpfnDITsmB9DLvBnv2jjK9vGMggcMegoOjAKH5lKi32n/mNl28wjYLwhR771AuSxw6B+AxRnGC+TNCBFv3g7wUzUmq7ywWxRmHyfh8fTBtJdYEM1KBTRjXB0JKOLUNrSv9X0xoD9o/2v0ftjzkM7zwyGTfrOGa/+Ekx3v/4Rd4g4JTEUY9Ne8Bu0+M1oOsVt+LlEC88YCBQfGQbecT8ZVzWIEKe8vQJ7uBM8DASjvvDUHk71gNnI5ThD5xF7mOlxLM04CYCAbc6HsgOLFX0dTDvZv3swqsd78sUWw+2c6wRsRzvVcWN7G7jEEDdRf3/jFUIdrt++SGRBY/7vAVABDeK2AO87Dr77xVEJxCanrHR6PL1qff8APjA8Ho6/2vxjFswWoi3yW/eHeOFOBaBww68nbNHAdgkogD3WdecBrwEkahBK6TXkLrLa9Nlnl8fzm34VBw+Of99cZWUU4QFdfGaMEGpUGjamPtrVzUiDEgAl1bjRiarzmMAlUGJN6Ow6w5yI2EEnEDe2tc44gBkkgNV7RZfGMJJdB4s3jmRZUfLZgxlJKCLT1ftjkkaKN35+McMrorX0c5+4FjroTi6zQh9jcygBD8/T84x8gD0Xf4x00Xtg320nS+9eclAUGA0V1Ava30bBmvU7+hOl5PhA6UrgWh5c/HnD3gKNPz7wSEaUy4tGjzcURb+MBHvBp2acWWimQH13Otx7wGqj4w0LkE1Ph5PpiaAKHT/J8b9YVM4cXAm86eMef/h5zh+jpjAYOcuLf0nJiDX2yPC8y5QKs+csr45zZfXDOTO7kXZ8GI8tZRnjBXE7fGsUrxrGymbzlxHZpM6j3MWh88ORH3lA9ZPPWd7rowaA+rm9vnGztaU6+MVrMGXKIdRx2g+SzIzq6c71cQrv5OHEt+quHJEC3W84jRCbChvng9Yb0dgwU+MGNiy9f8ZIKrZO8PiOPRJyeXe8Yadl9HL4gFAIXt8X/mcDLZ5b7ygg5L4Nj0UGSUaAN6XScThob95uMkS/Yg57lwZiQ+KCn5Oeb85S1uj0LcmasVZvlE5ejvHqZNbwKqQ/3bgQpbnAaa5Y73vhMa60Yad2EK30fjieHdLpzDYkU3WXGDgTLVAgkhppvlU9FqRiK68b29y2PDGoENBkVlNNNs51ni+CzEi9gYkR4EMBaGtEFJe4WDu/nLpdwZ4bH4/7hI76NL0J0wyDs+W06cVZCm3+sEJrF8wS/wA5AKSm1f7+8ZSKCXUr47WfJjjZEOlvRuMbKHPOX2FAZggzyj4DD6GIBGnY4BM1joKcoEPGFsyVzAgH9vvgkqxvTynjlt94NSAbovOCQ3grZ9cEMd7bzdgj6HnFKThvHkCN3HElaC4voxVyobvNxxT5w1y4Tn15H7YsTgXgeTyZLiDty3wwZ+tf0Of1d4k/SUzpiDvGRhIr9MYK7M6gu45QTtrJKXZgUqfMwn5DEjzc5EpMIjWPWOuc0aWYl3hv1i6mRsp3jNqs0gc48ANB3kOnAcG5zMEG5O8AyuvOAoatKPWBVaeHE5q9TKhmOOoY30XPsxRZjTwfthKTTKOTBUaM4S/XFANtmNCC27Ca4yDdXZeGRIIw3Oz/ABlAKW/J/wBTPIrgfxijNnILMrUQF3edd5WRALPLvCphCyZXvx/vGJiAGuofeRUiRJFBBl00+LiskWPAHPMLfuduOChcdS6P0mIRCCgAhx28NfOdIARkjMm8LxBp9/GV16de0AkF03nrG4FKoB2A0JeeE5mJQkGoGCMtzefW3A6gQFUDtFJ2hz3gt0gergd/rBXgQGHJ6fnCyMV2dVKXsm94YHJrVFJdRKDdO8KwZlAAaGgAprxkRiblm+n98M4FgKrdw+NmBChXsUaf7xhhAjpdQ+fj8TG3wirYzbpjv+c0tHUKwwSN5n0DvRlJDghrC6EFnk4wT59Hj0MDm0hL6b/GFy6tkVwFxh4xYQ1pfGsHaNLRM1v5yOhFCh28J+MQC4fokwbBfnEQgvWsVVQhUmGdEkXbhs+qP3MhuMVIYPVPeXWb8F4BhpPu54Vov/F9ZsZBd5EmHOTcyvjN+8j+g15zjB8/oNwN5U0/nFo9YoiYhC6yiPGIOrMi8I+MCjxjuvOJMG3N6cGTeQ/ODudYs4wLgmdc13jcGi94gfXjB7FJvvPRBuuSMuUScXP5cbwsrhKSmHTp3VmOai+G5qKlm1hHAlLrcHTSWvnNSIlLtz1885uWg8mznxnHhuBB13/u3NNDyOnfX2xJEdizv1vGBWi3b8vzipWp36esmRncM06JGpE8r9JjYu5UpNnn/ffOi1NJo9OG7YZBBnh+jx2fOJ8jNhN1k+1wc4vFklA10HjaJuZqQ1Z2kipaTQ6bd4FpzANnbfjirhBZjgBo1tNfOQ7G2mR++X1ABTW+MP7yV28EHxx98HAjEHCGnx/edbqItATf2H0weQAI8iF/bCBGMAtDUnxDCUTYrKrts5x4tTqU5dI7+YcbwLtIDa6NKKpwhHw5eALJDRHiBhPUrcQ3QhLEeS/Zwy6kq9XufOvrloDU1GwwcpX+uauCygjA/Lz4zmb6AJpsEj61DDNX3pSABXQbInWsgwKjBUAEaXkUiGCLONMrtpVGS6/lwXbIAixujS6234w/TUuYcFDQtK3WMa04GBNIVBVr4w4gXbP0TyUWAgto8UPlNYJoieRwpfGAlcLNUzRzHKqBmtauNTIc6ECdff8AOUA9YGimbPd94s9440h5wy5Yicez3kcV07B8Dz++CA8+8dv6Lf6Vy4rjwZo1i1rnDA73kGvtgdm8V9+8RcKVa4zkeTtxrY+M0gyxQ+MIWdczFUrvnFX15wa4t6XOTgXjDTi095XjPpg/bARNecNnu5C+XE4oRO34xUbZC8kHgKJz2C5sgB4FLkBRU1qf3kPxaDnJbp0nO8FINITZPn84TJFPLDj3jPORtcuTOTs9TWCbnaGprEStm105+PpjhUr40b8Y4INTnj1nArGLjjEdfVkN6IyfC22dqDzeMi/dhLYGwVpx1gMLpCIkXZot29Y7vbEpwCALXfnEltBuSIiagIl2sXF6zFKoP74FjaMEv0neLdBnU/P1+1lxccVUAXB6WlGjcc1t7+mFlCFNsKz1FVvvCpaHMwqoGEK8bMBJ81WyAPw29nXBigaylIxoSgamtj3kZJeGjzvvGCXNHV84LfyysiFr5m95oKLXWmjsKzntveSsDByWoC6ica0xg2hFE0NT6O/jEM26HaJv7v4c2SQlsTo++sV3CMCEopAPyYuaqOhro1B0OU+LgOCMiKhG6RTYMrtza7TCg49q5vo5mvWGVGAd8XG+QBD/AJtwqA0OxBEfjOMPYoreXZvezGg0N+s8mtfGVF5Hoyg0X98B0QIQW7mIA+LjVNfzjgiJBpu9ZKrZ6yAR16w15/RNYkwGjS4FsMCiZyi5C1nW9bON+9+c57w4cm7ecOclyawKXIvnAzLHNDWChxYkQ7cSDgrinmmBEhMfDqZuB1gBjF0njNHv9ASjcTgvq94u2OLM7E4xuyzNDm4/nDywLfGBaGzH6xo98R09BcovnDSbF60+uOIGMPys8fOEgxYh/vebq23oL5QwoCoOTjENDELq+8HS+asKQac9OANqVWxMlIjuNOXPn/mJlL0EhS/jBip4cOrKYI4jZdef3MKGQ0A5n+mcfXHiJ1c+lPb43lFo6BduKi5QCDshOXj68XAEA/NfXH1x4ORRUkYCl7wNROIwkpDp1jHbsrbdju7d5ulTECMVeUk3WXxXweCCof64iSMY6w5TrlbOvnDIao7W2Tf5xROJtWuE4Lvo84yKEgJK3b8eJwXwgTFaIJaUhW3jadZfYYcBcDhWnk4+DC1AFQB7ACa18SYoDrGcDjALakTTH9XvKIijUEqdhuhBs4YYOEsVVN+ERRNqe8XvyziVKm4A3NXno4ROzaa0O0DTdwfrBWQg82Sp9N9x7VAYuVyJDbbyjKY32+BdEATYnphwGGrQCFoAlQ+okdMuIPgd3YcR1cB+vDotl+mKOLOsNyVav8ZuwAasNc/hmKjE2wvjWBScAOwBmS3i7TDhwcS1S0PjvXu4M1V1M20HfXfxgcpLuh93HTUaMOrN1x6yl10cADkB7m8tJnKEPHI8+sKERbRJMSh3gYfyxKSrj7oPHjCTm5BAyAp5afRyLvshOf5H/MS3U/UHzhQwKW4rHKHesawk1znCz6zEt8DH7DLXlQHc4e8o7QMvc6wEYc3CkP8A7hgTj9FTCXSfVxFzW8VXD+iSXV/Ro9ZbTm03xnBhBPOQIHDwXq+u8MWvsiSh8ffFoIYsUtTwEdvNpFwKRhYofuWK1ewHX0yqQ3x0vjEFBSKnDr8bwkmrrh0wWoo0iz6YEWoFDDQ+ht+2b353ZV4+LhmQyvGku3+7xdcadprZL344yWjI4XSwdDm9YrrQnwcBps9necV00DkUHtNeMZkt+U+FK+YBxziNNtMmIg1wePvd5qFbt2ZwOAwaCNl/GHNf4f8AtYjRdy0I3j9tvnAECgUu9bLiLAODmAnug91xALiLTWtcGk0cXNXaknqd/a368Y25YKFTwXiu6XRc2EAiiE76h+TQ9rJNYPHaAjva3WjUcY3PBRiy6dC+Pcw4o3CKiobsdPrneHBSBqO7peFHZv5y0xBsBHT1du5Ppir/AInQ8rzp131c1JYVSjg9zYWUIuWjVA1AIoKFF0ycYF346GN8XhOEeIg5CNwak9ElCnk2cYH4m1E832Nk48b699WEYg7F6Pq41VHoELtRtoFZzXLO4S2AEzNeDmbpGAdEaAx8FDEgD5HBT3mkKB5mEpdFSSVI/Og1lBZWTUFPH1xLOxHWc398eM3DyjDUUDpNawCAYX1CRwlVZqdeZX79ZIl3Sddqx31kdAMWHU0IzWCAiQODQAC2/RwAEJ1ofrXH4qfL/O8M7DYQd9Nxq17WmEH3iBVA95rhEIHrFZx5y1OT7Ynkj4x1hZnDg5wY6Gc4cg5wQAvreIPOPXrLo3z4x8Bud5UHjKXBJvAljMUDgcEK9ubav3zkGOycB3ip0mUPQvGHyNOJHMxNE1m4ju42wj+kVPzi6dTKSd4Lhx8EA/laT/ecZmoIN6D+MeV77jQF7Ijg0GsYsgSG+JDoh2Oj4wiFRB184MOiar/usUUkJoUPA+HBwFXiGRL9XBvGRhtUZ5RYff8AWLJTAAtCh3zuPRk7GBYXSKeJ5r5xwNffO4IUEpvAlyBAZquo4Tz31gNF3QatOiW5Z/WG8vhD6SY1AU5BVeaa/wDmHrDBlnXeMAbOq3d4tjQI/wBaw6Thrbn8mBdNJIrG5Vumrvj6XEaQhs9f7eEMRB4E0cfHeVMPQcyk453exgDAirRNAdAlXRQ5cUVAhINI8OPGOegQWDhLxQ2ayq5HmSCgqRtfHrWMJl2YAHi4DXinvFtlsgNgJGn+CcODamqBRAdYEvnjczieNd2hC8SPqvzxPQcQjoVCo6+rmzGAnoA0VoHDItK4rERRxottJHkHjTWLXCABBcnG0wO9BBV3aq1fbcB6fJl1iaIAdFEIqJ7bF3qSuVljQUwHrDitGiAtdtmvBDrACu8seIt94wG7ko4kNKihfOGQtpyTfU+M0ENHMdOxOm4SaQ1vfjnEJ1McSHwG828EOjFlrLu5tI6SzO1JtXApvJilCMTtm/k6Eh61xih6a5qX/jHBG1EoPnjDrKUWSHtDn6GddKKPbgiS/uYvOU+HHzkRrCGq2B8cfT9ODJJfvnB4w3vFHjXeRU/TFE9n4xBKmQRd4OzsTjBMO8JcF9XzlLOQ8mIC7xBFn0wQr4w33vI4RN5whbkkONYxiIr548YCUNnvnNQGq23F4/0ZoprLTXEyzjWDvbvKb1I3ONY0QuS70tPt/GG2LaFCwNwK98cLkQyBV3IsdcPtPOInFoMKh3OIuplIeRHW0T3L9MdYY6AnN560V5kmLMtuKNSdGL2sElcecRacAq71Pgus3dhoNOfjEgLuo8b4MTkZYqRB1/HGTlqSuG3uYlcq6jB+P3zQz1VrkGCtNH+cUaXbWsB4Zk+c32s4oHrif8xiBMImrjq8URH+WJYoHhpzYU385WEG/Tvn7YsfIjhde/jIDoIp2oCgpF/o1ytF5mg1Hc2IgXfeUOmBV6FE2BSe8bjkJJ3sdAJPX0y3gxWyQhKfwZtyBoI+ajJV1wesMCzARs4LJuDuOoZfs8jAJzqBhsa03CWW1CqcaRgG2B9A0Z2wIVGiGACKV2VTlxFdXMreWa72iQ/jszBQV5+7xjXgVUw+kM1aYYRkmuM0rrKUrdLRN7Nd8VkqxSriPjg4MhBdX74i2RPHWQr1iNCK30zELuEK3YKKf7x9M25Sic6WTjdziLo0kzyJxLnleuMk6h1tprLl4fp8fnOAPL8r/eaEF3OJgffznNEE5HKSj2+maUlFGSZKLt5yEi3ub2oYxuethQcF7BHjhhdYALilnnf2cSa2AOH+MIRghpE8v+n+cFOcN/XLMUT4xdZvOMJkKU7xlnPWHE7vWSI2PjrAALrCgq4ZXvFtt+chqXOqd7wBW3Fhdz9OX24AHDcng47xtWdrQubC6waIA7TNRVMTVOcHTp7zllA3FVRLb7X+sAQu5QKEHXvBkERaL/3CmmnGzRDhYH5AdYNBECoFiG6++/WbBmOpaNb6HJzhuAEOFypF0C2zV6MLsBogSEus3PVRXswesCNGt7xgPMYOP8uQ/J8S6wiR3oZo+7lJt2QwwIgNj4ygiPIgXjGJWu7clrkPChvN4krsNX74ir6K1zgvBJsb6wv0Dg6GvH1yDaW0HPj+ftikGqkX4/rDoQKO5RpckKiQQRuw7Trq+cGLgREhQ2Vo5EnDy6YJDW0AA+h/DJElOCDXsEdgzhihjZZQRsGE+4N+8oaGtgnS89TzxhwNlQF6c8a3qs5cnINQbDBLEjD4bzi51V8epkxwgCE48YCghseH/XBETfWKUAOINzLHC7dS/OP2yQabcqGwv/rPLzzMlXeXrc6WppziQHZN0wZNTwJnn5/bJZQp2b1hSd/GHDlg3x5wDeat1rDEtHU0o7PrjIQLUrxjSa7yzFhZ76cnGquRutXGELWvf3xTUm0dZAAAOCceV94gM1XblockA0fb/HeVRjaKr/usdYIwJCUs1jQ3njOL3km/OGtTEvWQcWxOM4beeMLHluvWASK37YqGaXxmrfOACNw34zkvBnL1nbFmWwYxr01hzzMNGKKo8YKIK+8KFdJ095AjR4mG+BcOKWjNmsb5dM0l7wavrLSwED6Yp6h9mAO01FF+TBJoiN8UaPmYd+oG/k8SCY5jKMoDWgCVdKWXFdNHbEzUQBL3GaFWNpTsKefhktwjaVJsm2YjR2R32X53/wCZpgLMOFl383KNAl5kpzkEUtGSNh3cVaoon6/xiWGhUePGQVidFJhIVDydtxEoGiOnvnGABjF27xARgVO7jNBXx3pMeLoRpyzJzYuy9ZFqdvr/AN/GEndtBr6mbuKK6TDcVloFrY881+E8YaBSiG53rC58l2goFKiAuyKc5vJmGmteua9QmhuECY/TUVh3B+j5xK+UC2dIPIfOH1iqRnnabyJGvHgjXaC+8kXCyY70be+/+ZGU0RaXj6/zhmwqlDtuM5MNEuFcczE2BV12f64BCBE04sMIoGKEDumXC7qj1hwrC5OEBMfnf2H84MKnnz8cZt1EU6Zcls01cO5PYYNGKV/Pp/vDApIHW+/2++InLEXfd5ypIrjpxMAh1cOOk7f36/jLbCcLvvFLbrTo8r/c5CJrJZPrMXZFvQR9jWPDISoQPC4Xn4zeudravK9v/wAM8REnG3A1hvGMTPOOysyoG1zgnMycDbghVmbbPGcBvjODOrfWTXOsKw5cefrnixhMRo7MFvrJreM9l/OIHeWuLUFTzig2DvWaDajGThzZsS4bKDsjo9ff9s0hvB6/yYJPKpIPb+/OVOs5u8a/5jjFXM2e95sUoVivzUrTyewyV7jgsNnEQG5swXBbJsV1eRtwaaJsswN9BU8dP2y+bjs3Hv6a++aQbTWvU7+uILZtw84sFBeLP/cFhGBzTLqRbRdfTEQhGP8ADTrFYoeF0/zkL0ErT5wECVSGjfSmCkU5C7/3WKjQ6qum/nEgjTzHXxgFCBNuv83kytFXm4JcAk5DDJUNbXsD2IOCF7mgEj02I+B7nHjUAkB2aSjHxnK0qUvLvd9+8ElgG9Me+f3wUkrZr1zi8ATdcERQS3q3+8PnhY2j0nr/AJieKeTkzVOiGKlynNHnBLvJKPBgCNTz9z98v+cI6CNFj7H+simqAbz3CXK21dsd/nBgAKxnZH7zGV5Ddfvlc04Dm4SONIXaL/T9s2wxWCt8DnCBqWwcQd5oC9zGTN5yjrW7i3HsCzC6BauzXR98MtENuKkTI26/aCODeYrBX5w2TfB+6c97Tic3CEHAQDAj1+m76wYZww+paF/NzbWOtuQu8kRY5sg8c5Qck85xtimsByCK0xRrrOVgFl0YprLQmGw4y6uJ115xpTjE0+80y/QyPOXaYycg8/pd4GWYJj75/LMnRE19Mh16uT6YL9RgomYdDx+MeB2tt3zh9KIoc73+2IZUqcB1/wC4ukGM54cYaqfixV8Clzq+UCqg2SGh6i79+eaSCej7n4H4w3L7aVnXfeWg8YTfIfcYQFoJ5JjJvjhDJFhHB56xAGk8lmSEQB3lTQY/ZP7x6iJoR84wawAnX5wAJtI9fH2w7KFngOcQpfmoGakCGm8OJPEWQ56ZktgIUN/PxgADXpLZu/nNQ8kRJHGCUUFC+AOrydG+ph13saKKE74dbXWBoVX4wi7utZrYPVTOI5cTL+0Ne94KRVeGi5p7EzI3HeKFzv4cQjjvsmTcin3Tf7L9suqgEU6ya6k4B+t6d5KEd4bC0Ows5wxuj+bZ9/pnNYRuuee/jCLaXxjPFLVKOCVaIbz6/VxRrrLAj4M5dn1MRUoJw2W4BE1OsPRNrpzcTRN61nagd2KQuFvCck1zigBWVE1OWeUyRQXXHrX3AuVD8arQ/kn0PthQygDGvowNY7iTLcA/CC/VMKU8YlMKXfPnJE9Yja/nJIjTjsOB25N4M155y0/QAfFc19MUWGLxxmp7wcrxjS3MKhSYw3rBmIPrE2bc2eMeZnDLY4ywHx5xKTrK0gTUwVNUz3AcACBUlTx1+dYsiFoCX531jGJUQOP9v8YDCXjdqnj746tWQ9sFgerKAl4SJ3uPIZySPAiF8jw97xVClY2LFNSBMAyRQS6G/sZQ99B6R9rj7wVqozesQpR4qnaH+8Y95Y8DT7YRSOjmuuv4wFOj1z4/GSib7Y7a6xsENToy2uE5dM065ML6/wC/fFpIaVov84VhE63desBETVqB+P2yoa0k3zXFkKSjONzJYQQQ3M4gKbrWVkMaAlwLyGPw0F5ANOe8Tcm3bs4pePOQgu1WAJzzLDBOT4qrs2+mD54IF4c1eOkRMiNr4xTszfX6N3DTmw+sq3AfAdL9lwFi7aG3KAoHJvW29fHWMXyYrchT3T1mkAmkU9mv7x9SCA8cXfO85L5mRKPCh3fjI6lOmgOde+cJPpx4PI6qDe/udYZ2xUIKd/zg2yERBTydYZHb68DtwdwKw30fy4iYjkQ8BjqYI10Aqsk67x3mqbsbPLnm9fcZiAKYEaty3DRijcarB1MUMv7JP84l51llPeLs6mCRdktzZTbvK6NJlaWzq4mAbOJjbHnBAzjAQrvGh3PphomJdYnDxmoeN4t8QxzPLgar31i3izIE+cV83ODF4y0xtAN++UWTELZCAPqH8ZZZyXYas9lvzinSDqcHUPnFICVCmnfu6PGCsYxbpw/3kIrKuleO87AA5PtcPiZCAnuxFOgGaVV45QFDsC2bPeUCqdBwjNr31jtFICaU/wB9MBphsDtQ4wfjCInTjVN0x2mWd9c0YhygeHJlCdnFZfONHseuMSKYaoz6/bH8wHTl+cWQ2SbJ/jHpeIWPPxkUcNjjYgEMc86bSPv/AMxKQ8PHj/uVA0mxpx4wGuUm9UwkI4EMjTPtiZgaTm5Ua2kYqDrbpjHsKz7/AN5LBer3y4A7lPGC984cBxkWsaomsPXGVHZcECaQw0tXBQCQScwV/fBAhIG1Hy84z2ZJqAInWUTcrout25qtPL0ar8Y2rAvOHzSlt6Ov9ziOlAX2dfSZIxhA5brAQguyF3r85G68zJSJTZ5xFsoA623tT2fbCza8Hk4/f5mWyDbXy5ANvASlZX0nGCeoM3eKbF/SUwgoCsm4C5GNp7xUrsM4P1dGIOcHwP75lDiYkVZni4xEePziSnUwA/hlW+esS+w6xpOO3nKE8YvU4/QMe85DNjlJTRldbhXdav0zvDUv/GKW09YIucUqfop4wnnLUj9MJsVM5EqGTxPYnXI/jKGzVZRSfCfdDBuK2KMDWEhezvU60LfN84/SuuBG3hPV+2cD4DTbrjC+tHZbP9+MRVSrN0L5I/A9GOrnEyYwjRVum5IwCmhCj2gVNUcVHQoJSNPXWQbpHTb8sVHV42lS/wDmPqIDpF8YieTqpclQmt9r6MWiG1gjeSk17cGQjt0fHv14wBq0Okv59ecUZIXRvV3zi9A1fB7xGAA9fzhQ3yEPnD3QQ3vfeTRA8XHqlbBzr7ZvCNdOPjB8mmKF3cGk53rGickxA9MLoVJA8ZYpQi73198Yq0398SnvN+W84b1jaGsFIZpJiie8kv3xS+9R8N7+f4wS8u1a+8HSAd/fNPiKq7Xj64+odHlsEdcS94RHSHgL4XJ6N5XvrPAcU62/ovjeGbyBv0TAOVU+dbH7zEMOAINHEvW3HbzWynAEHXJfjfPW8YcRCju/XAZphThrT2f+4woBB5PAZSpIHGrEnK6Lt8bcUgNvChUw89f1hkHJ29/6410qLcYOjNeeOsKJgQhx+tCb0GOAV9YqYcc5sJtxlB3inXktxsBmbB5wP+YJumUNxkXz1hyOWr4xGnjrAp++BLKpioXbho99YOm85ZLXbiRQvk7yrcu82jhcoUzTeDvLGpvrGTeTf0wUAXXxsn2yne6domVXvQTSz+Hvpy3iSVujf3cVwga1s+Pa/fJ1uYuFl/b9sEYrAVyEPHjeJrlSJ1p5ytLAcJ3f6Mry4DYlFGVgNUp1dTZhY1ISQC7vvfHzk8o+OYfQD7YITbLzvxijydAa18YU4gBndQcRaQ5Kbj7zcsOFeM0A+qdYVTY4rW/MwTM/B+7nIiVjqkuAWel3v6ecCegeL++HEjZBNGO4DBY4awRdlpx54yq7qWhr/mRxobvAwWEbYtX/AH0w7toV1fZ6cNGLFhPaGz7ZxkIG04pyfXAcF4TE2AOUY4wJiZGrK43jvvEgt/GMUof0oE/fIUSOIZvcg+VTP6fphpCPnK86Jb51gfkLyVE1MSd/ENc9ae/TineQPk9428vJ8zjH7KA7f0DLz6ymKP2Vk/bANwnCD8XrAR0PPh4MbVXZRKofjzkqApWaldf39cJyME4DEWw1UfbT456wwvtbAb0AB51eVyncXLfviKze68eskBAb9GJPTypqf5yQUL4yukxEC/XLd/p0CQPxiqX6Y45qoTAU94JhcptvEke/WXpE9ZrDjHZOMSC4CMaDn0p4cVCu8EOtesEEMgMnOMWbylMpi7wIiNnOV0NB3+g0/eBpgavDNI+5+iaGbk1tvLQ7CE5pgKBqmj4H/dY8NLZgPjfS/lyQifuwhn0OLFW5ouDWHKQfUnnvrEtaQYlGX/fTIIVEk/znBoaD8Ll6HI+cTZcTkRR5jw9BxhDEhRxG9zh8jjvXruqgPVWVQIps9ORETUxAGsGdbLY7w9sIND+MdojRo5xzRA1pXvImhshC++sNYzU1JrFQ4Ib1dz/zHxIDJ01gpsCPCB13gkGwjv8AbELRbs557wgBl3N3xgEi+Bzl807Rf7z1iuhbUH3gQ0gBs2p/eLXm+m/tit6ChB6plztskUorjIVTt+cOKDHR3iUGzrEQmDlvUy06yqQ057y95tP1xJKcMtmqbJI8P5E+mckEIK99ZRygVvj3HjAUUaBrQh8b+xghSBAJg24Jscf+MENQEjtL4+p98L95vWGypo6JOd/7eVOhwlKPa2Dd/bDcDwk3Bt9W4aUspAYWfmYy4hxAJXHmItS2YdU4eQLzhFUxhpi9ZCh5NX/f8wS/yO3xj5TUh+jGQi8hmpscIVy+E3vA0CZLivuF+hhCJx4wZvnwYeXDVG3sy7ZfWAdu5mzXNjue87JvKM+uLumsKSsMYdce8LR/GUfp5yKfOL/Zjz+iEwVeM5ujWcqoY0vP6QTRTA2ITgcQDdcYVTXzlHUbwFxQ7vZv/wAwhtGNNdvy8/jDxnQkD9X64IkBrKEQO0dXx9TAgx93qEel2+PrgzbCFXU3l3Q9OdyE0OT31vzf6y5TZwJy/vBMvjdre8YkutNENPim3Yd5T8oYHHRSybL0uC1UQSlFR+PsbwIiIsNP6xiNHqc4lxHYjpwINlyOGKlTpjhtpBX+FMS/EVodc+l/fFqP4mIwIxzrvrNapTatlUKdfPzm0WjXz/jNx7WDvrN5olt8nj/c5sbr2fXkxB0reicfPGClqIUOs3IcgLoLgNqZQmJNN06/jn65t1uyO5uXz+DETrAhAefvxj7BQIE2ETzz6yi+D7xgFTW0uAolmI6N+sWbTjziHivrAbr4xrYnvLtCuONKB0vOIOCoYQ6/Cn0MmBjx7yrYOiU5l9fnh3gmGyYDk1x4/e5YNpDk24hg6NdMNaA8Gch773kSFgX5jyOKOQlGmHvj75CRFXpiQFqHwWcb0vjjANdqg8JUvhCXrzjkLuR5KePY8l94ro7CTakNwPg9MICaXAFvXGKgVTTSbQDf4xylhYdXb29H38A02mgM8Pv0M10GWh/jHGtjLnAXWGty5aYSvZp92UA3Xbnrx5xV24aHfOCFxZrZiSvPWHbrEa2YOUcB6Jnes+O/GNI47xJnDLsZ0P6Vz7OMnxjJyDlscmNcObZdSwzZNjnF2Idh3iObGfbAAIQNA2oz7H5w3eyKN+nEwNblbV5wiUrxIbCD405GO52E23kg9+Od4wu/e5+t+j13hOqw9Do+zQl995sbCaSzQGDEgAg1wH35xDgwaIcD2IJ8GA44AaD8ImEVWQrT6lHyYAQmvLY5VUovYvXOvvgDTv3x9cUkGO/rwT/mK0idLzxgK7IOkH656JX15zhNHJvGSy0lh+zrBSqzZ8/vjuAPOEAV52+PrhuYXVwHFQY0t37w21QFs19pjICrR2efp/tYNAbtNafOEfqajen1/eUGwoc9/GWFR6NltX6/nNOIQFhz1pee/GLyqavKQG4ba+vOCp5O8uIaFHrJAkbOJgKR36cabxs3FpCYALsdnWTU95wmzcyp2D056cakAQLXQcenx1lorn3kKyPuawIsiHJdTs8ZwKNNTDEXyr5rBC3Hm3BGvuZE6GMB2iL97aZsIk8TWEbChuKd+sYEBk6poDr3z6wieNXonaz9/wAZStTmi2b9ZxcLybprxQPt4hG4tr3eWl4qLudK05UA7NBOpCesbrDlp07f64xnxGmcIvBw5xKNvGWjzlwfvjTTW8OU8y4Ls8YvTN/l/eEp7zhnWKvOTcyARuUh4xidOaPjoyb8HGPlhamsDa4QrV/XX/wuDOt4m+MWdpmi+cp1Zggc4Qx6lXLsE6YZpLNvbMdDRbPWucMSuHT0ecZ6nD2VbfvkFUXyF7+k/GXs0hmaQeGz64eNMsLp5tNuCjfuUIBaK8DDbELFl5GiXk9cjp5KVsRB2jL4ziVOBlb4u29YzhDiiCCeUPwDguxlt2ymcanfk4GyyAUoHz+M0wWzRrqn+94hHwN6+uACGc++OP8Ae8iBQKQOPr/usa4pwC/3gBEi0ID5nn6Z0MpHj/ayjlQE4lyKnyPjg+2XbHTb+HK6RX436wHNof76YQb5nTXH7bwQIjzdc5AFKkvXH0n3w6aiqH3WY0clQLafT98JZeKKav8A7jBEg9iT9pMcF5YDbOgvh7wi94cAN4PkcdbfOB/jRV3dn3EyQFQYG6bNGUeHNDW/OAqw+cV04fO8OhfMvOKABTp5zYN+rLo86Hxs+uAD1oczu/Gn6fOUkVaVa0Tv5DrE2iKQ3QkDyaMcNhOeM19QR3Kez1/Oby4aEeZ+OMKBd0a4Oj6BqacVTdBS8awaTQGnLuee/uZoI1bGI6fGniXZiBRnEAfJZvX9ZsIZjiH/AJi+bMo+y8ofgb70WUsCFaaXYqqrzVd3QcLa0j3TRzmiganmnOv8OaHDddqHv7Y230bvGaSHDbnB3vxhpv7mURUxAXF8lzZ+zBod8H0we+WawBnOeXeRt3kKuDTeMVUBTK0nOQ1xvNG9Z+HjEwJw4cuKLxD9brHRm085bXOAV84tec7xjwwR/S84Nh2Y8PaegctVW6P97xWchDBoIl7wDBE2ZwmXhpPN269/OWlH8aoZygGi10Hr+sJddkZyKXXxgzfpCVUwqGJIy6d4TIwuiBOxXnksZqngUbNaj0dXS+O8M0QGlTXzKZ7DiZtoXSxFugdv0PpiDSThCf8ALlaAqp5eOHE2gLynVmQzvQm5fPrAMuLYGj5yoqcaE/nAkkvwP0kLrxjVk6Im/VMRUFXQ33v+cZYb1Wt/6YhHVamv8Ylogpqn2+7gBa5KeePxgJAEgGjfJ5/rEqCyNcdz1/3EGoOduCDN75dbzbpQhQb+PP8ApiooB6URe0+vN4yoUelBHrzhaLPVh3rceBOJlQTZ7uxYXwzjx84BUKskDtDatV+/jEKqhNYYM37wCGj1MkVwCFiYTDQeu8KCT4wTkJwHOHZ7ZECihiQEE3GZ2fcxYQRPRStcjPqZuldjTpF5bf3yECEYB0AHlA3/ACxWjyk5UT1Dl/0wCqQtE3ADnWr541rZhpISXknGQ0qLsARXi+Pw4QdIArtSK8OJ+fOWqEABFMkr6b98KUkg0hEKbD0VzMNWIlDQ3FHzy/feKQF2OyGpDb7byjMcgK/F9/1gNBVph+f7y2jfc5/P51jGLrjfnBQnXl04Csb5x5Gz1ijshgqBvfGHT5M8xq/tjJyccYwO5m0nE4ywsSYFb3zlTgd6csE3fOanHx/+hu+c4uUfLBXxiAdbMq+HjnThqPzgV5HsypaZd3FFoJ+D/ZhRKp2NenfzPriKgrkkZxuzKxoKb8X+8jvIIJs3z9n856DZRTXRPnBTAl1PjnKS0BQkj6m/xiM9g0LqH7T6YU14+avQ5N7WniY8NIt/4aT02Mo7g43iqOWgbOEdlji5rIYyvXSezUwwxNDglcfx+ccEzWwmm/8AMaTyabPu4YWA5kwSLG+VMIhs7jkxWadOTX1/3xhyI8DuT/3DucrrSaePrkNPQYBcGkaZzvI0DTyPHzidppSP1n1w8lHxu9dYUIAS9jXX4wtYIs5u94OAo5+txnIO3LfxlzYhAHo8wecidchPo9M2DhbmoncqcmnRPtkREZCedHj1k9u3uHLK8GCGxNQKSdIvHjCArsLc1FH3c4oeecGohr3rFHSP0zQBZe830kOnrGDd3YdYNwhnufzlkLX3LhVuCRUKCB8z7YEHzSBow+N/fEZtQ2fbr9ss2UAxxvjnISaw1tpMTagEo2qPej+MWjpb6HX84wjCWKfjNKwbV40auuePtvNg0jy62B9X98cstVGxAFmwt1owtwYL08s8bfVOZhDYxaDTk87f4PeQYFiyzjpdw8H7YfnBAAu4fXvrHF0JEUfV/rL0HJg/rBudeMoAVfGbfOJP7MId4n0axtPWnr/Lmip6uFK3Kp0uNZQXAsdb6M0Hdd4kJw3AkpznD9R1ef8A5HOVxfbIQCvjIcecQhxkRp4yVvnF49YxvrFOHb1iUH3ZQPBzkDYhD1yrcMS0fwb/ACZvhFHDSgV3yH0x3djffjxgfQJThNf8+2Lg5OyfZ/OSbU6AHfeEN1Kn3LzlGwRlT16sxySgiGghD8ffjCQeSCr5Pe8PJ2kPEDwwOJXKZkQzwuhYeZ4xC0Uo6EEG9RJ9MstYVT0S4gS0OhTDYBOhavEzmkiwWu/Jz9MQJgtsVf2/nJtNhKZr2GOJWeT7OPzmlB0BvkM8dPsb9sBQbICy7NuJ1nAo5dbzZkuj2Yo0AYq3q/8AMMCBjR9P2zVOkQl+N/XCCmuhOE+esbJqb3z9sQTlibTvFVCSAifj1lwUBDb03Lv+cdnZMQ3s9+Xx9sUg4U03ikjDjZ+Ekoloa08gfSU7yNo0iHIjdiTEwEHr/OGAoNnD7uAOV94AGQGcafjEmKeowTqg13iGSvk7yQC8auKe6caRp+f6wQoZgRo/9fvjOECqscMUh4gmzrANQS/Lad6yhNVIi99PL1wHvAcxGuf9ZgCpFIMmvk8f5yQYrBR72OuHrvEyN7E1WG7n3F5wwhGi6Q9qX6ZGMy7D0tBlf++pN/qCkIciHnv64SDjYlaShHfaxaaPUnENr+IejB2qjbBnfEOzXyZyIPt39jj/ANx9kJ44+2AB33mhbhs26GYNw38YHh11j065zrCxTQzmb9sRAV+MGGucUD1ginnNnL1iqF/QG8nWBoOMpjzjeGDxu42ZefPjBVwl6kywccGWIzn+i6xUbw3NDfxnwrB1ZQezFhU5L1P+Yz7wLB+fyucvMAU1lnpFm1qPD5Mhkk0fJrvNIIoJUTfX15zfRybRda/3xm0xLTyLqm7hlFDbQ0r3E54waraZi3bN/wDMFyRAp8l3c1rjGsuojZ2FsjcHx5xkugCidg7Es34MiuVbdTjximm1ePP+MIBSn3GsNveBTTnFOSAOo3l1xv1lECgGD198lGVj6OEXaLy5v/uDIk2+OO36YYK0XW/H1xbHEFrv/f1gTJCt1/zIHemhh04HN4MBFvzjGXO9QRHs8YhgxhHr+/8AvvBRAQ4b7yhKdp2ZymLR4vB9s8CJL0oqcOPd4pWo6+cck9Mz2PIfXFayRmAbDZNdp5LgAgmN2mzbtKK2HgyRQYlafZ6cRF45MBBsBu5/fYLRt3syjFj71cmQEbEfOEVvhp/GTnsT1jOoaI/X+8JxNCTgH536rmqG0dPX/MdZB863cMwhkuuX51jVaFci+FEonP5+0uDRvZQdHxkkATfQeXW7QPrbiFTWNgHtsj7ZZaYIThF7V84JsZLFcAlTU2yGg3YKUkCDCI0gBwT7uWLLBVUj8oEyulhWgTiNPB13nBRCiL27+DWPVgKKj1/0ydyAeBwVuW0dc4tcuTwwO7XsDG0eHOBvNV1X9o/TRHjOeXPT9Gp+qzHe8ObnDi4sq42h1jEdvOVSaxY8zKbFPnEDXnBO3Rlh7Li4KVI4gz5ymEYtENY0RkHRufOGuGob4vjF2NIwpDn6esABgDQ/Vk0bGRZ7f2vvAD9SoI06v493AG/VG6wQhYpHkePq51JIUz0etT6uV4GnV5Fd+w++JSEsqThUbziY4uNXfgY5J9WNNw8FOSe8s8dIAhk68mbBLoLmsBL9Wf8AuSiXhq7u99YdhI7BuGdCCGp4yZtA6KG/J4swztfjf3x0T4OO8XwPBzOzJgMLF7Pj3xije0Pc+MBEdrSI+/xhCuAeQ7+J2eMA1aEJ/rhtBBaia2jz+XJpsHToSpPif7sOUZdpre8IMB4Aprm4gbgGzfqnvKuCqwbAvDvnBY7KBrrQ01qf4ymGrIEBvT5fOWA3xV9xwUBUVQoTe/MxoZEQmqi4GTTveKJEOticB7H+zrHbQEAXnC5bOpwYigebl1Q9VjCS61rnEUk5aZPn1gDoE++JKxRD3iBrwRisvv8AaYnUCEYM3ZOwYy8Gr7Vp/vGcGlXfbeObbt8ihp3pXzgi+ZRUXXmuB3ZIblumF6PnRpxHgLdtBbqcYIsVqhxF8vQ3h2ILh80bYqhEAQO28tl+2uspYRt0ULdnYPvwaM3LLRA2a6l3wh98A6FR3N88LzgFGv8AYxr+MWccv/ETEWP5j8Yqg7qcOBHrD/zmknq5MF++Gm/OCG8rn0D+85foUTxgV/TWcJ+jz6/V0x2QwSZNRAwPD4yOj9M1vvNA3txnIuEt6y4eC5rZWlQ6wgmAgdv5wAl/fFIzEidY2/aNtbaxkCmkb27/AN5yPy6B8YzC0ATl7+OTJWsDQ58cYMF6J1HU1m7yAoIk+Hn36xSTAa26+l/xhuprS71M0CheYXj/AHeUBDBEmCUoN3Dy/wDMRoD7oj2++E4LGpQcXipmuog8MTVXs7wClYNht8ayIdEQcBNgdu/jfxhiLJT6hiR0POcgJbs9+sMLh1p6v/MQtc0mq3/v4yyCS77t/nKkogakcYCrNpcANezpJ6esQ74NEfzL3OTDNTH0HY8fxgISDwb15mWTQLNgPVxICEwE5dc/GJQSEWEdDnD49axuzdnXWaI2rNhAD6fD6GGaNQbtJHBkAI9H/OMFPUArSvwcfxgphxsmsaeKfkM75kJyjnBFaE266wlEr9b5woEA5feDDmUEQMugvywMHjMhqYh47UpxlsjsCTYuwcPZRoeL9W/nFAkRVpp1TBI+WnGRKq1QF49P1pxRblqfJ4zUgcnW8MLpdyj0FG8HjzvLQByz2resO0dBpNFUNDn3vAB2XhAZxqr1kGQMlLxd+cYj6B4o3gvafQxCA0Ma55OsSSyAgHx+cWTFJ3o8lPnGmq2TzzbPV1iUw0Oztb+q33jBQSAmth/RkJ4Yor+cIWgHIfoGqeHE0Nvc9Y6GNec51Usfb/Dg39OGOv8A5Jf25G86x41zjk3PeADXWO0sxjtvnAv0YbqmvxjwY1cDTee7B0mMuXF3Dfe8LfGSfTiaYQS8uGgMGXLt4+EPvmtwUnGu8JoShut63kPLmnIYVEvYLy88/jEjLHBOj/3IzxRnz/hxIBQXYO+vOcli7JzNcnxjNDw3t25+MELESE4mBXBEB1x/33nNuQKmveRp5oxQvqPvgEoISIfVymzot6T/AH7Zwc5K61gTDsqXxgIAZQN7+MDaGbA7uOAMFMjYaBQc6w0QlDdoYnDAa8O+cG0tpTxkarouiL4wDdAEs+vWKZQttfG7l6yKqE7s9YsAkMKFtv3O+3HZaTRL7Ht+MPqTS3UfzvLLFjYTZ6vm5xFVS5QOuOvGOGBZpu369YSqpq0hJPpv+8pgOyPLDeGM52sGeTjK2TyTW+9MXk9HLACcJYlT98Ame1qEHh+5gRQtu5cqkhNfUfyYYLhEL6uJZPFm6p60CAeL9uKUpWVoNSHRXB3iJYQAiOz6PgfzjeY5WskiWgfriGvHAG+UOl3WtkMdIEKoXSToL98WET2JkGo4VBDypy47y8XRtm6Xk/B5cKxxDzONb5/H1wfkbDbI2dH4wCQI18muuDnxkKWwqBaDgwbjld0AjfUzV5G71NTUyxZlR09nTuzID8Oomy+Md3Ajo7184lBfLx1f+zFsNi4IPQk5wSDr84idcZxxROyYmekmHtYqHSr+wZw9ZX9FmUYswbDH3iH74OIYMF+2cpcJFs3jV9Z5DFZTjxkecE3zxg7xnDeEe2I/R9GBWDvxkOEZVz63i1boOAaEPwN3rGBTWcNN/XWKFAgR16wDDUaBPr7zQC+RqB5ucQETovnKKTLBhnvnLAbkTjfJPEm9YMpHQ4U3oZq4f5DaPAbOPT9cQoDtAeJZ7nejGiFIDvj/AJ35yxf/AGCaWxiE4j6xHx4EMKk7J4byhEioPXH1YfXABNYjtwfIQchHrnHAIBy2++cTUU2PBr/zG4NdL7yqRxoT3lrJWtnWAkkA088dTGAPFsPB1xhPIHl1P2wBiwowojdikW6xERM02Ov5d4tIxAFFxs7348nOFcSZrQjJ559SOACkaA4Otz/c8YKCmw6RCP5HJ9grpl8es58JotiY4CvYLcpbutP8cuADaaAjriddY2SLIKeN40zqTTxh5RsLo4POH6LslsB8gXgtYDjdiZSCPKWMVQW4bwsBiGnN2QV904xeMs+hQV3WWdXyYCMGhShF4IAAY4wQANYBQ2VG6qzrGFAWoDnHIRnTcOBk7qM8y8EILaCGILgU0kiA4HexrK6xPTMQDQYeFKGjHaooi6z6VJ5MVEHRdl1+cYApCFBd6j8hOPWT+AOz8Cyvhv1imYzFQ7Ryb76WHOLpGOy8fExeDGyxR44nrIt3eZ3aw065I+3WcrHhFFWoJrp5xIOBDfVXH384+t3RzdvMNPfeHRC2tZ4JXCxpaQbN/wBmV0Lb4wGOnIsA8zBK6vUMIn1zZ6DJma9s0yOZ4rx+gUdZu/qecmrixkyAesRLimxvGd4OXneAKrxkInJjEYVq8dZAQcdJgwW7x02mbyv1xIzPIj3jNeXUzbVPRkrqTz+iTAnccr7cZQJpd3IE43OvJxrEpEjtf2YVEMrsu/PGawXCI456+2DGLXA17nneMgIQdHy/DjU5ozVePjrCYnug0/31jbQVaiXZ1g0BaPYwoUg0Js8Trx4MKJpKXRHbXd7x2RI9AIfP4OAwLPz9sewQNbNU1+MNEE238uMWHo8l3/zBQKLtkR9/+ecZq30q3DAPQZ85XvdOriOl8l4/8yg0Jst4Vh3yZCtbxTTnJiCi1r+MRcAtAH7vnGbI1zed4uINgdviXNUUGPs+Tk78YCLFV0OD+3ERlrsHCX3x3jkwIdteXlxxC8C88D/fTKC8hO0QLRFnGFjlAijvf3xLQgBI7aTHSEQwINl7468cauHSLkUsH9I+A5toRiWoK+pjuBJkG9NR9VJ+2gk5ROKmD2vpgIxok8FdodTnnFgoScs8Cq2G/biXkJhU8kkAtHjBXC0dZC2KjXW+3DwuJJVXGkBZ3qrIoiluiCQ7DlecUEjYzC1qcDrH4UCIKNhqH7jAWgibPIX6f17yFts2DT7CPP6j4yQJLvITtG734usJGIwsInsDLWshrJiAWdnKcHHxnOyiDgf65pUICgUMG/g+2aN9eQdvv4cNAKhiak+fWcexGA3GnGAfPabfvk5Ft294c1uGD1/nBAacOK7Ux1qTvE6YN9M2mWI6BfvizLu4vjGuV/RPWDdTFUVty9ypDXWKIDtyiFr5wWXThw/jBhiX2wVdY1eXNqXWCLOMRq97wQcLYW4Ocpg83COGYbDyYgHnc1lAVSGN4hqmw/jDrIOrzZT8YlECbfFwsIhJCTz/AHhQgqyDPD/vOIyHfDx+zh84WyNC63x/WFaADZpPn8YSA0t/jE5ZAoO/GMwU06ez9ssShJ8c5rBWOn/cL8AQQrQ9wb9DKnooReDjXeAiN7BmhyicPuJX8jkQgvADnDboDVD8Lmywi5VHJVBGb/OsEKaLnjCYD9JgnCLs01v5wsJKS+rf3ygaJ0Mm+8VZdurgg9IJDL85uSDQbk4s56wbBo04W9TebICGznjVPG/nHDQBAs63/veXREZTsdXn7mFMG7B5IePV1ljbEOhCjfnxq7mUQIuBT7z+cjR3c+F7984hTCFAwk/c8dfV9KPgrzPpx7Jx5u1/LEPYeNho0da6mFRyk0CSt+uNGOrwjBLD8Co7rccF+dJQI2omzw5baEIOAhGutgpvsnUapnh89+G+Mbhlu2u3y9D26mAlao5dxL7Enoc3d9SHttRQwOVB5hUMBzEkAutg7Ma9BvRJRhH2jz5AKQhQmExE67513hsyDLuADbQ/VeBx/dPLxWHVvHQBdYgopa6UGv1xjdwr20mCAVfAiJvV3Gu8l+cdJBjw8+fpnANCIUo07+TKVMRAxnJR9n98Qc55v2c93vNFnpExt4tl4buRLEA46yeQvRhREfsMIg+cv1w+MzhFN1eMluaN53TDbz+lGYha5Q6uIG9+MWbyTzXNgJ71jHzswFt1lGs1p3hrMCWh8s0b4xe1nzgi+nCj36xNOeHFuDcsxeVJjX3cWk5CmUb4e+KQ1x+28LAGdLBF37mPvil0dn9GDOJTDoA+DpmcZHFtZ/zK0F0fj3gS0gsJfGEUAPHPHrOErRb9WCXCgTvJNbOk7eOs1C3St/fAtFiXG0V+s4Zv3OUOALYhOXbfFZwdaecshpGoHJiooYqQ5cLS+CdYiLopcg6Bsb4xCuVVYky9sFms2YQK7+efxnKYpzsNfUwDqa0hl4Qp/nOBQA6OrmgAaUIt5/HjDUVIoA7cnvf2TxhrKBP9Jp4yhBEQo6m98+fHxm7QrQtK9883WABFLXH9ZV6PEtTc8eKP7EFDC+06friJqDT22d/XIKpQQlT1qg8TBxMH0tjmQ/THCJEWGo+qW3rubwCJVmBaPbrx4fGOPC8+nE4O5sSteSD84rMdo9k32VP4yEPliBRGlo6t1qTG/hJd2jJDYwzkuWPNaZAVFCyJ1O3DFBAI3JGw3tD2I4Hmb8BB7q7SrGgAlJZKhAFngMEm0pcfo8rZ2I95Fd8KiZntQHl9uUVvOgTsatS8oNstsF88QT6hwV7/AEKu+3nn/GDHDZU8oEfpijwKEEqo5fl8YYEQ9jNc789b4yFoKPKbn2r2a85RwLwXChEoaBreRKkMqv2zetjWrkdCO/4wFEraTjjAzSZtw9Gzxh1qaO8GqGk866wmQ8ZA4xC3vDn4/RDzeOP0StecG6bmPJdTJlF3gIjiWN4g8v0MeMXg8ZMa43lhJgO9n7YNPe1xRpyHWnvAwmNzyYgRp8YHcX1gE1vcx14DBmUrWx4wDLNPLQT7/hy4Q2Fm+/WIgAzScP5woXaNxuB0/Ifb3kkk3b+7IBuhHWOmptWu5eMscdE0ecRSoBPiZaHTrXq84xPcU6xlB0l4u80pIE25IaJEeQQdfLItK1urh70wDsjkm8mQq4n8/jCTR5qBXoww8LPpr98ZihTE55/7nECoDXzfeIteRudc4TDpIHj5uKggqcy4oBWlbJaOMUPk0HVxiYBW8v8AuIWI7PJDjOVNiJPOs2cgIWr/AMX7fGGO1HII6T1yYlKSgQT21rEMCokE7/32yjYEE261Ppk/lA9VAShR1zvWBYgelce8Ri3Hbt0fb84xLQ3ycqAj6clOIaHyZr90gKarJnKigPS7dcbOGAk1m4EIzb4Eh25PRlBxt+k62cePrljiLwKk00gF+LZYXsK2BbDqrad8iEypFrIqBRK58eE8YTTboTpAE1Uu9S8YBlJIxc6oOthdYvHLmI1UZXrmFrj7GCILG3hRHe1OGCgaZoBAPgmJix/s3eVqgHnzt0LWjhR5nzXAwnS9FifQM3JXKmsc3HDT567/AIwuzo0i0Nhrf4xsM0muppydvRm6uIcDrTBeDvAiqF6nd2Iz75XvARA19XHkxK2jeo5YIREu44icK++KDChMpABPeMWz5xZjJ5Gsfeq79D9wY4uVR1mhfrlqx04mJdzErrNqbiZa6mJA8DikVx1et49q4iaNzb6G3B4cKi8OLKt3iEvJk9263jqQNTBHObeZlNDjuDLcRcAaYdZOXjwYIYzWKgJvIIr/AKfjFFWZp4ceVA3istCqvw2+sAdWA8b8cX43xhaNe5HfXH7Y1IgGG3et+dcGcyiijTfN+uJoamV8f48YkukUdZJUrKy68Y8AsbCE2XxzjgsRUaPH8Zt7w2TnLCMid3/GEcUe5Or2X74T94vCtjiKu99T2n9ZfJlydPTkfSjcVc0Ukv4P7cTo0AePeQEhT6d4AtagXjnBkYpTu/7WMkhSI0dBLrBKAS0TjvnFpHAoaT1iU4lDUX7wwaE+ktqQb/GE6KHOp0ff33mliQQC8m9ng83CRWhbBnx/WKkgClI+n3v/AFxRZvJrh9dY4y/EAo8+mUo0sYI87PjLeKErvx84DVLQjLIzfP7Zduo0iNr/AFmmpw8NI/kmLBuEIbsN2+zCNGYiG/8AOCdrIaTpSR+Rx6+kHW7oN3zMYAMaqagM47V7MbtDk1ntT7vnCIdxfutgPqOWF4CAr4avvP8Ao1W4hnrl4LmrmIE3VELV+VXvAkO/fnDHV6ynkTYnSY7bJeek8ibH3moYoRYM/IONWR2a1Jkn4UCIQuz+st2gCkemeH34cPc1ZvTA0l3vw68YUQ26Wp/3+5rDUbB2a9XX3w9JFBQPjfmZIRXii1p8nN/3Iu4cGI69XCxIS7YRXPgcaB2iqfphOIvaH2MSIcY4zYh7AD+cQBOMUULowcHnDsyw3n1Y9+HN24y+saGv0bK4uCA7xIbRct015zRrQZDFF3cLIczBHbnKIurghl3gJafTKznAj9BLPGV84hOZlvGK7hHlynDDvnBQpBR/rp++BHtKukcMSlgVDHn6mcQjaHE5l+MtBEdHY2/ynqGEEkQKRfIyk7Ngr8c5WntYj5yrI3QnHtuEKkJJqHeSHyE5rOPxjuSjTvvjDEx1wt5/7hYoPhBHB9cGii2rQv7E+mMNA6PHPH3xkUeMW6ADBAfk84N1wUfrxm4XWAQ1hvXuTDBHpLqZRGdDT9t46y2tdhvZ4wWiL13N4KAREZ9PnvOSwCeXf74r8KtoXjAgg8NLTk3ez7Y6RRUjxsb/AHxn0QNBszYEoFbvHk8ecPSTJ2AEUI8ho3NZJUTlUODkQFcaxhCEN6fW745yMaGhaGcg9l7wYbOYpgDPm/XLjyJ7t/31yES0g0l384x9rRLw7fB3jqQkHFI8fD8YMIBBdcLrLcxyQuHZOkJ9Nb+zmpIcbR9mGAroLsPnrKyAqaNe/wCMZwsAq7uzRD0AecG4E/RKPWaTt5EzalYrThIVISwGEfQxv0y22zf9fT1izQ1GSN/eTEqgajFQO3uDw9cbwUAIYKAeXsPvii5ASRKyTXjANB6BocAEBriestki+DfnHCQ70Dsf7xPVpd/41+Mfi1iWjrLDYfGC6jbnEN5tEjYeWn4DIcrr7YiDwecla17xIgyc4lu36YezeNKduL5TDx5p9srp084ihm2H6U2DdTJEOfWb2xQnMyIk377xKlMMhy5yCQ/fBdOLIPWL5xmj7YoGXBHVNbzbOnCsHjclyvUBfjX74jquqH4uFMmtXjAGkQABjp3vrg4wapBV2/6YlslroXjR++CGNSsiHX31iySJqnPaf7xhbrta76/fHgg1Ly6ykfW9btwyTxE71/X5zQIgpjUCglAZr64xN9yhgHZp+jHVA0dOZD/HWC80b5XDEFNveOkCT4B/jIhqfwwUBwB/eZKAA7eusOFhIzr7565edNX/AKZJACNC8QxFQBjju/77ZcFFOg0bysFIppNG6Yb5IigGu/5wdtByL1DcnRzgcR06LIEnN/6w1KiD8v0zj41554OfplGJNGkhCd24XC3AEBdmVCees1YwhhQXdancvFwYUxtpiIbTbqmIkGzTc1Y8JjnWDyEpcUWyxFW9YulQEtgz1134xoCe8FlVgQXmeMg3qzQeEw6nygJvNz6I2YFXOG/4P7w/ACgoGSqkXEzkD1Tb0Q7E+HAl4hwSfOb5J8/rbkbHNAz2W/TCU06kQUfTKjQGCa5oX+Md5YCOxXvXC3rBhrG0i0OQdhz68YQ3iE7uR685IampS7vz4zjFhqm5rOFxo5wo1nIaNYZKj5PnA+vS9A8axhKgIWvy/vgcIXxnuB6cqYLJ9OCkQ2YQhbgulhhBZy95WzDsOO8YGlzZfGN3tOsUrToyl+mb0pMI35xAj0xNXvE7R+EwXh9Z2LEyglbMGD1ijhO+Mao7M24bxBBvzi01xrDgmWEje8je2aGgTjIMdZsjep/rlaapIjSr87xnU0ATR/nI9MBf9x9sXAdOob59av3cIYUN7l1rvyYQ5zO39Yh0cn3fWUo3s46yiH5x6ayWYTeKlDc15yonDVGhOf5yz6ijkbbPGayc0tkuuR84UD6JwM+uz65oXyRgQj61kwgq19UxTBpAgqevwYgCSBU2a+vGO9zf3mM7NBx6yhCNWoT/AGsekSbR98cYVKpy5YctG1Kf7eaSou3o279f3h1WjBOv+4RpputNFs9/1h2BbTsC8fthuJfTfje+rg3V8A14r/usYT8D2YLYGxNmHHufd+cm4rOvupyTnzgIKoBoXgiJ95zj+yAWggLO2q8QyPkaIBITyI27NuIul7zs42Tkvp/bDScB5snfw+ecYZSufKjVSL+jC3c4g373DNSJ2Qr3xzz+2aMnAWnnkyVuDq6Xxi3ETBRp6LU8hyZozRw+cAa8XA9C6xYYDg3Ld5Uw7kEdC+gG/N9ZchSFkPv9PrkNkSyINFe/+/W6aMCOlGr3PH51m6qAinf0wFBoARfnv1hCD5POSAOhMEkN3INtb4yDV25ydvriIq4OTGhOj0Yt1orjtdl9U/zkuc8GbDithi2+XAi+8O1x8t7w0nKJzTRj2XjJkwga1nOXFFrh6wAIVuKA7e8oEC3F/QhNP1wYjd4tzRmbFwXRgv8A3CmYqoxcUm3nGQIs3kZXXlTaLP8AdYiiP8Dz9cE0ABrWqzrBVzopY0JjIIoFKlNa47y6wx1fhp/0cMAco9+sBeRyvzjAIIc++8bsE0da+cVEW2TcZ5xaexCPT/nEvuPKWhU93I3jAk3kPaX183CS6w4rx18/JMgXZFaj29H0xBqBcaBqZVQRHVcFRWkdCQe/9xgBBQl1pXGhW6akzgdh4+HeEhbQfXzgANGRLHHIQFn00Ys40rOnh1hXOFtNaD/ffBNCiuy2/G/OAALFpIFjyTk5xQSlXkNzXik5woWmIjyXf74w5a6el/YwrQKp4DvUuEqDpgNZ0v8ApiwFUzKvevvjP09gIK2X5wEOXdSOxCLRnvINOwB46wwVrqFnzm+rFA8bkPZih6IZNofxvyZL7ajUrPuL9ciK/wBDcM0VfLrnnH10wPIwYbChCG+CZjD4EAPE/GVIXnHEnW95p9ZToO1yI7fowg1CpIPoY41kYhqXt5Djkw4CKzJBRvjcyhhpBdBR15HnzjzxDilZ606l3iALIum8YEvnCIWONA+Ll2R7wtDrAhWrkbLWhXxjEMGjpSH5c8jiDN684yc4k1yPN1mp7y93GkYajIBiI/jGBFmU7cYANneIAwIOriGk1jUdMyamWmtZqd/op3rAGdr3gv6ZSq75uBB51h0nXOAvHznYYJmBeTWbZGE398MZCrF5O/4wlwblXaH/AHGn6EI/f6f5yZQbd7OP/MbZ8iTuNvOrzf8AivUTyGj0KI446aFn0PzxglgNAb9MCUG3zuYZulYvIs/3zkwlHzOGnX3yH08+qnF1kkk+yLkDQ8Du/V8n5xzAU1sdrfsfthOgYYBde6of8ZRWoXib7xDcLEGzic5YEIQOtf5xxFTzYw72Pn8YOoH4+nJiANUeXH+M4pFan8Y+CSwbmnOtqMOyKbxS4VwN+Dp/5jhGiRrya/H3wklia1Bt/k66xNRuAxps0pvhyyImwQFfeAAi1NlIJfvjgF/AJr/d4lgoJ5JPnesgRHoibXGvHPrnK6A2l5++LCCWjwa67N37Ywur0AUBvaWnX/cd1urTnEtyWKKmjQZD7HlB4Jp+M5mhv2V0RVDTTCmd2aimCj4GNJ20S44SSgMTiNQVxrtJg3Dsj6AMNHQTKDr3gAcuWcRY4HTjBZvUxxo384lJl5wTuHQ+MiEh6npOnRs+vpzBRKuU4FQ8pyZCdmdBQmwf4ywhnBuj3S4A0o+G4TQ8YUHXeTXl7fWEL1CHnApjDFAHWUL+2MsUTn5b/GC+2UTXnBcpl8cYOr9cXQx/jEoZpPLhLzMStHGNAHnGIMfjFOQD45zdO8dtceMd9Snecv3/APmHJTE3nefCeMd/Tl3hEO7kGsEONecGNYFZNeckwSD+cmlnBvP3wtRiX3r+sjVyacbqfnICgIibYDf5/GLKKCHbb1fRga4OEsIOT757zKqctnvnKr1gtcuD6FWpnzhdt+quvzjo4ILPTXzznEd74BkgG1biKqqzTFTo6XDgYQ88t/rFKoALyn5GVjK33Vg+9+2cDoAXuv8A3LFAKSvl5/OaAWhX+H74w2AwqLFN/Lhwg6B/bFFKc63d/wDuIE7Cc1wSzhyd/XC2BVGXVNfTnBwOAIgjfzgeUDQF1Hh7h9jAqEdiWm7byv2yWUNxdy86/nNUgNqUP9cFpXUn7+sN5vAqzT+x98cTA7QOFUvLrEfNO7Xfi/1hItLqWjXfJ1hhO6Md6VDQO9TIqgbUvOQCkJK86P8AfTELLc+NP++mQ+4nBfCSKc7PWaQVO2Wx2kOg62YhzWpARGQNlLg43IwaQZGwT1kGDhwBpYubJ0/fDSdv75Ck1h8Kp4yarXFjWzUwh2hwR4w9wUO8bTEgFmlfHd+XLQ1vtVvg3HrGIDU6k+G8RQFTT33gItslxkPhyR7eMlOlZoxQrc1M8Ojw4oHjWshQ/ZdGAEeHCb1mmeMoR7zdp5wVYqIeMsesJTvKtsifD3iDvEUd4m31gAfnFFs+n6PJhO8G/pLc7X4y3D/zFHe8QQbjh92BuO24pp2eMRFN/jAjQbMdMm9PkTeakBuxPeIB1SPmYGZAguzxz4yI6SADzN/6YD4FiPWv4wWiEKnIt/bX/maR8ErnAPMoFeTRjghVnBy8nzmkVRETo1YvJ5yGHXQN1b78ZZBFOXKeg833+28resWrdvYr+rmowjzw9c+f4wvuMF6ctZTaldA/V/THoBgoJf8Ab/0w7qDJ0JjrbYXVXEqAK9zezv4xNxMGF1r5y4oaAA39sAYG6njZgXdqBnPj+cmAEHR43r6esGdRGTvZ++Hd5Lz2fj5yVCOiQONmVSzmDYT4xrBKgNm597++UtyAi6UefpiuiBoGkT3Mp6U4Mell/ub5wUQEW8d40ALhDkqqsvHGsEEFAzQKHvw79cYwapLzLkWVBsTcoloVnydc/wB4gNCUznLt2njm6yF0KIkGIi21WeybJ/OCioeu8RQ03gw5Jt8GCbqhvJVcJdmKAXd1XvEtkpgCw1+yZMNhzfOSUgV4x2duUIpALx/2Y7FtAs+vZ7wUN0TcveBQkWpKYJeBkz6GsNgPHRnZ3cQowuAEKe8FTxrIi80HO/8AgxTTRwXLPl++CXZMhJxijWO8YXs9YOy31jo1u8ZYFOcDliG73gGztxUXVXHTx98ZBOf0Ci+P1qXCXeSXPqwBrxiD3g9vqZEN19YWhw4vhgHycZwBNOs8VNge2JE2pV5r4xQaJ2UIYSwq+dAFn/cet54imkn3P2wOwKNODHpwKJQAdtv1MYKapxfrl8EoFNWRydK08zTzlxOErrvOoBkrqy590Lr7ftiNuGWAA9pHwlwiBzegIE8G/GADqtE4JiLh6B3xQPvMIAXckUFPtltFBTfgfXLRF3svMyqLTs+f9r7YIopL/v2+mCaxKLOfOViXoGy/9/GeSHJC+dfnGQSV2eP2zbuaPi2+SPnKOlt6tJ1fC4lCSAaEvrEmQipBR236YXmVT30v/MZU3aXP1Pp98dgAt8Wtf73gaoKIho0Hnf0X5zRGlMtouny/1MdhYIcltb2dtthv/wA1gcUC8Hb/AG/jGJqAIfbFaQV0LMhooELvi084qihgkw2sjoQohO8AN4UTgDej9iZ1BeCYqTFA6/8AGTQ3B8h7xCAfXJ+C5TZGg7mId7cJ8syek0gvn39cCkBwXvBEqDvFtbcdflde8uGoDYIuO3WN6aUqMOtAFpb+MfmgDJLNfGXmnzMZoJDvGKd5BFq4egr3hUaIGaOm94KPAl8S/wA40DRiaW4A3zg2l+MUk3g8OzCoDreVebgNrNAtGIhzLXASZXzlt8v6U/8Ai6Yw8Yv6LDeFTnfnC+sZ7zvvDbN/TgRtzfp+cjCsxRmDF+RxdjaR7R/5iBLV6a539sS2s7D6F5g7nOIVgQ0dJHHyCaNawBH06Vf+5dwhaGs+TwmGEy6AnIfkcuVA7B13/wAwQwIss2d4FQat8/7ZghuNjxrNUiu1WMe2/fYbNWDsiaPWBCIQ+2MPjooJKvg69ubdeaVFqr5yHnmHzOfz+MaDlCEbnOWo+BJP91kBW6hPWUxTPPGDSUym9B3nIROTpszUoiZ9X3ihIKgKa3r65asDtdaOJrWvxm5NUum+W/TNQCEN/t/vOBsCB9Dn/wBzbqKA8/7+sqWwKqO/f0/GMuKMXanDqfQwDUoSLVfE6eN4doMHLr64iS2iBvvPzrfvJfzIa2oPHOVh8D6MpahEG8awWh0EG+f+ZUgQhSDScWmF3MEaXz9b+2IGk1efMy3UryPxv8YWNksGjt84wfeDtxjLPR3ggQBJwxkY1HfBv1zwZyKg0N0YAQ+47+jFbdOMRfrnLqll94cKq6bS/sYj6ZHdt9epgkKU6sZQ+N7O/OFAbU/OOheOMAAzXMzdz9ZlFt/GDJPeb7/jHqTneCa6Bf8AJMYtb1mh5cCG6LnBYo9ZqZHCubNsyEnDxgA9vecH6se3Bwctfok/W6uRdcZ2SfGW8blWu8A7d4UnVwfDfzgyd4lh4w28uEkkxRNrE75Zg3JVaeJmyJwRWpOMhvCCd798V/bHLIqcjxzP3+M2sFSjsft8ZHQaDoU44/7jwBhpvX+1i74lt6up+/0xQQ9PDxk6D2aN1xxcoBdicpr64uhVSGIR20jOHnNtNbYabzf5vnBNU0lWGno2fjAMIzXYRHqjzj34tHNOAa0edeBza6eBfj/uT8kPnHkVbK7wGRlSA1ljUjcGvzjC9Am+uc5pY8jX94Y2Ee+uzp+2IliFVUnHGsnykBXZvQ745wcgd7YVRvPwP3yiJUAtoixXu/OBm9Ai6d717bkkBBpzMCGBV89/xk0QTSA+Vfr9MahMbv0dfPjCCETXQW+ucDIrKAfMlPJkrI2VYDcvzlEAWq3vy6xCJQ0fon2wlXEzanjdwWEghRv037Yy4pyHTWJtBX1MeRW5/wC+MIcHho79/f1jjtDTwzltnWHpNctb4xwHbplJooKunK1pF40Xv36wIslbmgvzvEFihxWVnU4MOdDLLkp888PbeGUS4i5dmLrg/OJUg+DrmcOGUBzzVmUY1Dz4w+T16xnk1swgJ3zcp5N1TJET/wAxThxMXvwvO39K5OcoSmNNc/GRFDY94ihovnHj9Bv6Xd/+Qr+iXjNr4P8A4SsqYAJcvW+MaU2/pWniZM3x5xNW5zzDXnWKZEW0vTKAu/rt/wDDBhQT9s28QoegfRw5EUEVRoPrD4USHHLvPmBKRvXeViQGSdYJcQLJYf5ykPCTfBgUUpRfXOMiaw8Qt6+MGmuEQiHyk0XqppMpcWk6UAfX6YOIBcIzWnMPvh9Bk5tAksqef/MQIH8ng+g34xA88ZjXQgquDHuKRKbX4++GqB48t4pzL2v8T5xaW9bBqYkzhdHnJABCg+cVLV2g94YlpLxzvvxiGqUN9Ph8Vx6C8AE1f53lEMboPjy4XBVWrQqfR5y6ACl8Ib13j/ZpEx9YB75RoslPf5OLYOqtOn3z5/jNcwFtUuh+1w6zfL0OSnYB+Tzg2CQVQ/gDnEfWoiJyf5ywDkpvxhQPKpPX0x5pCAYicJh5eggLUR7gfXyOp5vkXsR0uzZvvFISQYvAEQc940ojQRe9Pr3k2iJEOnM4vl3mwulNKQK62p98RCiIw3Rodnygvg3eLnh/LiEVG8nJhlGo4ZgGAAXmX1jvEteB31MpLv13gUdlGUNLTCXOMY5ROH+MERFKaMQSajLiJ9TBdWO+cIW8LkFNm8dOaVEP8LLHS6MaEwUvvBRubeGcfpjszvNL4n6bG8Yj2fryn6l3hH9HnnWQX9GMN26xEbmRPrzjszIAc4aMa5txhgaHjNrcwETUJnP5Jo5Nufj9nLTsgKzbvEEpOXPY/JzidfzTYW/HxmuipEsoN/XX5yU3gfjr131gVVM2Lqm/2w5HCadO8IGgbXd584yKFPu5umZQIU9Gahux4FyCZJsIsAgq1A1WhjeU4arLyVNByDUqYBoARiE8G8A64h07Pkf7wCh0M4OE7Od9DAxYLkagw+wpHoYT7BGmZIPgOclSkADgZHoSR/31whYDstHGKLMHQydXfEC9cZTvRCTsP+OaqJHYl43+c4uHSk3TI3UQTYa/8wTINPfFNXACZddNnX0fvg+N714/3WDZRUkFRojB3szdRFEG3eoHzg2FEGSpXUvN7mrldK+MK9q7TrTB04rO7Y6gf5b/ALYwHQTU9YRLdqev94wSAtNXvyYiWomnr5wKxFQpX17fzlg80UDIVdxr5w8vQB7W6uirUtcDECHKgLTDefywI4dDqNSkdmn69YZh/lOdjZp3rNxl88zDrmM4adYwocZs55uLUSXVjMdy7r1ExWKJd1j9cWjAeT5NfnF5LkH6/wDP0JVTXxiVL9MK/wCUvHh9t4aPNxKvHdNYQ9vkcoYrJJcUGsB3hA+UfyyER3i1zkwKm8s4/R51v9VAPTmlq5KvecshrO+cSZ84UYpipNEzs5LkqZutxcIbci8awI1cJYXNjibw12byArcCNpM0kMuZWCm1Y/bK8ohs5XX7Y7IfowrXxwa/7nhNDatFeOesX0BVooiomtf1/FMV2QeANG/pvC0AH5MBGCpRLkiwBdGr0GPcWECw0p0aq+e3WOatswgU+YAdQDKppB47IU5aB527IADnF6JkijfYxGET3/ePQyJB0Or55/OSHI3XY7B/cmRnnrgABJskvh+bgRWrQvjL6toqdGKBE861lzK7jnMa3d7mU0JrvvnELCcnfPONVdcYpLRVE1qZPjosd5KRlLXFJc2ooV3vtbi2u8K3tPfpMBiFnEY/sYQ6YQXQZ19caVcpsASNn4uCKky1Ci06FfBOchEkWgNBtbA2f8wKskyJ8AAho8/qJjPgJxo/bOshAkFyxRe+tYsSgW+PX5zkQIbreRP5/GPgVIHaOknenBXjEEcxpj6LrUW2dft6yWVUhXZr1xk61tXAcPnX3xmxWLyy+8CDQNq8v2FH29LgdrSACCh52P1w6XXNuMNwTju45ZPK36ZoHTnDDcFV1yY7rdqcunLoaTy5D894lPvjNXkFygNH8YXhMs4tq1fiXAINJzrOx3cAGz/zDSK/fCsD8HJ3zC6m8Oev1WZd3O7P06uXUxaPD9OWPBjwYcuW+SYbOJjyT8YpKacul2yOOzEG3GFlkxkuIHUzk8esYwl0YQjhpswcX+nvAG398o1rG/HUDHT9nrIGHlPkDX1NYjhnUbwh8Tv5DH2+/O3MmxQq65ODDnIQXE5VX7fnIpCioOPGCQg1RrFFO6dPkA3yeMdrMKRX3ALwQyi0g2mm1eX244yM6B1jAhZBXt/8zUoTxR4y/wCJwBui36ecAMmoHgDp51cqC0EpsU+Eo/OAsPBuVY+kn5xg2bkvzjE5e3JX9A3XzhDd0xpiWE4H13gtH1rvbiGapT4xPIrC94BDkNa1FbkEAVCHKG0+hjuUuw0m7/vnAsr7jqNn5w6OzA5Wf8MQtNkX1jkZvGpQn3PeGRABYGQRrsnGPeUWipzk+He7wt2Xq/V4wiQQQeB6zfdTgteXX1MuaMam3/GO7aq05wdKGezvEsKw6ZiaxQ4OGf1lTzwvGwPoD6YXZVKu+brEmQPIRSP7H39ZswNwQqE6+2CWJofsmPLQ1hFdasZwzA5oWANkfwmtiYD9OnHSu5pcOIQ6dYg5Ra08Pjl4xSO6PD1jTVhqT4ziT6YWazQ3bxvAgSaVBao9POG8IB6Gp1vf/cEI8nWEhArjFL++akpxzjAL6A/dxi+sS/ou8GZeT9BuImv0WHH6TjFnvCsd8Y+GJ7BgSOsXiHCVJFxEB0ZCE1kgxh2+NuGuG4o/fBscLd4utRcMy6wd2z4wo14xD6mOaihNbz/K4cMf4fBr4ubnDtQF4k47nnj3kok86Sd0PbcPShews+jvABaPo0lvel8d42l0nBhdDr43iv60khw0DWOTXaUJO/bTDeusFE6QQFGeBTj73lNhUe98+H3iPgA9zN6frN9YRpBHQn1ZxeLgPr1rDICVD1gQlBNLOX3DCIVKTTRzs2eucXa6A8zEgSIvrDXUfbveIAh2JiRBQ/t/GUIADQnfGBamgplZom28kyDTSICm+MT6BDYo393G1YMhuAffBpoAVEN4cWDw4aeesuUDnfLxhDgZEoyqzRX3XnFj4cCkOF3zMC2UAkPK++EAAQAa0PcX9mEwbrSlIoccYAPTcey9D8ejJzSIhJm2HJQNffzjcFDjdc49jfqZUQVe1m5++TCKyS0/7/fLUKOka8ayCe0Mon/gb8uFlVdNOx0PzyYMOLpxGuj6R3hhp6Cb57+ubzggofYJ9/ODeBi1ls70/fnHPO2vLOCgqoojPnGAIg2nafXXfG8kDYCP05ygJY74YAt984wVvIjcTHF6CwonVYa9vbkJDRTnjk8Yavza6dHrLkdIdb7mHekeb1iPHnrHJRhHdSxT9EO84737wE5ycfqC5NTOt5Peed6wSdawQUJjBzg9cuHy4yQYoYLgEVcq7dYFG8U6zh4yOg/TLQwO+8DObnzwb7wJ5frlDXOfL6ZtqKtwY/YcJAXRAF+fV/GRxAKnLcXg10gk1wPXWKbMara6KfTKjgRBQPPmnbnHLKM8ro8JgGN6xANdmj8/GKmq1RVbbXv+siT2+SfTJ78Cbq8LOuOcFO9K7eN6eXDi07d8IiQpv/cZUTdwXO/GTPSLqAOD5xWCBe+S+FT9sWmiDgK4vQxLu/qZXIFwhglOCcmJbZrLdatXEWjel/GJAeC6eecJWMlrJc5SJPlhVaDmX5+P+4TXfqZPriH7S+taMCGoVbeNa/nC2AheesHBqwg8oPo51vF605BwF8HOTNjC2HjcmPygcBD4cPII2Oq4+sZ/5nIqI59ZEmgKff8AjN6r8Mm3rJrs4FxtlQ7REfxhkUcqNinpD+/jE+gJKw4xRSonYOvww2IQNI23G+5hiyG/RCP2X/GSikhCTEJnIzsPXxnQWuZUhyUAm+nzhNwd3yYBwQh4mx9zKeQQqWWP7Zrt/wBMWVaaJJknkxrDo9cYWg7xRo0TUISwFSojxoiMFBYsPPBH6PDhEFNCYIP5SzBig+TNxgbbUh9v8DHjEs9Z36wAPRn0GD3hx+nGznLx7xn4zu6MFeSYMTLDO8Xex5xVTgyw6M2eXeEvpyuyaMZeDxgJXnENXA94Fx8jBz6ZzxiKo0ySe3BUMGZYfziRaYnwDP8AG8iVDkMyKiC0lRS0fSu/DEWsX5G+f9xgdZAB00RXxQ/GWT4DwAteL+H1xgeVdO6Ae+Wwd+Jka1XATn1jh6IJ27nBzgctIFAXt6+OsW0xUK4VIIcG5Mm1i3BNqHmGCqH94bmwUUWgc2Xj8wPOJKgHsBPZOX3ycdYBMBFoio3Kh7svkwU3lMZDzrziFAnXzhAE3DTiMhLQnGdp+uEQSe8rJdduO5YCWPjvKPlAnGDtJ1XlzuB0XLum1r+2cxBgUKwScMf2wahOJV1HCq7EK0wx/bRDYk8vCv55OIP3nrL4XZgQDXP3wRADd69fziEDUscOALBGzzb/AJw4QX6MFx2BDZpxE8rQis0fZ/LIRAQGf0YlOsoTYy/v/GEkAUG7P+RyVK5ZtvJr6T65CEcr5dXXxkrB0pTBkJMZvkmNmSJdiC+0j9cmwby0L5/f5BwK5qEbdLfTyXKQLY0+TCEFOMabvvFdm+5lJvOX4woAUTg0IYANnRuKYt8x+vP3zmY0IbwEDfZ1kglTd9ZsdTleQfwwLN/q6RP6x11rHSuLrWMtmcBbPWCqS9/TAMfhm0HA2+mNHXGBDiJlGB9sNnlxdJM0XN8cZTC4aic4Je96n6DnOT9C4J8ZcV8YmrrEq7g+d4Ku/rirrG4dn8a5u2IoWcsv95VoCo1Hnh6/jzmlIaBqCa2h/ONCSAqaSpE8Q1++X6RONJCv1g95YRKHSDZicXRVRdj5Z11q4ZfMVOBDZ9soQE0n++mDthbGud/8xWGLuyY2Uvb+MC0DocImkUiktfxj5ENqbL+Nk3jriAo7Ghr3MYBIYmAWOaqjlmG8NHYwqJslLjBjyNZoALhJH+2IqKcX76x6SnwYBL0aTxlVbBXAq9tRypZBMUObN+3WPKQTgmo13Ol8+seFj07MOVTE27wH8TQi72+eWesmuQaOc5a4P99bjoa93EQQ8rxhlVoeNDJoLv11g1S673tzgkUu/uoP5wEROHe2/wCZ9MEmsjRr4cv+IHYJr68m8RoOVBmzZrx19stOhvmWhvfGTg30eHDa5QOV+t5Ot3Rw/wAM15vq2xBPnZil71S2Tp+v7uUCUZeMshG+mAicOJiN4qj5yR41gTPNoZLMfMMkLRLRBI8pp+mdbNN95egEt/3eUfQ3jIPg/acjbjQtypsyRLgrdQw1xrA9suh4xNE6wTa4R/3IjznDxrOT485pXAMOXFK4ykxPG8SYAZ9c4MdIkcl7mATkyB4ffALzhBntubmSXAi7wDnv5DTQ+uEgCs6b31hzhDiUZW/cv5y0O5KAd1+k3kLCsot6F9/TNQwW3Qu/VlwoCV5OeJoNlD3DdlWh099AeeT51hIaJC0Cx+vOOEHwCc4IL1FjSULmNrjFR7Y/x9lw0JDRk77Hu4VMg6/tsh4vnFFG+gP+P3zRvhQ53gD1bfJU+w/TOZq81xaFyW24zHbA3hwUUpwmNRG/vn1nH0z6RNXCQIfWDFqsETEaDeLDB3WEmVNaOOcR1N3S88ZtwVB4I/iv0wLygSCKJ79Kcvq0hWatyDc0s8AeXwYQDpAnifKBPrhARZKZcFolWu8KWuFXxm2Dq7TFwjdt6MgAmqjcROgetuJ1bZVzgpkGz29/Hn4pliJ0Bo+MRst08g8fwY9e0K51/eAbFUtp3+M1Rq9Z/wCfxlsLHQD/ABkRKUNRfOX+JLgFAl4456mApDWWk3T83HajueOHNQiGr4cn0QT4ZtlOXOG67zQTCXtvpH+OcOmpNEQAPFH6TJGgJ+cBkJ5w3RsN0AnC2rbcQjd4I37Z2wPHnA/5hZ8YH6YjZrIMd4hv7uCoxyBHnFqiIe8icYBH13hjrjGAPrmjDFJO/wBF3Moe/h/RKHGaMf2yYxDwgrHCvBlsJrOO9/pY5XCL7z69G4B+C41NMdPGMJmah6h5cFs+2LIKVoujbfPeDDbIhA9RT6/t5wUoBShst5ClOMDpLxgHAVdbdvGMsVqkd/DHb6ewqqApXjlXn8DJKgJRXe3TxVBmBhUIAyHwHGHQ9r31coPpBedfvjWTKU7eeScXnWT4ioDbHvgTvEdTbJlXj9sp5wo01MD7BZisBrdcaLGL9PnHogBEMURTIEpDADAJ43hB70l/30xMujEyjWd85zxq6c/Enzj9WliTj3iaAAPP94DLF3oKE+FfTGsKUlBOync4HkxxwSkQIgldveWdpYlLRw0jrXvGYS9t0rP4xAoUc4VIBJZx3+MCSC637YhhNfB/rlFVoAfOE+OV64+gEqaONohS3UNQb27OsM+xQTfMdc/a4gyuEF7RxE8sYEAhbbnwRdH/ADeTKgHtOofUfvgtFkvjU0OFUAqivnn84vPIJrv/AJnCCq8ovPGcfSgQHU5N3fpeMAC8KKvyL8ecBE9i83FyVLbVMUwc9PfGvrPxgBGpzhxQwU9e8YuTbH5/9xw8rx4WV+8+uDd0WvER/GSvCD34yDwyC7f9MRRiz6YmnAYwTc23YmB1zk4EPgwFyMJU5M18MLRCZqay6MVR8YR95R25wad5R8foO1p1gXd86xpvGRO2AnUpq5Thyp39MQuEvG8N7Jm6Q1nnN+sNNc+8pEp+gsyAP2zTUQD6S3BDXbuMsPyfquOnXSyLp331hyOgZALocHyqjvDRo6q6F5VH6B4xQB16WnrejwXWGDKJgE1onXJXxi1dKDle7rzm76hoV5/32w6CIAhrl9sAttzyxKDo7ZPLE2jrzlX/AAgRXXV2/fBLViKff4wxNGy/Exg1xHxiNMXw42Zp5ftlOAkPznbKxyoupw5QG/FykDu6mdZ3zm1vF0N13hlqfOIiweEyqICXEWUmhwB/P2x/KRJYrp8afGLe0BljS9s0PQZSEikUQo52obmQrD+9xhPxnIg9dTDaSareX/XCS1uRc3rU29CY6SiEyVRlZoLy3ry7zBW5Sqqu2vOBdBy2axNcDbijzhgIvBp5OrHX84bwHyTFe1OPjpwmoWW3db9P7YqKNrtz98QGcqbpgLQHU/fBxUYcKYCgBYquwC/KY6UClvNB30jrkyS2pNU95BGQ6VGj+1yyTzTT7PnOIQX2yms2deO8cW5WO83EI/YQ38fjIL5YHoP3rAfROcaAUq8Mw+1fUwt6r6xD5YLw6y4TKkm81rw4hDGujDzkRGl+cKLCFbowCEbnC9zFYuMXTrO5m4B3MdHO8pS4AB7xCJw5ZQmCU73gHtpl46zWD7/QUneVHBXiGHKMyb85DlO95s1YOPnt85aCiooQX9kH494Q3El1vHwK7BwhPzgvorFeWLNuxYdHWyoU0E0nPu/tk1UJb7seHl9uMLfEzNAal+e96POPQFsCLgn8/GPZ32Vp+2/yduUDZ5DzhdE+Tpx7vfjKak6aj451hOhBvufbGyC3yYaAduQ6PZteMZMMSO2rs+PtlFqaIHPOBRHJMb3YLrXJg5PClJ4Kez8ZucqaCpw3L64xhyU3gcNKcXDEteKYYHjAC6r24XiesRPF+MCltnbxgJ2dfGGuxT87ziWQUzY8d6cVJGjG2/GvGBOqtLxb1my0ClYaPvkCIFR4VuWAIRK9YoYoa61hglYCv3xyaRSpc0OeugC69POaMy2SCaZkAyQu4ax9lCh2615cTMLV3Zu/JT63E1LlYaGmp8X7YcbJpdw9YXZ0nD3z+xjqDVsMb59f+5st0cm3jLOgEiCk3f2yH9vV+GE5K+7Q1x3Pzi5QvIcJ5mgfZxKiA4+/4despEQLW2InPJrfz6y/SLskjAdPGKoDTyuQQ2esTgWaLmw4F+crA1jRlYOa1v3uGDjPd4Pq6zeIc3jwHwa+mMHOQLbiaNtyMRAyjneDgb2YrsxyA28ZLDBhLzmgl04gQ/OKK84nxjpx23hOwwLVg9ObaMAhd6xQ124xKTu4w2r6w7gceP8A6CDCirixeN7wS7yB/rNHXWPGiKgrsb8cfAYTON2nPxk0CI/UfnCgmnI8d/j98jBhpGUtO96325I1UhFWVTDbr85MVhtUhd78vnvEuKEgnjZPBz3cBuqjUpxOIy/+TByXlF6uuuvrc2hCpE+D59msjXyqxpOvp04vbgMgfQri0C1afCD39+/stQGq6nbf457xABpzs/fKvZH5axHb0syENJwuEzCOtEma0kDRAVJ2qTwXDboTWuXITT5GAoS9b/fGjpOxzUj3zyZGNK6XWTJHauVtbos/Cv4yMCocwpo11C0OTBrlHEwonzJ84jRI8kVv73I5so+j93fjFb5JgzgHYzpOzA+zrIAACvQc+cZ3bReGuwGv6y+EiSppEcDBluucBB9c1w+h/OQ9Vo4O8TpoPDn4mTQCJBE5cEnXsOA2ibhuVMWhWVT6H0PGHu5Y6gEYd3ximBUgebP2z4DT36y+iEHXv4RxAqSuqas/v7ZdAgmytXf0yVgMgTbz9nHQdYL6OfvkDtRNJ5D6k8dYNIAGl/GSiSc6/OXpNecMXs94VIJTep9MGxQlyEtBGuYPqYZIBAblJv0X7YmizGKBv3iT3DLo5fU/tnQyZJR3k6TvB1hcBQLMhJRuQwgmLTnDZcoqHWWHvJADiAMaBYXnKF09mTRs9Y4dJ0mIU/TH0O8NEUw2xcSbeMGvOXv9CM1+crTnZ1iPqEssrOPrjUW7p7wGt4A5cjNQ27OXnJ2JILNr/wCZUduHYTQex+kwxA2EXZzrLAhBlJDz5p+cbS4Bcdt763cKQOwfwmztxvADrk0AeNct48QriAKDFgfH2wqgHzCa24/MctqfKSzAd4KlXRmACQhrZr4Q75wBIPyJCSH1ych0VXTy/wC/bFVT0UfvixF48M/bGwI2ra/XK606UAlEE0p9Uw6FaU7S4lHDbesT8u0SuuwPSaY+MPsSUAPsYSSF2RfjJViTb1+cJE9orgcq+WsaNyghQZOt94vbc3y0g7SM56zb/o2Xui/TDmttk7WDHrhxSVVEqrvlxn6xvpQAvEF49ecsNMHT2eveCcmoX+7woATCidO0+ccVEkrY4/ZjyE/9wdlL52wFm34++NC3W6L6PWU4TAan/Mj6OxcYBAWn3MbkFQdKXXHs5zf1U/JL/GCWh6fXzjJa7GPPjDoXaYcwaKfWGvyK8OxLvWr9clDRVVVRn4/bADZoOFPNOPP1wwSVZvvBU0KENV+2TRaoE+cmDRbmhjt5mMtcLisEqDB8/szGShlfjHEHnJEj7dvWNTTl4qD6AfbLNffAD56c2E7PeIaOPGQ2wR2zDd4HvNprAt0eseg3gre8QVOJl3B385y1ggmIdOBDaOc1HfWbCnOQQPmuX61zUDxgsDRmyUnOL6HC104X4MQPHvIV5vv/AOOGKdfpAuS3FG4tXsAO/f75VqoQe94Y23qHSb3giuWAairfMPHXWJBywj6b8fGEYtBAJnqZNREuJ+nX2fGQ2ot7VZp451s+cusnsC80xtGwDEAmw+n74gntmoneFunx73vZx9cSATIF71RNHOzz8YEkCaJNQaCO5dzc8Qda4SKXU4I8cb95UEoJWe71hDINj4zQkrI2d/1gLGArOsc1EU4HfnO9UtdL74hTHJ9fDMYihIueN1Obz3iRIU9BtfSu6+mbsVIVQU1yOzWtZo1mEk1CabgABhJ84J+FCU6RCEsO7vA0w0gTRr64X1J+fGRGyAkTsfrkuVRrtXYr1Z8YvvoKk5MGIyGJFIPtF3ZhdQmx2XCnZpdT6+xytZeKeLbreDk2m6l5Ei/XzgA/yHjCJ2hNOHpyZFEVUlwWJVIHfk+uLGSNmrlw6GK++8Nq9AxTz9OMiAQTtdc5AEdo6SZyglE8n+M0k0T2ZQwndu3nxgnIfEskHDUEp6Dwa7zmpRdzz486/OETEAl97/vE7dE8m+Hzlhs15uCOuubhlc7MPWEp+nWmhv6ZpudnGm/cYogFKcIVfsPt7zee+8PDOz1iAXCczWbB84gfOXPWW6uOne3GWU9PeIHjNm+PGCl8ZRFmVeJvIRHgwJs4wYVy4RRZPGC4d+coI8J1leefOWKDrPIfFwQfH5wBGCZZplP9s2G48mBMev0Of1Zi1NiLw2vJft8Yly2R26zm1hR25b+oGbS/E1ggpFJAX+9/nEcAtnQ3n65rdUqpdiP2N5JWlHkuunDkG7ZLPf3xLQwbQNKHvnCRHKGKEm/H87wmW3Axn/v3yCjDbLUfACo8oZpmrVKqSuvoen5xStlrHHg+37Y1QSB6BZZ8mIG6SoLt+nOANBsCeX85bvVCncukl3hfgDOwbUKl0pefGC8liyvRgPneCszcVU8Gc+vjBPqbMaeJVoXcpn0wGTocQsAXlVTxvInqSf8ADCCCpRns8M+mABRYKL0OOMg1MSLUTnWFxooXnAknn3lcqzXODRlRAfazl/fD0Y4BVvq6tvpxW8nNieHNdShxU1/eHQALoN8n5/GDBXoDXwf7nBTGKH7YyID8w25MRennrGUYZLvj/r9sWAgvDfxhI6tc0xxfvu9/7+suZcPg8f71hrtOr4udgbpH4wwLKxsd/bziKIVNaD4xGmNijOv2wWKJDjH9znBINXYc71/ucURAcnWFEElX8fjFOOg0mDz61MMjtawQARInI38ZASwaXj+AzW6Va2CD3gKhowLwybmEGddYNg+eMEnvGNfpwzQH1zlveCVffBmg0wZtqyGC0ZyYAdH2xHp57xAitmOg4O9PxkgnfvNxQLcQil3MujjIw1uc4LxWZYDKLp+nWcYfGXdyv63cxTq4uPB6BzHh9PDjHBprlEZvr75K1MA9vr4/fBGDKBtCu97OK+DFgfEEovO8taKROzJHEBNw0354bgAAUrrWuPWFGp8gHvDiih3f8/8AMCtF64Su/oXLSdPBrr14cJ4Sgkjdl51H0GIEqqMDmUmmfm4wJRvyTJqWCDzx+c0mLKa9OfjXvFx9rKKFPC1uXQLkar2kNC5iIGhO3ClIaLxr/wAx362Qn5yyUo3tr+XOMHv1kOiLUuJYl8rMTsE0bL4DKZ7QJZ8MJBhNecKk+ebc1fhyfGTSSQdtp/GCKDijWOoaa3q4glDet41VyKKp4xYMW0x/Rx7YRdGlkn75F1E6128kwRDAfNceHkaU+cpGoU3vXGLw7maOz9ZPrkjECaefr9M25nTNHmedXHM1GF0ScmED9H2Y9gAZvHCITWhqR5QK+c2IIk5wEA2WvDN/f98uitjwX/X8YbBibbieMEyQlE6Gz84rIBDvfWIHQfnNukLq9+f2yoeXswo3KusGcECTEmagfOCH0AD3b/A5RoIVkIL3tU+MpITKNGXowUknvBfznsMafxlnOnBUuFnj5w3YmVsl8GDDeMAGXYSTcx4U59ZXyyvPUuKtOVv3joeMrG8tPeK2Y61f06Q97zhg+ph+PvGca74HNh7+cVuT648kP1wV5Pvg3ee4yHeIC/jALiid4Vun0ih6K+cenqbev5q/XLAVwPg6/OJZqHK5tJ9sSoAgUbxap1VehjVhrE5OPGGsxJfPxibAu9ghTnvB24CxZBFBOlfH2y8AsHiIfZX7nnEugdD/AD5yGJVUV6u/4xE4BPob384057SirB0AfXLjKl6eiCGnUr9ODC3jVQ56sxkka0TZf+b9YvlHK8PY4nzRKciYS6NR78/8xbuLxL3B/bO+nudJ4yz6xTw7+uESEKeLiIWybcR0Dp6w7l78PXahNe3yYA0tRzjlsanlvjNrKBfWOUdOToz4ooOsRYXUOy+Tw4fNNh5PkuKSeTsC4ze2gD3rcxxbAF7vOJ0E5wIH9YtCuoGfbLCBwl3O94DOLzO3P84631yeDm5WG9aP99cIQEWon5j9jzhC6VF9OMrWmie8Dn2UOz7ZYOypt3P/AFwFuUCzf+3nsQTuv+4wwrpO3HqBvt+2CqA77uUoaXIBC8/xiBAIKYmJlHKqDHoV3rUxjSyO1Vqvu4KGvxg1sxVLMEGCvziY3Wco3WNG41NPeLy3lok5wNb67xpDs84WefGaKnHG88jgrQrg02+JkPZjeFwU0Yt5yzjGv0SMx5362OGP0OcL7Nmko+cEcr6f6soV/wAHxghdvT/Xnec9v/GEbPz/AFYGiy/64xNH/wAeMI6/p/qznH9f8MjAQ0QP4wYwaGsoCE+PzhAMIZO7/ZiqXQazxv8ANxiI9kl+2G8CS6qY2w2E5X/3NoIWt8z/AFy6IjSxS3WEAA4R0TJ+ckkjp3z3i7dDG9Ku/ofxhNC7Jes5OiwTNCGKk5q74Av0xyawceljSNoNg3WOTwZG6l/nAHCgfC6xiW8T6xcQRt/GCzL2v+84pGG78cYodFkB16yqTmHv24HP2Y44MN6On6YF4tNhH84h0jfzm+uVQx979jj48Z0lQtjQygrsuCtA5aYc24t/kL6K+riFO8+vrnYKNcD0mKho1tg9+8uZrRPwuEhxNEGV2uTJnmcfX9MUE5Asa8fYZHB2D+DeAhAQVz985ccXbf5yJO8lbxY08iOsUzXir/XvGGjWMgQ6I2s8J7jQaBGaSdZv3Qyz+cB5eADl/vnCKQLpN6MOiJKoacH5L075JP5wBJPOQaqPXeOjJ81R5Mm3OkBXgVA+uEvpY30h/nePYvxmG7+I+HL9uv5wSI3cV/bKm4Q6Re//ADxasb5/ox4Kd3+nLD/kHWC71G0ZyiXw4HXN8OfMMQNNA4p3DKPUmsBFRpzhqx1lAJxljirkFev0sH9DbLWue1wxrf8AnvHFCj6y+zh8Ze08eM1KtdnGcmneQ72ZvKH7ZsbMCcsOE8S1gK3Gbe5Xnyfbf0y5qeHrDa0IFyZKJBXoyDsyscD+cXCAFLdZv+8VYCUFZq9/7vAOhITj/cGsdBFenswkVl03i89dZobSQpsqN+Nz5+MD4xr3gtUm30zWVrjEBB2R/LOQE70a3Pgj6YOwiZfG9fxkCwQX6PeFPVDl0zBOFaOiObG+2hMBHaJPz/ONcHcdPOCLACHxjRDI+6iq9OUouULrN2EJvvAwcjxhgGjxjOBxO/WUpoggnc9Fb38ZDLJXxTAIjoc8HGOkeRq/XHVSNO8M+FfZ6w7tXDvAh9JHWFpV7XHKuvNwk0zUbvDC6zS6++Wf7w3RuFFOoUfD/J2KZVoS40uA8MJ85IOg7xyhGF3MjGyunXXWaVWtEby1kAXW7F+kc1VRbL/uMAxh6cU89OsDoO3w5RrfB/8Al7H74J7cRyB+c/wSnkx+reX+nHVff/ORiZ6uIH0g/nFZuLynoaL8zE0Vxvt9DT9/0TRk++Rfrgc3X6Xf6rM//9k=;" parent="1" vertex="1">
          <mxGeometry x="288" y="50" width="407" height="407" as="geometry" />
        </mxCell>
        <mxCell id="RDgQklarTY56nqukjO2r-3" value="&lt;font style=&quot;font-size: 39px;&quot; face=&quot;Comic Sans MS&quot;&gt;&lt;b&gt;DevOps and Cloud&lt;br&gt;Interview Questions with Cloud Solutions Architect&lt;/b&gt;&lt;/font&gt;" style="text;html=1;strokeColor=none;fillColor=none;align=center;verticalAlign=middle;whiteSpace=wrap;rounded=0;strokeWidth=10;" parent="1" vertex="1">
          <mxGeometry x="-116" y="143" width="386" height="30" as="geometry" />
        </mxCell>
        <mxCell id="RDgQklarTY56nqukjO2r-4" value="" style="outlineConnect=0;dashed=0;verticalLabelPosition=bottom;verticalAlign=top;align=center;html=1;shape=mxgraph.aws3.cloud_2;fillColor=#F58534;gradientColor=none;fontFamily=Comic Sans MS;fontSize=39;strokeWidth=10;" parent="1" vertex="1">
          <mxGeometry x="-92" y="287" width="75" height="75" as="geometry" />
        </mxCell>
        <mxCell id="RDgQklarTY56nqukjO2r-6" value="" style="shape=image;verticalLabelPosition=bottom;labelBackgroundColor=default;verticalAlign=top;aspect=fixed;imageAspect=0;image=data:image/png,iVBORw0KGgoAAAANSUhEUgAAAMgAAAA5CAMAAABESJQQAAAAaVBMVEX///8AidYAiNYAgtQAhtUAhNQAgNNGldozlNkAftPA2vHQ5PWPvudQot7x9/z1+/7h7vmdw+m01fCjyet0sOO81vBSnt3I3/Mlj9iuz+3n8vpfpN9BmNtjqeDY6febxuoAeNGEuOU1jNejCc/dAAAGYUlEQVRogd1Z6XqrOAyNF7kYUkibBQcIae77P+RIrLYxgbZ3ynTOj3xsMZK1HYndbiXes7VP/rdRXreW4K8grczWIvwVJEz/LwzyDtJQhNy3FuSb2CsmjnSg3rcW5VsoBeMsxYNYwdayfANpBIyJPR3eJDy2FufLSEAyxmWBh6nkTB22FuiLuCrOGGsNcRWMycvWEn0ND8UIQAbZVaTTr4z3rOz0ONHZAeiYm9/HVA5RIzrrAmPfnrVx/5uQc9nqIcvmPGpPOf9l8X5swpygazpPRHcKt61F+xQevdyMt4nqBP0FlW8s2yeQXVQvNtMJXUkNHzSrthZvNQ5m2H7Go+bSedSMqeP6peo4jot/ScxFFMBHqXXcXCvleInLdO1SmRFCbVZES7CEbhuqwrrUF5Y1iDU+/rFa77+L2PKivpIfha1Il8hWAA3JGWxTerLIcqzOIC09GbGWcqEhOVaebdj/3TFI2+HWirnQ6yjXXTCJjGCThF1wxyAts3qApwiXqxaLJK9q2XODn8XJlll0XbrhniLrKFeiKT7QLdXPh3tiO1Hb4SLt8j2LnG5FdcBNEfXuCAx+fmzhRHW/7Sc5VUS+Lq6VQcNvUhhyxrdR5LnFWbP8fDyegyT23TEIb3c9CxhkDeW6qjZZYA62H86qyIOhDUvxwOaj2evl0m9WbiKDdOJwEQAfveDFCQSeCxGdJ6/O7Ehn/ajhGlRkeZcr3m4FFiabMmdG4g0uEd1vkwNTTNN2Vs/oXnccKy7e0MPJM3SnyF0hAeESBeZ6kkzc7ATdX0o/Z3WO9/Zcj4Pu0xVwm9VkTIkBtHRLFFL0AEcRPOe9IoLBWwESYLDICXcXAC0FqA9E7qsL7ejRExF8RdAk/Hm8466IeDiyRq7xecQb9LQULfJUkeMN5CNP8lvbryrGYd8Md+5oFY80XZyghoGH1BDUZIFywVCGaj3L/TG5dO+ZKMIdReRJmDGsc9Ij6U4SDAhth3zsGsRyvDgYJWxYKgSKjH6eh3VIBJ89iZ48LFnEErzVX8XDGTJBZ3Tolj1HyntQk6eU65WPS/hv6nG20sBCjDj2z7VzmqHkVup5E0+EfIiQJmr+Y0OheucnIdG3zLS6Y+MzXl5UxNpYqrS2LxEdsVe1ZRRemQimridTrjvW8zGtUSmZ8sxKWh63oIiT7b1HiTyMitwcSbmX0JDdB8r7k1YDrQ1jVsOAmVIBtLIaucuCItKqRJhd5a1ORuwtRRLXd9SkWhbB1CVmplw57qEtOWZw/1FydEvypTpixRhxPymEW436m27rFCrbSShM5hg62VcKGMCZH+6pcpt/jNinili2b4gU99Ddu3oGCUVxkKroIOWiTxALAYVFy8qgy4pYPKJRxHjoXuym3pm+aR+wSZhyUY8PDjDCHLlxLeGY6BOKUImaCU6vBZybXN0CqUuEeg0q2I+9DfyrHa+58vMJKWKXf6+y24rUeo5V1K6A841sFdAk0P7hev4aNFAam7HUSL81I0Uiy/kKyeYUyTTj4VrsFYl5XpsF+GNgqo0GnlRyLCWjMGifyfyCrGjtCdWOGUWoAEEoXfpUCuY/5hwCSVj7NIoog/ZfhHRkiCdkPFPfKN3oL+ctQt9qgpTHmy08/XYb6N8nxfM8CYBdm0+6FJcEm1+UzkrmObB5RbDVYcrZvsZN3zzZns8VrnqiiZ+scTPFNF0gIZKNGchgAc+g4dmw0oFR/zenCK3lsOE77UvqO9bCZHfKHzl3fJG+NupABsD/aXqwSWDn9xHXViuKVP1oljoClGY2a1GsouPpU9vJ1Hsuot00py5+S58mYdcZsUQECz5GMxnqnUzaMgzV4uPabQDV/w9TRVpIlj5TZHfgKARoUVVGa+ASLVJ/SAdiedReTfgjWFNtpJc8OFI9Knphoduxg4XeoXJJqmCDzwG7QacgSj+TFhdF7AEXwkwvDGaJx2v5auOyPGk/TCaPYBHE5M/Ly0so7xV4/c+hptsuTM9Qi5MhKwmzx//Tne56bl5eJkEXX3jzMJgy9u8tIiuS4+liJuEeYMtfQ5acz+dk5bf8IseH4/qT89giOT/KCHAHeIDPO0X5v4q0jve3igkFAU47mGRhyrUxDvnxVDEgFeZ1aE0iN/vm+Rxpfn1UnHqjJRX6eF/9YfGnkCbXxyvGQjgY5hFusX4M/wC83VCqD635jgAAAABJRU5ErkJggg==;" parent="1" vertex="1">
          <mxGeometry x="8" y="287" width="200" height="57" as="geometry" />
        </mxCell>
        <mxCell id="RDgQklarTY56nqukjO2r-7" value="" style="shape=image;verticalLabelPosition=bottom;labelBackgroundColor=default;verticalAlign=top;aspect=fixed;imageAspect=0;image=data:image/png,iVBORw0KGgoAAAANSUhEUgAAALoAAAC6CAMAAAAu0KfDAAABBVBMVEX///9ChfT7vAXqQzU0qFP8/f9EiPT1+f/0+/bI2vv8/vz7ugDE5Mw1q1Z3wop/qvc1plpBh+jqPzA9gvT/9+D7vwC/tyb/+Pj85ePykotWq0erX4r802D/9Nn2tK/sVkn5zMmIsPjl7v1alPXsTTD6sgb//PJMqkz73dva5v3609BRgOb5qgr/+Ohjmvb96bS70vtwofb7yDmvyvr4v7r0pqDznJbxiIDwfXTuamDrSz7ucmntYVbhR0BXfdyfv/n+5aX+8Mv802yNouGqe6LvaSXzgxv2mRH1jRbxeB/uWCnublb92Hv7zaT8zlL93pFyumeY06livHro57bX79+14cFQsWiY4pmiAAAIyklEQVR4nO3cfVfiRhQHYAIlQOKKJdiEFonALgXKm0gAAy0v7b5ZK9Xqfv+P0gmIBAi5dyaTYHvy+2PP7p5dfbjnZjKZGROJhAkTJkyYMGHChAkTJkyYAKK+5tgSdFRVq/cKhtHPrdLvG0ahV9fe+EdQqz0jNxje6LppmrFVyO9MXb8ZDvpGr/o2+arW6w9GYzOWIYntxPor0xyPBv2e9sb4arWQG+kWexe9/QFipj7KFarH5m6i9QY3OpG5sV/5sRjR995G6av9kY5j2/X945f+cmC1NwX8pXXM8aB+XPiQruBbtdeHx8NXCdxT9OFx2kbLeYQv8TktcLhaGHuHWxkXAh5tqkPWHt9NJhZo16iGyQm+xJtGYIWvDtzvmtT22CCgwvfGXOFL/M1lAHDV0LnLiV33v2m0HK/rc8du9n0eJqsDf+TW3MDfIb4+9AlO6L/+9Hst7hdcvRz5Kf9NSftl910uCD7ZA5ALPtW97r9csOrOX1719QpdywWhyN2uDYKRE3uJszznF3xXLogTrna+U0VXuaCI1wmO8p4f85aV3NyRE3s5xW+Yqd4EKCf2K24t4+MlGnOQk0w4tYxqUIMym4XHjNMa5Eb+i5NcEK/5tEydrtGJ1NSHOcMoFHq9QsEwckPddOZnDshJu3MZ3VWaexEh6gOjV9e01aaA9aum1XvGQN/XE7kj3LKnebQMRbtY7oLTLoC1X1AYmNt4Fzmxd7zLNXS7ZDLjfv3w8rmqXfbHNryrXFBa3kcZ7OhC4Aa0a6FWjddHcnc5sU+8yuumK3gj13N1xIOxWs+t7suQnIwyXq9U3Ew3kxldIp/o1d6IdA0sF5SitwHyEienepzXSOFhOYm3sqOKnhnTbbCohT8wcm9lr6NqfkO9xJ8qO9+KtuOp2zF3o8yIYf2k1kLYvZS96jy8vF/GizwSKWHsZfaxPbdd9Pe3Hz99bjQ+vKTRaHz5evsn45oVxs4+tqv2HZfbr58bcvScJLqO9QdZ7ubbTYnhq9cQ/V5mnckUNuX+1PgQtaHtkWX5/H6apddjrtUUI324rndDPsC26fOzCq2+I4J0xgu1Ol4W/Aupt5t7rY92p7SNUwTLznihGmR8+fhFRrhf9Oe0ePhSFdnmvsPY7acPaPgSH823KzTfIgW2DFPHaH9+bVDBV5W/u6DAx8GWYZm2V/76jO8Vm10mXYP/LiVolBE71GVvTrsM8HXh0R0fn4Bl71CO7dm7c5lNbnX8Pb7jwbILZao1SGmWZ5db+O4Ua49PADnpmSJ+v6DSvo96kVtNs8A2fK0M2oU0dhGy0u56ctPZE/B9SRCucHYe8uXFirPHO7Acaecjty7WO1y/Y2aQKLvESb6sO8qeSGPosF2a3XOSW3VfYMb3+DWKDu7tXeS5ya26TzF0eCKzjOi+P9b0cCdytGcRdtQjtmV32zCoTLnKo3IeM8qUrnB0oXx4TiDNeF2iazmm6LiR3YpydfC2muXZ6Gh5JIG8ToXD28GVBd9GR8rJTQlLV8QDLXPRPYocPcSsWsbpKzTvOMIp5DR0521JacazXSjkVHTHnexm/khyuqor+2XnWnQqOSV9v+zNOY1clt3+NZ3coqNHR4ey44suW6t0y3XSQ3xKuUUXFRKkfXfDoLJAyYm6O5/OLpqV7Ky96Ead9LRyYk+UaqlJC1l7Zef8QBM3pp/Pt571s4vuHp5e/pJEqojC7xw5kdqoRZf5bHcCTu7AO/8mf8EmJ4nXipgLVty6UCuYi9R5hYLM8O3/d84ut/CdFqLsWxdqFtEv+Znzt5MW3OQktTRY+K2OIeML4Jaj84MtLE1fP7hnOZm9w01jH2MkeHxxu/ik9RMKBznGbh9jKmC/3B/olpf/v5ouc5GTnrmC6MVNs2eh+1G37f7dyARI5iWPRDrAWp79rAzY6nNgRcV6NOQmJ098QMtsml2aQkV3bRcrlQU/ObyEqrzuF0h3AP0OXgpqcpRH4kDZlcmaXrl3p8NF552Ue9k31yk0wNxT7crxSMJ9kNkcJWwCA8xd0PJIpOhOb63p0NgIjIx+BNiDf93EvgDogbc6OMa8jo4Avctz8ECmBNCRVe8yPjt4ortPftF0it3nt0b/D1f9DfY67jKVjzLCIAdH6JY0DZ5+zYk+D56edpVv7qbQHCb4IaaEncNI7jNHOToNmg70y2bSCz5VBz11TLj3i/1Ro+1Ol6FHU96BDkAqm/WvC+jZ9D7Qbgc6fWshBhpi5PNAp+wTqOi2FQHoCc86ERWcvAMt+G6uUsSSQJDtDq3CkNgPEEIPGwHaO/DJnq19DcTOAOkZllPqlEkg5Ns/n4fZj6E6esmWeGmC2djY3pHB7IItj3kn/dMnSteIjYG9fbAmNMas8sPfDydPyaSETRydRKk2aQmovaTi9u6jNEXJf/zuu7PH0+cTbFLYXBdbInL7ce+AMmJL5tySr/IOl7PvRVwE/Lapkt49E1NZUMixOfueYhsam/23DMyAsjPICZ07XGntn4gBys4i94PuUHSo7CxyH+jOx5BcTwoyyX2gH3ifRnbOWe4D/cCRO6l9qGUY5dzpSuvQmeTmgdOCrHLudJfXrzgfRmaWc6e7HEh2bBl2OWe64nqE3WGU+eFnZjlfuuJyGnnZ7runwL3IudLh9wzt/CyVJzlXOuLtThdz26kib3KudMw7tWZ5XnKedNxb2Gbr01xe5Rzp2PfHvfSMZzkvugL8hIk9WcvuXc6JrlC9f42MkRzkfOhKme7ta9I/f3uXc6GTKRcN3MrT6VugKwrLiwaTz2dHp5NmYXsHgufCe6TTjCx7OXk8Ip2hy+1JPnvBe6GLLc8vLUuePJ69C5oultE/Tu2Of3pg1LPRxXJrwu+dt8mTh8dv9Hz6hTtRLF9NUpxfvJp8ej49ffz27d07/CfAV91aMy23rtLF6xrHF5duIiWfTp4fHk7xKaaRKRaL16laKeHb+7TXnwCdBDo+m8OECRMmTJgwYcKECRMmTJgw/5f8CwkkZNL4+WFLAAAAAElFTkSuQmCC;" parent="1" vertex="1">
          <mxGeometry x="-9" y="367" width="100" height="100" as="geometry" />
        </mxCell>
        <mxCell id="RDgQklarTY56nqukjO2r-8" value="&lt;font style=&quot;font-size: 49px;&quot; color=&quot;#0000FF&quot;&gt;&lt;b&gt;Rinkesh Gala&lt;/b&gt;&lt;/font&gt;" style="text;html=1;strokeColor=none;fillColor=none;align=center;verticalAlign=middle;whiteSpace=wrap;rounded=0;fontFamily=Comic Sans MS;fontSize=39;" parent="1" vertex="1">
          <mxGeometry x="323" y="470" width="328" height="30" as="geometry" />
        </mxCell>
      </root>
    </mxGraphModel>
  </diagram>
</mxfile>
